<svg width="1920" height="2655" viewBox="0 0 1920 2655" fill="none" xmlns="http://www.w3.org/2000/svg">
<g clip-path="url(#clip0_144_305)">
<g opacity="0.3" filter="url(#filter0_ddiiii_144_305)">
<path d="M1920 650H0V1390H1920V650Z" fill="#0068EB"/>
</g>
<g opacity="0.3">
<path opacity="0.0144928" d="M1633.54 2250.05C1642.34 2255.83 1655.66 2251.6 1663.8 2240.44L1938.21 1864.42C1941.78 1859.54 1943.94 1853.84 1944.32 1848.31L1992.56 1147.71C1992.83 1143.77 1992.19 1140.07 1990.69 1136.95L1765.08 668.391C1761.41 660.752 1753.14 657.609 1744.19 660.448L1434.37 758.793C1425.42 761.633 1417.6 769.886 1414.59 779.646L1230.26 1378.33C1229.04 1382.31 1228.69 1386.33 1229.25 1390L1329.86 2043.36C1330.65 2048.51 1333.2 2052.72 1337.05 2055.25L1633.54 2250.05Z" stroke="url(#paint0_linear_144_305)" stroke-width="4"/>
<path opacity="0.0289855" d="M1577.82 2253.34C1586.49 2259.93 1600.34 2256.51 1609.02 2245.63L1892.93 1890.05C1896.62 1885.43 1898.95 1879.95 1899.53 1874.54L1974.19 1177.44C1974.6 1173.62 1974.12 1169.97 1972.79 1166.81L1769.11 682.489C1765.76 674.52 1757.52 670.771 1748.34 673.039L1440.85 749.032C1431.67 751.3 1423.42 759.123 1420.06 768.752L1215.56 1353.94C1214.23 1357.76 1213.74 1361.65 1214.15 1365.28L1287.77 2025.73C1288.34 2030.85 1290.66 2035.18 1294.34 2037.98L1577.82 2253.34Z" stroke="url(#paint1_linear_144_305)" stroke-width="4"/>
<path opacity="0.0434783" d="M1522.77 2254.25C1531.26 2261.64 1545.58 2259.11 1554.77 2248.59L1847.19 1914.14C1850.98 1909.8 1853.47 1904.54 1854.24 1899.24L1954.66 1207.68C1955.2 1203.96 1954.88 1200.35 1953.71 1197.15L1772.15 698.677C1769.13 690.398 1760.96 686.03 1751.59 687.687L1447.2 741.513C1437.83 743.17 1429.2 750.51 1425.48 759.979L1201.77 1330.12C1200.33 1333.78 1199.71 1337.56 1199.97 1341.14L1246.85 2006.64C1247.21 2011.75 1249.32 2016.19 1252.82 2019.24L1522.77 2254.25Z" stroke="url(#paint2_linear_144_305)" stroke-width="4"/>
<path opacity="0.057971" d="M1468.51 2252.84C1476.76 2261.02 1491.44 2259.46 1501.11 2249.38L1801.05 1936.66C1804.95 1932.6 1807.59 1927.56 1808.54 1922.36L1933.98 1238.33C1934.64 1234.71 1934.46 1231.14 1933.46 1227.9L1774.13 716.88C1771.46 708.315 1763.4 703.316 1753.88 704.325L1453.34 736.226C1443.83 737.235 1434.85 744.043 1430.79 753.322L1188.84 1306.94C1187.31 1310.44 1186.57 1314.11 1186.68 1317.65L1207.15 1986.19C1207.3 1991.27 1209.2 1995.83 1212.53 1999.13L1468.51 2252.84Z" stroke="url(#paint3_linear_144_305)" stroke-width="4"/>
<path opacity="0.0724638" d="M1415.09 2249.18C1423.05 2258.12 1438 2257.61 1448.1 2248.03L1754.57 1957.59C1758.57 1953.8 1761.35 1948.98 1762.48 1943.89L1912.14 1269.31C1912.92 1265.78 1912.88 1262.23 1912.02 1258.96L1774.98 737.019C1772.66 728.191 1764.76 722.557 1755.16 722.89L1459.15 733.149C1449.55 733.482 1440.27 739.711 1435.89 748.771L1176.75 1284.44C1175.12 1287.8 1174.26 1291.38 1174.23 1294.88L1168.69 1964.47C1168.65 1969.52 1170.34 1974.19 1173.49 1977.73L1415.09 2249.18Z" stroke="url(#paint4_linear_144_305)" stroke-width="4"/>
<path opacity="0.0869565" d="M1362.62 2243.35C1370.24 2253.03 1385.32 2253.6 1395.8 2244.62L1707.84 1976.9C1711.93 1973.39 1714.86 1968.78 1716.16 1963.79L1889.15 1300.53C1890.05 1297.08 1890.14 1293.56 1889.43 1290.24L1774.66 759.01C1772.7 749.945 1765 743.678 1755.37 743.312L1464.56 732.252C1454.93 731.885 1445.41 737.497 1440.71 746.309L1165.44 1262.71C1163.72 1265.93 1162.75 1269.42 1162.58 1272.9L1131.52 1941.55C1131.28 1946.59 1132.77 1951.37 1135.74 1955.14L1362.62 2243.35Z" stroke="url(#paint5_linear_144_305)" stroke-width="4"/>
<path opacity="0.101449" d="M1311.15 2235.45C1318.37 2245.82 1333.46 2247.51 1344.25 2239.17L1660.92 1994.57C1665.09 1991.34 1668.15 1986.94 1669.63 1982.03L1865.01 1331.91C1866.02 1328.53 1866.25 1325.02 1865.67 1321.66L1773.11 782.765C1771.51 773.487 1764.07 766.599 1754.47 765.521L1469.46 733.494C1459.86 732.416 1450.16 737.377 1445.16 745.915L1154.88 1241.79C1153.07 1244.88 1151.98 1248.29 1151.69 1251.76L1095.65 1917.54C1095.22 1922.56 1096.51 1927.45 1099.3 1931.46L1311.15 2235.45Z" stroke="url(#paint6_linear_144_305)" stroke-width="4"/>
<path opacity="0.115942" d="M1260.75 2225.57C1267.53 2236.57 1282.49 2239.39 1293.53 2231.76L1613.87 2010.58C1618.12 2007.64 1621.32 2003.44 1622.97 1998.62L1839.74 1363.36C1840.87 1360.04 1841.23 1356.54 1840.79 1353.12L1770.27 808.191C1769.04 798.727 1761.91 791.237 1752.41 789.444L1473.78 736.829C1464.28 735.036 1454.45 739.323 1449.17 747.558L1145.03 1221.74C1143.12 1224.72 1141.91 1228.06 1141.49 1231.51L1061.11 1892.53C1060.5 1897.54 1061.58 1902.55 1064.19 1906.79L1260.75 2225.57Z" stroke="url(#paint7_linear_144_305)" stroke-width="4"/>
<path opacity="0.130435" d="M1211.48 2213.81C1217.77 2225.37 1232.46 2229.3 1243.68 2222.44L1566.77 2024.93C1571.1 2022.28 1574.43 2018.28 1576.25 2013.54L1813.35 1394.8C1814.61 1391.54 1815.1 1388.03 1814.79 1384.54L1766.11 835.19C1765.26 825.568 1758.48 817.504 1749.15 815.004L1477.45 742.201C1468.12 739.701 1458.22 743.298 1452.67 751.205L1135.84 1202.62C1133.83 1205.48 1132.5 1208.77 1131.95 1212.22L1027.92 1866.61C1027.13 1871.63 1028.01 1876.76 1030.44 1881.22L1211.48 2213.81Z" stroke="url(#paint8_linear_144_305)" stroke-width="4"/>
<path opacity="0.144928" d="M1163.39 2200.26C1169.16 2212.3 1183.43 2217.3 1194.76 2211.25L1519.67 2037.61C1524.08 2035.25 1527.55 2031.44 1529.54 2026.78L1785.87 1426.15C1787.24 1422.93 1787.87 1419.4 1787.69 1415.84L1760.59 863.664C1760.11 853.912 1753.74 845.311 1744.64 842.123L1480.4 749.55C1471.3 746.362 1461.39 749.262 1455.59 756.815L1127.26 1184.48C1125.15 1187.23 1123.69 1190.47 1123.01 1193.93L996.104 1839.9C995.118 1844.92 995.799 1850.18 998.041 1854.87L1163.39 2200.26Z" stroke="url(#paint9_linear_144_305)" stroke-width="4"/>
<path opacity="0.15942" d="M1116.51 2185.02C1121.72 2197.47 1135.46 2203.47 1146.82 2198.25L1472.65 2048.61C1477.12 2046.56 1480.74 2042.95 1482.91 2038.35L1757.3 1457.31C1758.8 1454.13 1759.57 1450.58 1759.53 1446.94L1753.67 893.507C1753.56 883.654 1747.64 874.563 1738.83 870.715L1482.55 758.81C1473.74 754.962 1463.89 757.17 1457.87 764.345L1119.25 1167.36C1117.02 1170.01 1115.44 1173.2 1114.62 1176.69L965.664 1812.49C964.486 1817.52 964.961 1822.92 967.015 1827.83L1116.51 2185.02Z" stroke="url(#paint10_linear_144_305)" stroke-width="4"/>
<path opacity="0.173913" d="M1070.88 2168.18C1075.52 2180.96 1088.62 2187.87 1099.93 2183.51L1425.77 2057.95C1430.31 2056.2 1434.06 2052.79 1436.42 2048.25L1727.68 1488.22C1729.32 1485.06 1730.22 1481.47 1730.33 1477.74L1745.32 924.615C1745.59 914.69 1740.16 905.16 1731.69 900.691L1483.88 769.912C1475.41 765.443 1465.67 766.969 1459.43 773.744L1111.76 1151.3C1109.41 1153.85 1107.69 1157.01 1106.73 1160.53L936.612 1784.49C935.235 1789.54 935.499 1795.08 937.36 1800.21L1070.88 2168.18Z" stroke="url(#paint11_linear_144_305)" stroke-width="4"/>
<path opacity="0.188406" d="M1026.53 2149.84C1030.57 2162.85 1042.94 2170.57 1054.13 2167.08L1379.09 2065.64C1383.69 2064.2 1387.59 2060.98 1390.14 2056.51L1697.02 1518.78C1698.8 1515.65 1699.86 1512.01 1700.11 1508.18L1735.52 956.878C1736.16 946.911 1731.25 937.001 1723.17 931.957L1484.31 782.787C1476.23 777.742 1466.65 778.605 1460.23 784.958L1104.73 1136.36C1102.26 1138.81 1100.39 1141.94 1099.29 1145.49L908.935 1756C907.354 1761.07 907.399 1766.75 909.063 1772.11L1026.53 2149.84Z" stroke="url(#paint12_linear_144_305)" stroke-width="4"/>
<path opacity="0.202899" d="M983.48 2130.08C986.931 2143.24 998.49 2151.66 1009.49 2149.02L1332.67 2071.67C1337.33 2070.56 1341.38 2067.54 1344.13 2063.14L1665.36 1548.91C1667.3 1545.8 1668.52 1542.11 1668.92 1538.17L1724.24 990.185C1725.25 980.206 1720.88 969.978 1713.24 964.41L1483.81 797.361C1476.16 791.792 1466.79 792.018 1460.2 797.93L1098.13 1122.57C1095.53 1124.91 1093.5 1128.01 1092.23 1131.61L882.656 1727.14C880.862 1732.24 880.68 1738.06 882.141 1743.63L983.48 2130.08Z" stroke="url(#paint13_linear_144_305)" stroke-width="4"/>
<path opacity="0.217391" d="M941.746 2109C944.604 2122.22 955.31 2131.22 966.062 2129.43L1286.58 2076.08C1291.29 2075.3 1295.48 2072.5 1298.44 2068.17L1632.72 1578.54C1634.83 1575.45 1636.23 1571.71 1636.79 1567.64L1711.48 1024.42C1712.85 1014.46 1709.04 1003.98 1701.85 997.943L1482.34 813.562C1475.15 807.525 1466.03 807.142 1459.29 812.595L1091.9 1109.96C1089.15 1112.19 1086.95 1115.27 1085.52 1118.92L857.741 1698C855.726 1703.13 855.307 1709.1 856.558 1714.89L941.746 2109Z" stroke="url(#paint14_linear_144_305)" stroke-width="4"/>
<path opacity="0.231884" d="M901.36 2086.69C903.635 2099.89 913.461 2109.34 923.902 2108.36L1240.88 2078.88C1245.62 2078.44 1249.97 2075.86 1253.14 2071.61L1599.16 1607.59C1601.44 1604.53 1603.03 1600.71 1603.76 1596.52L1697.23 1059.48C1698.95 1049.56 1695.71 1038.89 1689 1032.45L1479.86 831.317C1473.16 824.869 1464.31 823.91 1457.46 828.889L1085.99 1098.57C1083.08 1100.68 1080.71 1103.73 1079.09 1107.44L834.197 1668.71C831.951 1673.86 831.285 1679.98 832.318 1685.97L901.36 2086.69Z" stroke="url(#paint15_linear_144_305)" stroke-width="4"/>
<path opacity="0.246377" d="M862.329 2063.22C864.036 2076.32 872.973 2086.11 883.053 2085.92L1195.62 2080.11C1200.39 2080.02 1204.88 2077.68 1208.28 2073.51L1564.69 1635.99C1567.16 1632.95 1568.95 1629.06 1569.86 1624.73L1681.47 1095.23C1683.54 1085.39 1680.86 1074.6 1674.65 1067.8L1476.35 850.551C1470.14 843.75 1461.6 842.251 1454.65 846.741L1080.33 1088.43C1077.27 1090.41 1074.7 1093.43 1072.89 1097.2L811.997 1639.37C809.511 1644.53 808.586 1650.79 809.394 1656.99L862.329 2063.22Z" stroke="url(#paint16_linear_144_305)" stroke-width="4"/>
<path opacity="0.26087" d="M824.675 2038.69C825.837 2051.63 833.894 2061.65 843.57 2062.2L1150.86 2079.8C1155.63 2080.07 1160.28 2077.97 1163.91 2073.9L1529.36 1663.65C1532.04 1660.64 1534.04 1656.69 1535.15 1652.22L1664.21 1131.57C1666.62 1121.84 1664.5 1110.99 1658.79 1103.89L1471.77 871.188C1466.06 864.092 1457.85 862.088 1450.83 866.078L1074.9 1079.55C1071.67 1081.39 1068.89 1084.38 1066.87 1088.21L791.131 1610.08C788.394 1615.26 787.199 1621.65 787.773 1628.04L824.675 2038.69Z" stroke="url(#paint17_linear_144_305)" stroke-width="4"/>
<path opacity="0.275362" d="M788.404 2013.2C789.047 2025.89 796.244 2036.05 805.481 2037.3L1106.64 2077.97C1111.42 2078.62 1116.21 2076.78 1120.07 2072.82L1493.21 1690.52C1496.11 1687.55 1498.34 1683.53 1499.66 1678.91L1645.45 1168.38C1648.19 1158.78 1646.61 1147.93 1641.41 1140.59L1466.09 893.153C1460.9 885.816 1453.03 883.343 1445.95 886.823L1069.62 1071.97C1066.21 1073.64 1063.22 1076.59 1060.97 1080.48L771.563 1580.95C768.567 1586.13 767.088 1592.65 767.421 1599.22L788.404 2013.2Z" stroke="url(#paint18_linear_144_305)" stroke-width="4"/>
<path opacity="0.289855" d="M753.528 1986.82C753.683 1999.23 760.053 2009.43 768.824 2011.32L1063.03 2074.68C1067.79 2075.7 1072.72 2074.14 1076.83 2070.31L1456.29 1716.52C1459.42 1713.6 1461.91 1709.51 1463.45 1704.75L1625.21 1205.54C1628.27 1196.1 1627.22 1185.3 1622.52 1177.78L1459.31 916.367C1454.61 908.842 1447.09 905.935 1440 908.897L1064.45 1065.69C1060.87 1067.19 1057.63 1070.09 1055.14 1074.03L753.269 1552.1C750.003 1557.27 748.23 1563.9 748.315 1570.63L753.528 1986.82Z" stroke="url(#paint19_linear_144_305)" stroke-width="4"/>
<path opacity="0.304348" d="M720.051 1959.66C719.752 1971.73 725.336 1981.9 733.621 1984.38L1020.06 2069.97C1024.78 2071.38 1029.85 2070.11 1034.2 2066.43L1418.64 1741.59C1422.02 1738.73 1424.78 1734.59 1426.56 1729.69L1603.49 1242.93C1606.85 1233.69 1606.31 1222.99 1602.11 1215.33L1451.37 940.752C1447.16 933.086 1440.01 929.779 1432.92 932.219L1059.32 1060.74C1055.56 1062.04 1052.08 1064.87 1049.33 1068.86L736.207 1523.62C732.664 1528.76 730.587 1535.49 730.416 1542.36L720.051 1959.66Z" stroke="url(#paint20_linear_144_305)" stroke-width="4"/>
<path opacity="0.318841" d="M687.977 1931.81C687.257 1943.51 692.101 1953.58 699.889 1956.59L977.787 2063.88C982.447 2065.68 987.646 2064.73 992.244 2061.23L1380.32 1765.66C1383.96 1762.89 1387 1758.69 1389.04 1753.66L1580.33 1280.45C1583.98 1271.42 1583.93 1260.87 1580.2 1253.11L1442.28 966.224C1438.55 958.462 1431.77 954.788 1424.7 956.703L1054.21 1057.12C1050.26 1058.19 1046.51 1060.94 1043.49 1064.97L720.342 1495.61C716.513 1500.71 714.121 1507.51 713.69 1514.51L687.977 1931.81Z" stroke="url(#paint21_linear_144_305)" stroke-width="4"/>
<path opacity="0.333333" d="M657.31 1903.37C656.204 1914.66 660.358 1924.59 667.642 1928.07L936.246 2056.48C940.83 2058.67 946.145 2058.05 950.991 2054.74L1341.38 1788.67C1345.28 1786.02 1348.64 1781.78 1350.94 1776.61L1555.74 1317.97C1559.66 1309.19 1560.07 1298.83 1556.8 1291.01L1432.02 992.702C1428.75 984.884 1422.33 980.874 1415.32 982.263L1049.03 1054.84C1044.9 1055.66 1040.88 1058.3 1037.56 1062.35L705.632 1468.18C701.512 1473.21 698.796 1480.06 698.1 1487.16L657.31 1903.37Z" stroke="url(#paint22_linear_144_305)" stroke-width="4"/>
<path opacity="0.347826" d="M628.052 1874.44C626.595 1885.3 630.109 1895.04 636.89 1898.95L895.482 2047.82C899.968 2050.4 905.389 2050.12 910.479 2047.05L1301.86 1810.58C1306.05 1808.06 1309.73 1803.81 1312.32 1798.52L1529.75 1355.38C1533.93 1346.87 1534.77 1336.74 1531.94 1328.9L1420.56 1020.1C1417.73 1012.26 1411.68 1007.95 1404.75 1008.81L1043.75 1053.9C1039.44 1054.44 1035.13 1056.94 1031.5 1061.01L692.032 1441.42C687.618 1446.36 684.573 1453.23 683.609 1460.41L628.052 1874.44Z" stroke="url(#paint23_linear_144_305)" stroke-width="4"/>
<path opacity="0.362319" d="M600.184 1845.13C598.41 1855.54 601.334 1865.06 607.616 1869.33L855.516 2037.95C859.885 2040.92 865.396 2041.01 870.725 2038.19L1261.83 1831.33C1266.3 1828.96 1270.33 1824.72 1273.23 1819.33L1502.4 1392.59C1506.82 1384.36 1508.05 1374.49 1505.65 1366.67L1407.9 1048.33C1405.49 1040.51 1399.81 1035.91 1392.98 1036.26L1038.3 1054.3C1033.82 1054.53 1029.2 1056.87 1025.25 1060.92L679.481 1415.41C674.77 1420.24 671.392 1427.1 670.159 1434.34L600.184 1845.13Z" stroke="url(#paint24_linear_144_305)" stroke-width="4"/>
<path opacity="0.376812" d="M573.705 1815.52C571.648 1825.48 574.03 1834.76 579.824 1839.35L816.39 2026.95C820.622 2030.3 826.208 2030.77 831.767 2028.24L1221.35 1850.87C1226.11 1848.7 1230.5 1844.49 1233.71 1839.01L1473.72 1429.47C1478.36 1421.56 1479.97 1411.97 1477.97 1404.18L1394.03 1077.31C1392.03 1069.53 1386.71 1064.67 1380 1064.51L1032.64 1056.03C1027.99 1055.91 1023.07 1058.06 1018.79 1062.07L667.935 1390.27C662.928 1394.95 659.215 1401.77 657.712 1409.04L573.705 1815.52Z" stroke="url(#paint25_linear_144_305)" stroke-width="4"/>
<path opacity="0.391304" d="M548.596 1785.74C546.285 1795.24 548.173 1804.26 553.491 1809.13L778.126 2014.86C782.202 2018.6 787.843 2019.47 793.621 2017.25L1180.47 1869.15C1185.53 1867.22 1190.29 1863.07 1193.82 1857.54L1443.75 1465.93C1448.59 1458.34 1450.54 1449.06 1448.93 1441.34L1378.94 1106.95C1377.33 1099.23 1372.36 1094.14 1365.8 1093.48L1026.71 1059.07C1021.91 1058.58 1016.68 1060.5 1012.05 1064.44L657.328 1366.05C652.029 1370.56 647.982 1377.3 646.211 1384.58L548.596 1785.74Z" stroke="url(#paint26_linear_144_305)" stroke-width="4"/>
<path opacity="0.405797" d="M524.85 1755.88C522.314 1764.92 523.75 1773.67 528.608 1778.78L740.759 2001.77C744.66 2005.87 750.336 2007.16 756.318 2005.29L1139.26 1886.15C1144.61 1884.48 1149.75 1880.44 1153.62 1874.87L1412.54 1501.86C1417.56 1494.62 1419.83 1485.66 1418.58 1478.02L1362.64 1137.16C1361.39 1129.52 1356.78 1124.22 1350.38 1123.07L1020.46 1063.42C1015.53 1062.53 1009.99 1064.17 1005 1068.01L647.611 1342.85C642.028 1347.15 637.652 1353.78 635.615 1361.04L524.85 1755.88Z" stroke="url(#paint27_linear_144_305)" stroke-width="4"/>
<path opacity="0.42029" d="M502.425 1726.05C499.689 1734.64 500.714 1743.12 505.129 1748.43L704.292 1987.74C707.998 1992.19 713.687 1993.91 719.854 1992.43L1097.78 1901.82C1103.41 1900.47 1108.95 1896.57 1113.15 1891L1380.13 1537.17C1385.32 1530.29 1387.87 1521.67 1386.96 1514.12L1345.13 1167.85C1344.22 1160.31 1339.95 1154.82 1333.74 1153.18L1013.84 1069.04C1008.81 1067.72 1002.96 1069.05 997.613 1072.75L638.701 1320.74C632.845 1324.79 628.147 1331.28 625.849 1338.49L502.425 1726.05Z" stroke="url(#paint28_linear_144_305)" stroke-width="4"/>
<path opacity="0.434783" d="M481.31 1696.34C478.396 1704.49 479.046 1712.71 483.039 1718.19L668.755 1972.83C672.252 1977.63 677.929 1979.78 684.258 1978.72L1056.1 1916.13C1062 1915.14 1067.93 1911.44 1072.47 1905.9L1346.58 1571.76C1351.91 1565.26 1354.73 1556.98 1354.14 1549.54L1326.4 1198.93C1325.81 1191.5 1321.89 1185.83 1315.88 1183.74L1006.8 1075.92C1001.69 1074.13 995.55 1075.11 989.848 1078.62L630.547 1299.79C624.432 1303.56 619.423 1309.86 616.871 1317L481.31 1696.34Z" stroke="url(#paint29_linear_144_305)" stroke-width="4"/>
<path opacity="0.449275" d="M461.464 1666.86C458.391 1674.59 458.699 1682.55 462.288 1688.17L634.152 1957.13C637.423 1962.25 643.063 1964.85 649.527 1964.23L1014.29 1929.08C1020.44 1928.49 1026.74 1925.03 1031.62 1919.57L1311.93 1605.54C1317.39 1599.43 1320.45 1591.49 1320.17 1584.17L1306.48 1230.32C1306.2 1223 1302.61 1217.17 1296.82 1214.63L999.302 1084.02C994.128 1081.75 987.717 1082.33 981.67 1085.61L623.068 1280.07C616.713 1283.51 611.409 1289.59 608.609 1296.64L461.464 1666.86Z" stroke="url(#paint30_linear_144_305)" stroke-width="4"/>
<path opacity="0.463768" d="M442.869 1637.71C439.653 1645.04 439.647 1652.75 442.853 1658.49L600.511 1940.7C603.543 1946.12 609.117 1949.18 615.685 1949.03L972.424 1940.63C978.796 1940.48 985.457 1937.32 990.657 1931.98L1276.26 1638.44C1281.83 1632.71 1285.11 1625.12 1285.11 1617.93L1285.38 1261.91C1285.39 1254.71 1282.12 1248.74 1276.56 1245.77L991.298 1093.31C986.105 1090.53 979.446 1090.66 973.072 1093.66L616.21 1261.62C609.64 1264.71 604.059 1270.53 601.018 1277.46L442.869 1637.71Z" stroke="url(#paint31_linear_144_305)" stroke-width="4"/>
<path opacity="0.478261" d="M425.465 1608.99C422.119 1615.93 421.824 1623.41 424.666 1629.25L567.816 1923.6C570.596 1929.32 576.075 1932.84 582.714 1933.18L930.554 1950.79C937.112 1951.13 944.108 1948.31 949.618 1943.13L1239.61 1670.36C1245.27 1665.03 1248.74 1657.79 1249.02 1650.72L1263.11 1293.63C1263.39 1286.56 1260.44 1280.45 1255.12 1277.06L982.731 1103.74C977.556 1100.44 970.685 1100.08 964.008 1102.76L609.881 1244.51C603.122 1247.21 597.286 1252.73 594.013 1259.52L425.465 1608.99Z" stroke="url(#paint32_linear_144_305)" stroke-width="4"/>
<path opacity="0.492754" d="M409.222 1580.78C405.754 1587.36 405.19 1594.63 407.687 1600.56L536.082 1905.92C538.599 1911.91 543.953 1915.89 550.625 1916.73L888.76 1959.56C895.462 1960.41 902.756 1958 908.556 1953.02L1202.02 1701.23C1207.77 1696.31 1211.42 1689.4 1211.96 1682.45L1239.67 1325.39C1240.21 1318.44 1237.58 1312.2 1232.51 1308.42L973.572 1115.26C968.455 1111.44 961.416 1110.56 954.47 1112.86L604.015 1228.77C597.101 1231.06 591.035 1236.25 587.539 1242.87L409.222 1580.78Z" stroke="url(#paint33_linear_144_305)" stroke-width="4"/>
<path opacity="0.507246" d="M394.103 1553.19C390.52 1559.42 389.703 1566.49 391.872 1572.52L505.32 1887.73C507.564 1893.96 512.763 1898.4 519.428 1899.76L847.119 1966.94C853.914 1968.33 861.462 1966.37 867.525 1961.65L1163.61 1730.99C1169.42 1726.46 1173.24 1719.88 1174.03 1713.05L1215.13 1357.1C1215.91 1350.27 1213.59 1343.9 1208.78 1339.75L963.794 1127.83C958.777 1123.49 951.622 1122.05 944.45 1123.92L598.552 1214.44C591.517 1216.28 585.248 1221.12 581.54 1227.56L394.103 1553.19Z" stroke="url(#paint34_linear_144_305)" stroke-width="4"/>
<path opacity="0.521739" d="M380.042 1526.3C376.347 1532.2 375.29 1539.1 377.145 1545.21L475.509 1869.08C477.473 1875.55 482.485 1880.43 489.101 1882.33L805.679 1972.94C812.511 1974.9 820.257 1973.44 826.552 1969.01L1124.4 1759.55C1130.26 1755.43 1134.24 1749.17 1135.27 1742.45L1189.47 1388.68C1190.5 1381.96 1188.47 1375.47 1183.93 1370.96L953.347 1141.4C948.474 1136.54 941.262 1134.52 933.913 1135.93L593.398 1201.56C586.281 1202.93 579.84 1207.38 575.93 1213.62L380.042 1526.3Z" stroke="url(#paint35_linear_144_305)" stroke-width="4"/>
<path opacity="0.536232" d="M366.991 1500.2C363.183 1505.79 361.894 1512.54 363.45 1518.73L446.649 1850.07C448.324 1856.74 453.119 1862.06 459.645 1864.48L764.504 1977.6C771.313 1980.13 779.194 1979.2 785.683 1975.11L1084.46 1786.87C1090.37 1783.14 1094.5 1777.2 1095.76 1770.59L1162.73 1420.04C1164 1413.43 1162.27 1406.83 1158 1401.96L942.206 1155.89C937.519 1150.55 930.316 1147.93 922.848 1148.85L588.485 1190.15C581.328 1191.03 574.745 1195.07 570.644 1201.09L366.991 1500.2Z" stroke="url(#paint36_linear_144_305)" stroke-width="4"/>
<path opacity="0.550725" d="M354.913 1474.96C350.991 1480.26 349.476 1486.87 350.741 1493.16L418.75 1830.75C420.132 1837.61 424.68 1843.34 431.073 1846.28L723.668 1980.94C730.392 1984.04 738.339 1983.67 744.982 1979.96L1043.87 1812.87C1049.81 1809.55 1054.09 1803.9 1055.58 1797.39L1134.96 1451.12C1136.45 1444.61 1135.02 1437.88 1131.03 1432.68L930.366 1171.27C925.906 1165.46 918.78 1162.24 911.254 1162.64L583.761 1180.21C576.606 1180.6 569.915 1184.21 565.633 1190L354.913 1474.96Z" stroke="url(#paint37_linear_144_305)" stroke-width="4"/>
<path opacity="0.565217" d="M343.731 1450.66C339.69 1455.69 337.949 1462.19 338.933 1468.57L391.781 1811.19C392.865 1818.21 397.139 1824.35 403.357 1827.79L683.202 1983C689.777 1986.65 697.719 1986.85 704.472 1983.55L1002.7 1837.52C1008.66 1834.59 1013.08 1829.23 1014.8 1822.81L1106.17 1481.82C1107.89 1475.4 1106.75 1468.55 1103.04 1463.03L917.784 1187.45C913.59 1181.21 906.61 1177.42 899.092 1177.29L579.136 1171.78C572.026 1171.66 565.26 1174.83 560.807 1180.37L343.731 1450.66Z" stroke="url(#paint38_linear_144_305)" stroke-width="4"/>
<path opacity="0.57971" d="M333.398 1427.38C329.231 1432.16 327.262 1438.56 327.969 1445.04L365.743 1791.46C366.526 1798.63 370.499 1805.14 376.504 1809.07L643.161 1983.82C649.528 1987.99 657.394 1988.76 664.21 1985.89L961.006 1860.75C966.996 1858.22 971.549 1853.14 973.497 1846.81L1076.41 1512.07C1078.36 1505.73 1077.51 1498.75 1074.09 1492.93L904.46 1204.39C900.564 1197.77 893.799 1193.42 886.354 1192.75L574.555 1164.84C567.533 1164.21 560.724 1166.94 556.112 1172.22L333.398 1427.38Z" stroke="url(#paint39_linear_144_305)" stroke-width="4"/>
<path opacity="0.594203" d="M323.85 1405.19C319.55 1409.72 317.348 1416.05 317.78 1422.64L340.621 1771.64C341.099 1778.93 344.748 1785.78 350.505 1790.17L603.585 1983.42C609.688 1988.08 617.407 1989.42 624.241 1986.99L918.873 1882.53C924.878 1880.4 929.572 1875.59 931.75 1869.33L1045.71 1541.79C1047.88 1535.53 1047.33 1528.43 1044.2 1522.31L890.379 1222.03C886.811 1215.07 880.322 1210.2 873.013 1209L569.954 1159.41C563.06 1158.28 556.239 1160.55 551.479 1165.56L323.85 1405.19Z" stroke="url(#paint40_linear_144_305)" stroke-width="4"/>
<path opacity="0.608696" d="M315.018 1384.15C310.574 1388.44 308.132 1394.7 308.288 1401.42L316.39 1751.78C316.561 1759.18 319.866 1766.33 325.343 1771.16L564.497 1981.86C570.289 1986.97 577.797 1988.84 584.604 1986.88L876.36 1902.83C882.374 1901.1 887.211 1896.55 889.623 1890.36L1014.1 1570.92C1016.51 1564.73 1016.27 1557.5 1013.42 1551.09L875.527 1240.3C872.31 1233.05 866.152 1227.71 859.038 1226.01L565.262 1155.47C558.535 1153.85 551.732 1155.67 546.835 1160.4L315.018 1384.15Z" stroke="url(#paint41_linear_144_305)" stroke-width="4"/>
<path opacity="0.623188" d="M306.854 1364.31C302.258 1368.37 299.565 1374.59 299.44 1381.43L293.051 1731.95C292.914 1739.43 295.858 1746.87 301.027 1752.08L525.947 1979.18C531.387 1984.67 538.628 1987.05 545.365 1985.56L833.558 1921.6C839.576 1920.27 844.558 1915.98 847.211 1909.86L981.652 1599.39C984.305 1593.26 984.367 1585.9 981.821 1579.22L859.916 1259.16C857.067 1251.68 851.287 1245.92 844.42 1243.73L560.441 1153.02C553.915 1150.93 547.158 1152.31 542.135 1156.74L306.854 1364.31Z" stroke="url(#paint42_linear_144_305)" stroke-width="4"/>
<path opacity="0.637681" d="M299.276 1345.74C294.518 1349.56 291.561 1355.75 291.149 1362.73L270.565 1712.22C270.121 1719.77 272.69 1727.44 277.529 1733.01L487.943 1975.41C492.999 1981.24 499.926 1984.08 506.554 1983.05L790.523 1938.83C796.537 1937.9 801.668 1933.87 804.568 1927.8L948.389 1627.12C951.289 1621.06 951.667 1613.57 949.424 1606.62L843.528 1278.54C841.057 1270.88 835.692 1264.77 829.115 1262.13L555.415 1152.04C549.12 1149.51 542.436 1150.44 537.298 1154.57L299.276 1345.74Z" stroke="url(#paint43_linear_144_305)" stroke-width="4"/>
<path opacity="0.652174" d="M292.225 1328.48C287.295 1332.07 284.059 1338.22 283.351 1345.36L248.919 1692.66C248.167 1700.24 250.352 1708.11 254.844 1714L450.517 1970.6C455.167 1976.7 461.743 1979.96 468.226 1979.38L747.337 1954.5C753.339 1953.96 758.623 1950.19 761.778 1944.19L914.365 1654.06C917.52 1648.06 918.225 1640.44 916.291 1633.24L826.371 1298.4C824.282 1290.62 819.357 1284.22 813.107 1281.16L550.139 1152.52C544.102 1149.57 537.513 1150.07 532.273 1153.88L292.225 1328.48Z" stroke="url(#paint44_linear_144_305)" stroke-width="4"/>
<path opacity="0.666667" d="M285.632 1312.58C280.521 1315.93 276.989 1322.06 275.975 1329.34L228.087 1673.32C227.029 1680.92 228.824 1688.95 232.956 1695.12L413.69 1964.77C417.921 1971.09 424.119 1974.72 430.426 1974.58L704.069 1968.58C710.051 1968.45 715.492 1964.94 718.912 1959.01L879.63 1680.14C883.049 1674.21 884.091 1666.47 882.473 1659.03L808.445 1318.67C806.739 1310.83 802.268 1304.2 796.373 1300.77L544.561 1154.45C538.803 1151.1 532.33 1151.19 526.999 1154.67L285.632 1312.58Z" stroke="url(#paint45_linear_144_305)" stroke-width="4"/>
<path opacity="0.681159" d="M279.419 1298.08C274.118 1301.17 270.272 1307.28 268.938 1314.71L208.033 1654.27C206.671 1661.86 208.072 1670.01 211.837 1676.41L377.474 1957.97C381.282 1964.45 387.082 1968.4 393.188 1968.68L660.784 1981.07C666.736 1981.35 672.337 1978.11 676.029 1972.25L844.224 1705.31C847.916 1699.45 849.308 1691.6 848.011 1683.93L789.743 1339.32C788.413 1331.46 784.404 1324.66 778.881 1320.91L538.618 1157.79C533.157 1154.08 526.819 1153.76 521.409 1156.92L279.419 1298.08Z" stroke="url(#paint46_linear_144_305)" stroke-width="4"/>
<path opacity="0.695652" d="M273.526 1285.01C268.028 1287.83 263.85 1293.91 262.181 1301.5L188.738 1635.56C187.076 1643.12 188.084 1651.36 191.478 1657.95L341.901 1950.24C345.287 1956.82 350.681 1961.05 356.564 1961.73L617.561 1991.98C623.474 1992.66 629.237 1989.7 633.212 1983.92L808.211 1729.51C812.186 1723.74 813.939 1715.78 812.972 1707.9L770.28 1360.29C769.318 1352.46 765.766 1345.55 760.626 1341.52L532.274 1162.52C527.123 1158.49 520.934 1157.77 515.459 1160.59L273.526 1285.01Z" stroke="url(#paint47_linear_144_305)" stroke-width="4"/>
<path opacity="0.710145" d="M267.893 1273.39C262.193 1275.94 257.663 1281.97 255.643 1289.71L170.181 1617.25C168.222 1624.75 168.84 1633.05 171.863 1639.8L306.999 1941.61C309.972 1948.25 314.957 1952.7 320.602 1953.76L574.48 2001.3C580.342 2002.4 586.269 1999.71 590.535 1994.03L771.654 1752.7C775.921 1747.02 778.048 1738.97 777.416 1730.91L750.069 1381.54C749.461 1373.77 746.359 1366.81 741.605 1362.54L525.489 1168.62C520.656 1164.28 514.631 1163.2 509.102 1165.67L267.893 1273.39Z" stroke="url(#paint48_linear_144_305)" stroke-width="4"/>
<path opacity="0.724638" d="M262.43 1263.25C256.523 1265.5 251.621 1271.48 249.234 1279.36L152.308 1599.39C150.058 1606.82 150.292 1615.13 152.946 1622L272.77 1932.13C275.341 1938.78 279.923 1943.42 285.316 1944.83L531.589 2009.04C537.387 2010.56 543.479 2008.17 548.045 2002.59L734.589 1774.84C739.156 1769.26 741.669 1761.14 741.38 1752.9L729.095 1403.01C728.826 1395.34 726.159 1388.37 721.79 1383.91L518.197 1176.05C513.687 1171.45 507.837 1170 502.267 1172.12L262.43 1263.25Z" stroke="url(#paint49_linear_144_305)" stroke-width="4"/>
<path opacity="0.73913" d="M257.075 1254.61C250.961 1256.53 245.667 1262.45 242.896 1270.46L135.095 1582.04C132.559 1589.38 132.417 1597.65 134.71 1604.61L239.243 1921.84C241.429 1928.47 245.615 1933.25 250.75 1934.98L488.963 2015.23C494.685 2017.16 500.941 2015.08 505.814 2009.63L697.083 1795.87C701.956 1790.42 704.868 1782.25 704.927 1773.87L707.376 1424.65C707.429 1417.12 705.177 1410.18 701.187 1405.56L510.364 1184.78C506.179 1179.93 500.512 1178.15 494.915 1179.91L257.075 1254.61Z" stroke="url(#paint50_linear_144_305)" stroke-width="4"/>
<path opacity="0.753623" d="M251.761 1247.48C245.439 1249.05 239.735 1254.87 236.563 1263L118.507 1565.25C115.691 1572.46 115.184 1580.68 117.122 1587.69L206.437 1910.77C208.256 1917.35 212.06 1922.25 216.932 1924.28L446.666 2019.88C452.299 2022.22 458.717 2020.47 463.904 2015.17L659.192 1815.77C664.379 1810.47 667.7 1802.28 668.112 1793.76L684.918 1446.42C685.275 1439.06 683.418 1432.18 679.795 1427.44L501.945 1194.76C498.085 1189.71 492.609 1187.59 486.998 1188.99L251.761 1247.48Z" stroke="url(#paint51_linear_144_305)" stroke-width="4"/>
<path opacity="0.768116" d="M246.417 1241.85C239.892 1243.05 233.761 1248.75 230.171 1256.96L102.506 1549.05C99.4188 1556.12 98.5572 1564.25 100.152 1571.29L174.37 1898.99C175.843 1905.49 179.28 1910.47 183.887 1912.77L404.762 2023.01C410.291 2025.77 416.867 2024.36 422.373 2019.24L620.977 1834.5C626.482 1829.38 630.222 1821.19 630.991 1812.57L661.733 1468.27C662.374 1461.09 660.889 1454.3 657.62 1449.47L492.902 1205.95C489.364 1200.72 484.084 1198.3 478.473 1199.33L246.417 1241.85Z" stroke="url(#paint52_linear_144_305)" stroke-width="4"/>
<path opacity="0.782609" d="M240.967 1237.73C234.245 1238.53 227.672 1244.07 223.651 1252.35L87.047 1533.5C83.6971 1540.39 82.4941 1548.42 83.7551 1555.46L143.052 1886.54C144.199 1892.94 147.286 1897.97 151.63 1900.52L363.301 2024.67C368.712 2027.84 375.442 2026.8 381.268 2021.88L582.488 1852.04C588.314 1847.12 592.48 1838.97 593.61 1830.28L637.822 1490.15C638.729 1483.17 637.592 1476.49 634.663 1471.59L483.187 1218.32C479.966 1212.93 474.887 1210.21 469.288 1210.87L240.967 1237.73Z" stroke="url(#paint53_linear_144_305)" stroke-width="4"/>
<path opacity="0.797101" d="M235.36 1235.12C228.452 1235.47 221.425 1240.82 216.959 1249.13L72.1061 1518.62C68.5026 1525.33 66.9719 1533.21 67.9115 1540.23L112.514 1873.47C113.355 1879.76 116.11 1884.82 120.195 1887.6L322.356 2024.89C327.635 2028.47 334.511 2027.81 340.657 2023.13L543.803 1868.37C549.949 1863.69 554.546 1855.61 556.04 1846.86L613.214 1512.01C614.369 1505.24 613.557 1498.7 610.95 1493.75L472.781 1231.8C469.87 1226.28 464.995 1223.28 459.421 1223.56L235.36 1235.12Z" stroke="url(#paint54_linear_144_305)" stroke-width="4"/>
<path opacity="0.811594" d="M229.505 1233.98C222.423 1233.87 214.936 1238.98 210.015 1247.29L57.6195 1504.47C53.7725 1510.96 51.9285 1518.68 52.559 1525.66L82.743 1859.83C83.2995 1865.99 85.7409 1871.08 89.5715 1874.06L281.956 2023.71C287.089 2027.7 294.1 2027.44 300.564 2023.03L504.955 1883.47C511.42 1879.06 516.45 1871.09 518.307 1862.32L587.897 1533.8C589.283 1527.26 588.773 1520.85 586.471 1515.88L461.623 1246.35C459.015 1240.72 454.347 1237.44 448.811 1237.36L229.505 1233.98Z" stroke="url(#paint55_linear_144_305)" stroke-width="4"/>
<path opacity="0.826087" d="M223.368 1234.31C216.131 1233.71 208.183 1238.53 202.801 1246.78L43.5791 1491.06C39.4992 1497.32 37.3564 1504.86 37.6901 1511.78L53.7842 1845.69C54.0747 1851.72 56.2205 1856.81 59.804 1859.98L242.186 2021.18C247.157 2025.57 254.291 2025.74 261.067 2021.63L466.041 1897.33C472.817 1893.22 478.28 1885.41 480.499 1876.65L561.921 1555.47C563.521 1549.16 563.292 1542.91 561.278 1537.93L449.717 1261.91C447.405 1256.19 442.944 1252.65 437.458 1252.19L223.368 1234.31Z" stroke="url(#paint56_linear_144_305)" stroke-width="4"/>
<path opacity="0.84058" d="M216.849 1236.08C209.479 1234.95 201.075 1239.42 195.23 1247.58L29.9068 1478.42C25.6052 1484.43 23.1782 1491.77 23.2273 1498.62L25.6084 1831.1C25.6506 1836.98 27.5184 1842.07 30.8626 1845.41L203.054 2017.35C207.85 2022.13 215.091 2022.76 222.167 2018.99L427.083 1909.94C434.158 1906.18 440.048 1898.56 442.628 1889.85L535.263 1576.98C537.062 1570.9 537.094 1564.81 535.353 1559.82L436.996 1278.42C434.969 1272.62 430.717 1268.84 425.294 1268.01L216.849 1236.08Z" stroke="url(#paint57_linear_144_305)" stroke-width="4"/>
<path opacity="0.855072" d="M209.912 1239.24C202.437 1237.56 193.59 1241.63 187.286 1249.64L16.589 1466.59C12.0774 1472.33 9.38053 1479.45 9.15676 1486.22L-1.75052 1816.11C-1.94042 1821.86 -0.334104 1826.94 2.77963 1830.44L164.634 2012.28C169.239 2017.45 176.567 2018.55 183.927 2015.16L388.168 1921.31C395.529 1917.92 401.835 1910.56 404.771 1901.92L507.969 1598.28C509.955 1592.44 510.229 1586.5 508.744 1581.52L423.462 1295.83C421.712 1289.97 417.668 1285.94 412.319 1284.74L209.912 1239.24Z" stroke="url(#paint58_linear_144_305)" stroke-width="4"/>
<path opacity="0.869565" d="M202.492 1243.77C194.942 1241.51 185.677 1245.11 178.924 1252.91L3.57728 1455.59C-1.13229 1461.03 -4.08517 1467.92 -4.57087 1474.6L-28.2963 1800.8C-28.7039 1806.41 -27.3436 1811.47 -24.4514 1815.12L126.958 2006.02C131.359 2011.57 138.751 2013.17 146.375 2010.21L349.354 1931.43C356.977 1928.47 363.685 1921.41 366.972 1912.88L480.054 1619.32C482.214 1613.71 482.716 1607.93 481.472 1602.96L409.085 1314.06C407.603 1308.15 403.769 1303.89 398.504 1302.32L202.492 1243.77Z" stroke="url(#paint59_linear_144_305)" stroke-width="4"/>
<path opacity="0.884058" d="M194.524 1249.6C186.936 1246.76 177.289 1249.82 170.103 1257.36L-9.17424 1445.43C-14.0695 1450.56 -17.2652 1457.21 -18.0028 1463.79L-54.0324 1785.22C-54.6454 1790.69 -53.5171 1795.74 -50.8373 1799.53L90.0581 1998.66C94.2404 2004.57 101.669 2006.67 109.529 2004.18L310.693 1940.33C318.552 1937.83 325.64 1931.12 329.269 1922.72L451.532 1640.06C453.858 1634.69 454.572 1629.05 453.556 1624.1L393.841 1333.06C392.618 1327.1 388.992 1322.62 383.823 1320.68L194.524 1249.6Z" stroke="url(#paint60_linear_144_305)" stroke-width="4"/>
<path opacity="0.898551" d="M185.96 1256.7C178.376 1253.24 168.393 1255.71 160.8 1262.91L-21.7012 1436.13C-26.7697 1440.94 -30.1962 1447.33 -31.1766 1453.81L-78.9549 1769.42C-79.7631 1774.76 -78.8545 1779.81 -76.3779 1783.73L53.9736 1990.24C57.9244 1996.5 65.3574 1999.14 73.42 1997.15L272.251 1948.01C280.313 1946.01 287.753 1939.7 291.715 1931.48L422.432 1660.46C424.915 1655.31 425.832 1649.81 425.032 1644.87L377.718 1352.76C376.747 1346.76 373.329 1342.06 368.266 1339.75L185.96 1256.7Z" stroke="url(#paint61_linear_144_305)" stroke-width="4"/>
<path opacity="0.913043" d="M176.737 1264.98C169.201 1260.92 158.942 1262.73 150.977 1269.54L-34.0586 1427.7C-39.2878 1432.17 -42.9337 1438.3 -44.1495 1444.67L-103.082 1753.49C-104.077 1758.7 -103.378 1763.74 -101.096 1767.8L18.7193 1980.84C22.4258 1987.43 29.8263 1990.62 38.0521 1989.16L234.072 1954.5C242.298 1953.05 250.056 1947.18 254.338 1939.18L392.763 1680.47C395.4 1675.54 396.509 1670.18 395.914 1665.25L360.69 1373.08C359.963 1367.05 356.753 1362.13 351.806 1359.46L176.737 1264.98Z" stroke="url(#paint62_linear_144_305)" stroke-width="4"/>
<path opacity="0.927536" d="M166.827 1274.39C159.387 1269.72 148.925 1270.83 140.63 1277.17L-46.2665 1420.15C-51.6435 1424.26 -55.4989 1430.12 -56.944 1436.39L-126.399 1737.46C-127.577 1742.56 -127.078 1747.61 -124.982 1751.8L-15.6591 1970.54C-12.2089 1977.45 -4.88147 1981.18 3.46129 1980.3L196.233 1959.84C204.575 1958.95 212.61 1953.58 217.198 1945.83L362.571 1700.05C365.358 1695.34 366.654 1690.11 366.256 1685.17L342.765 1393.96C342.276 1387.9 339.275 1382.77 334.452 1379.74L166.827 1274.39Z" stroke="url(#paint63_linear_144_305)" stroke-width="4"/>
<path opacity="0.942029" d="M156.174 1284.86C148.881 1279.59 138.301 1279.95 129.728 1285.77L-58.3791 1413.48C-63.8911 1417.22 -67.9472 1422.81 -69.6171 1428.97L-148.932 1721.41C-150.288 1726.41 -149.984 1731.47 -148.067 1735.8L-49.1547 1959.41C-45.9719 1966.61 -38.7618 1970.9 -30.3541 1970.61L158.77 1964.06C167.177 1963.76 175.441 1958.93 180.318 1951.46L331.866 1719.17C334.802 1714.67 336.281 1709.55 336.074 1704.6L323.921 1415.33C323.666 1409.24 320.873 1403.89 316.184 1400.5L156.174 1284.86Z" stroke="url(#paint64_linear_144_305)" stroke-width="4"/>
<path opacity="0.956522" d="M144.748 1296.29C137.654 1290.45 127.049 1290.04 118.258 1295.28L-70.433 1407.7C-76.0667 1411.06 -80.3157 1416.37 -82.2075 1422.42L-170.685 1705.4C-172.219 1710.31 -172.106 1715.39 -170.362 1719.87L-81.7472 1947.53C-78.842 1955 -71.7962 1959.84 -63.3804 1960.16L121.737 1967.2C130.152 1967.52 138.592 1963.26 143.738 1956.11L300.679 1737.79C303.767 1733.49 305.428 1728.47 305.407 1723.51L304.159 1437.12C304.133 1430.99 301.551 1425.42 297.005 1421.68L144.748 1296.29Z" stroke="url(#paint65_linear_144_305)" stroke-width="4"/>
<path opacity="0.971014" d="M132.521 1308.61C125.679 1302.23 115.148 1301.05 106.208 1305.65L-82.4655 1402.81C-88.2072 1405.77 -92.6425 1410.8 -94.7551 1416.74L-191.672 1689.48C-193.387 1694.31 -193.462 1699.44 -191.887 1704.07L-113.422 1934.98C-110.803 1942.69 -103.97 1948.07 -95.6069 1949.01L85.178 1969.32C93.5414 1970.26 102.1 1966.61 107.492 1959.8L269.039 1755.87C272.282 1751.77 274.128 1746.84 274.29 1741.84L283.478 1459.24C283.679 1453.08 281.31 1447.29 276.916 1443.2L132.521 1308.61Z" stroke="url(#paint66_linear_144_305)" stroke-width="4"/>
<path opacity="0.985507" d="M119.474 1321.74C112.932 1314.87 102.58 1312.92 93.5631 1316.84L-94.5122 1398.81C-100.347 1401.35 -104.963 1406.09 -107.297 1411.93L-211.906 1673.73C-213.806 1678.48 -214.072 1683.66 -212.662 1688.47L-144.168 1921.84C-141.843 1929.76 -135.271 1935.65 -127.022 1937.21L49.1339 1970.47C57.3827 1972.03 65.9981 1969 71.6118 1962.58L236.976 1773.37C240.38 1769.48 242.415 1764.63 242.762 1759.58L261.882 1481.64C262.308 1475.44 260.157 1469.42 255.924 1464.98L119.474 1321.74Z" stroke="url(#paint67_linear_144_305)" stroke-width="4"/>
<path d="M105.592 1335.58C99.3955 1328.28 89.3237 1325.58 80.307 1328.81L-106.612 1395.68C-112.525 1397.79 -117.316 1402.23 -119.872 1407.97L-231.406 1658.18C-233.498 1662.88 -233.958 1668.14 -232.712 1673.12L-173.98 1908.18C-171.955 1916.29 -165.691 1922.66 -157.619 1924.82L13.6343 1970.71C21.7061 1972.87 30.316 1970.49 36.124 1964.48L204.519 1790.28C208.091 1786.58 210.322 1781.8 210.857 1776.69L239.372 1504.23C240.026 1497.98 238.098 1491.74 234.035 1486.95L105.592 1335.58Z" stroke="url(#paint68_linear_144_305)" stroke-width="4"/>
</g>
</g>
<defs>
<filter id="filter0_ddiiii_144_305" x="-5" y="645" width="1930" height="750" filterUnits="userSpaceOnUse" color-interpolation-filters="sRGB">
<feFlood flood-opacity="0" result="BackgroundImageFix"/>
<feColorMatrix in="SourceAlpha" type="matrix" values="0 0 0 0 0 0 0 0 0 0 0 0 0 0 0 0 0 0 127 0" result="hardAlpha"/>
<feOffset dx="-1" dy="-1"/>
<feGaussianBlur stdDeviation="1"/>
<feColorMatrix type="matrix" values="0 0 0 0 0 0 0 0 0 0.368627 0 0 0 0 0.831373 0 0 0 0.5 0"/>
<feBlend mode="normal" in2="BackgroundImageFix" result="effect1_dropShadow_144_305"/>
<feColorMatrix in="SourceAlpha" type="matrix" values="0 0 0 0 0 0 0 0 0 0 0 0 0 0 0 0 0 0 127 0" result="hardAlpha"/>
<feOffset dx="1" dy="1"/>
<feGaussianBlur stdDeviation="1"/>
<feColorMatrix type="matrix" values="0 0 0 0 0 0 0 0 0 0.447059 0 0 0 0 1 0 0 0 0.3 0"/>
<feBlend mode="normal" in2="effect1_dropShadow_144_305" result="effect2_dropShadow_144_305"/>
<feBlend mode="normal" in="SourceGraphic" in2="effect2_dropShadow_144_305" result="shape"/>
<feColorMatrix in="SourceAlpha" type="matrix" values="0 0 0 0 0 0 0 0 0 0 0 0 0 0 0 0 0 0 127 0" result="hardAlpha"/>
<feOffset dx="5" dy="5"/>
<feGaussianBlur stdDeviation="6.5"/>
<feComposite in2="hardAlpha" operator="arithmetic" k2="-1" k3="1"/>
<feColorMatrix type="matrix" values="0 0 0 0 0 0 0 0 0 0.368627 0 0 0 0 0.831373 0 0 0 0.9 0"/>
<feBlend mode="normal" in2="shape" result="effect3_innerShadow_144_305"/>
<feColorMatrix in="SourceAlpha" type="matrix" values="0 0 0 0 0 0 0 0 0 0 0 0 0 0 0 0 0 0 127 0" result="hardAlpha"/>
<feOffset dx="-5" dy="-5"/>
<feGaussianBlur stdDeviation="5"/>
<feComposite in2="hardAlpha" operator="arithmetic" k2="-1" k3="1"/>
<feColorMatrix type="matrix" values="0 0 0 0 0 0 0 0 0 0.447059 0 0 0 0 1 0 0 0 0.9 0"/>
<feBlend mode="normal" in2="effect3_innerShadow_144_305" result="effect4_innerShadow_144_305"/>
<feColorMatrix in="SourceAlpha" type="matrix" values="0 0 0 0 0 0 0 0 0 0 0 0 0 0 0 0 0 0 127 0" result="hardAlpha"/>
<feOffset dx="5" dy="-5"/>
<feGaussianBlur stdDeviation="5"/>
<feComposite in2="hardAlpha" operator="arithmetic" k2="-1" k3="1"/>
<feColorMatrix type="matrix" values="0 0 0 0 0 0 0 0 0 0.368627 0 0 0 0 0.831373 0 0 0 0.2 0"/>
<feBlend mode="normal" in2="effect4_innerShadow_144_305" result="effect5_innerShadow_144_305"/>
<feColorMatrix in="SourceAlpha" type="matrix" values="0 0 0 0 0 0 0 0 0 0 0 0 0 0 0 0 0 0 127 0" result="hardAlpha"/>
<feOffset dx="-5" dy="5"/>
<feGaussianBlur stdDeviation="5"/>
<feComposite in2="hardAlpha" operator="arithmetic" k2="-1" k3="1"/>
<feColorMatrix type="matrix" values="0 0 0 0 0 0 0 0 0 0.368627 0 0 0 0 0.831373 0 0 0 0.2 0"/>
<feBlend mode="normal" in2="effect5_innerShadow_144_305" result="effect6_innerShadow_144_305"/>
</filter>
<linearGradient id="paint0_linear_144_305" x1="1649.36" y1="2263.13" x2="1153.72" y2="701.702" gradientUnits="userSpaceOnUse">
<stop/>
<stop offset="1" stop-color="#004AAD"/>
</linearGradient>
<linearGradient id="paint1_linear_144_305" x1="1593.41" y1="2267.98" x2="1197.15" y2="664.567" gradientUnits="userSpaceOnUse">
<stop/>
<stop offset="1" stop-color="#004AAD"/>
</linearGradient>
<linearGradient id="paint2_linear_144_305" x1="1538.02" y1="2270.45" x2="1248.47" y2="633.048" gradientUnits="userSpaceOnUse">
<stop/>
<stop offset="1" stop-color="#004AAD"/>
</linearGradient>
<linearGradient id="paint3_linear_144_305" x1="1483.3" y1="2270.56" x2="1306.92" y2="608.851" gradientUnits="userSpaceOnUse">
<stop/>
<stop offset="1" stop-color="#004AAD"/>
</linearGradient>
<linearGradient id="paint4_linear_144_305" x1="1429.31" y1="2268.38" x2="1371.27" y2="593.581" gradientUnits="userSpaceOnUse">
<stop/>
<stop offset="1" stop-color="#004AAD"/>
</linearGradient>
<linearGradient id="paint5_linear_144_305" x1="1376.15" y1="2263.95" x2="1439.86" y2="588.609" gradientUnits="userSpaceOnUse">
<stop/>
<stop offset="1" stop-color="#004AAD"/>
</linearGradient>
<linearGradient id="paint6_linear_144_305" x1="1323.87" y1="2257.34" x2="1510.68" y2="594.931" gradientUnits="userSpaceOnUse">
<stop/>
<stop offset="1" stop-color="#004AAD"/>
</linearGradient>
<linearGradient id="paint7_linear_144_305" x1="1272.57" y1="2248.62" x2="1581.41" y2="613.052" gradientUnits="userSpaceOnUse">
<stop/>
<stop offset="1" stop-color="#004AAD"/>
</linearGradient>
<linearGradient id="paint8_linear_144_305" x1="1222.3" y1="2237.86" x2="1649.66" y2="642.901" gradientUnits="userSpaceOnUse">
<stop/>
<stop offset="1" stop-color="#004AAD"/>
</linearGradient>
<linearGradient id="paint9_linear_144_305" x1="1173.12" y1="2225.13" x2="1713.09" y2="683.815" gradientUnits="userSpaceOnUse">
<stop/>
<stop offset="1" stop-color="#004AAD"/>
</linearGradient>
<linearGradient id="paint10_linear_144_305" x1="1125.1" y1="2210.51" x2="1769.57" y2="734.573" gradientUnits="userSpaceOnUse">
<stop/>
<stop offset="1" stop-color="#004AAD"/>
</linearGradient>
<linearGradient id="paint11_linear_144_305" x1="1078.29" y1="2194.11" x2="1817.43" y2="793.507" gradientUnits="userSpaceOnUse">
<stop/>
<stop offset="1" stop-color="#004AAD"/>
</linearGradient>
<linearGradient id="paint12_linear_144_305" x1="1032.73" y1="2176" x2="1855.43" y2="858.643" gradientUnits="userSpaceOnUse">
<stop/>
<stop offset="1" stop-color="#004AAD"/>
</linearGradient>
<linearGradient id="paint13_linear_144_305" x1="988.482" y1="2156.29" x2="1882.91" y2="927.869" gradientUnits="userSpaceOnUse">
<stop/>
<stop offset="1" stop-color="#004AAD"/>
</linearGradient>
<linearGradient id="paint14_linear_144_305" x1="945.565" y1="2135.07" x2="1899.72" y2="999.095" gradientUnits="userSpaceOnUse">
<stop/>
<stop offset="1" stop-color="#004AAD"/>
</linearGradient>
<linearGradient id="paint15_linear_144_305" x1="904.03" y1="2112.45" x2="1906.19" y2="1070.39" gradientUnits="userSpaceOnUse">
<stop/>
<stop offset="1" stop-color="#004AAD"/>
</linearGradient>
<linearGradient id="paint16_linear_144_305" x1="863.897" y1="2088.53" x2="1902.99" y2="1140.07" gradientUnits="userSpaceOnUse">
<stop/>
<stop offset="1" stop-color="#004AAD"/>
</linearGradient>
<linearGradient id="paint17_linear_144_305" x1="825.201" y1="2063.42" x2="1891.08" y2="1206.77" gradientUnits="userSpaceOnUse">
<stop/>
<stop offset="1" stop-color="#004AAD"/>
</linearGradient>
<linearGradient id="paint18_linear_144_305" x1="787.95" y1="2037.23" x2="1871.56" y2="1269.45" gradientUnits="userSpaceOnUse">
<stop/>
<stop offset="1" stop-color="#004AAD"/>
</linearGradient>
<linearGradient id="paint19_linear_144_305" x1="752.166" y1="2010.07" x2="1845.61" y2="1327.37" gradientUnits="userSpaceOnUse">
<stop/>
<stop offset="1" stop-color="#004AAD"/>
</linearGradient>
<linearGradient id="paint20_linear_144_305" x1="717.853" y1="1982.06" x2="1814.39" y2="1380.08" gradientUnits="userSpaceOnUse">
<stop/>
<stop offset="1" stop-color="#004AAD"/>
</linearGradient>
<linearGradient id="paint21_linear_144_305" x1="685.017" y1="1953.3" x2="1779.02" y2="1427.4" gradientUnits="userSpaceOnUse">
<stop/>
<stop offset="1" stop-color="#004AAD"/>
</linearGradient>
<linearGradient id="paint22_linear_144_305" x1="653.66" y1="1923.92" x2="1740.51" y2="1469.3" gradientUnits="userSpaceOnUse">
<stop/>
<stop offset="1" stop-color="#004AAD"/>
</linearGradient>
<linearGradient id="paint23_linear_144_305" x1="623.78" y1="1894.03" x2="1699.77" y2="1505.93" gradientUnits="userSpaceOnUse">
<stop/>
<stop offset="1" stop-color="#004AAD"/>
</linearGradient>
<linearGradient id="paint24_linear_144_305" x1="595.355" y1="1863.74" x2="1657.58" y2="1537.55" gradientUnits="userSpaceOnUse">
<stop/>
<stop offset="1" stop-color="#004AAD"/>
</linearGradient>
<linearGradient id="paint25_linear_144_305" x1="568.381" y1="1833.16" x2="1614.61" y2="1564.49" gradientUnits="userSpaceOnUse">
<stop/>
<stop offset="1" stop-color="#004AAD"/>
</linearGradient>
<linearGradient id="paint26_linear_144_305" x1="542.834" y1="1802.41" x2="1571.42" y2="1587.14" gradientUnits="userSpaceOnUse">
<stop/>
<stop offset="1" stop-color="#004AAD"/>
</linearGradient>
<linearGradient id="paint27_linear_144_305" x1="518.7" y1="1771.6" x2="1528.45" y2="1605.9" gradientUnits="userSpaceOnUse">
<stop/>
<stop offset="1" stop-color="#004AAD"/>
</linearGradient>
<linearGradient id="paint28_linear_144_305" x1="495.934" y1="1740.84" x2="1486.08" y2="1621.21" gradientUnits="userSpaceOnUse">
<stop/>
<stop offset="1" stop-color="#004AAD"/>
</linearGradient>
<linearGradient id="paint29_linear_144_305" x1="474.518" y1="1710.23" x2="1444.57" y2="1633.49" gradientUnits="userSpaceOnUse">
<stop/>
<stop offset="1" stop-color="#004AAD"/>
</linearGradient>
<linearGradient id="paint30_linear_144_305" x1="454.407" y1="1679.89" x2="1404.15" y2="1643.16" gradientUnits="userSpaceOnUse">
<stop/>
<stop offset="1" stop-color="#004AAD"/>
</linearGradient>
<linearGradient id="paint31_linear_144_305" x1="435.577" y1="1649.9" x2="1364.98" y2="1650.61" gradientUnits="userSpaceOnUse">
<stop/>
<stop offset="1" stop-color="#004AAD"/>
</linearGradient>
<linearGradient id="paint32_linear_144_305" x1="417.965" y1="1620.38" x2="1327.13" y2="1656.24" gradientUnits="userSpaceOnUse">
<stop/>
<stop offset="1" stop-color="#004AAD"/>
</linearGradient>
<linearGradient id="paint33_linear_144_305" x1="401.534" y1="1591.41" x2="1290.67" y2="1660.41" gradientUnits="userSpaceOnUse">
<stop/>
<stop offset="1" stop-color="#004AAD"/>
</linearGradient>
<linearGradient id="paint34_linear_144_305" x1="386.245" y1="1563.09" x2="1255.63" y2="1663.47" gradientUnits="userSpaceOnUse">
<stop/>
<stop offset="1" stop-color="#004AAD"/>
</linearGradient>
<linearGradient id="paint35_linear_144_305" x1="372.026" y1="1535.51" x2="1221.99" y2="1665.73" gradientUnits="userSpaceOnUse">
<stop/>
<stop offset="1" stop-color="#004AAD"/>
</linearGradient>
<linearGradient id="paint36_linear_144_305" x1="358.825" y1="1508.75" x2="1189.72" y2="1667.5" gradientUnits="userSpaceOnUse">
<stop/>
<stop offset="1" stop-color="#004AAD"/>
</linearGradient>
<linearGradient id="paint37_linear_144_305" x1="346.603" y1="1482.88" x2="1158.74" y2="1669.06" gradientUnits="userSpaceOnUse">
<stop/>
<stop offset="1" stop-color="#004AAD"/>
</linearGradient>
<linearGradient id="paint38_linear_144_305" x1="335.278" y1="1458" x2="1128.98" y2="1670.67" gradientUnits="userSpaceOnUse">
<stop/>
<stop offset="1" stop-color="#004AAD"/>
</linearGradient>
<linearGradient id="paint39_linear_144_305" x1="324.799" y1="1434.15" x2="1100.35" y2="1672.57" gradientUnits="userSpaceOnUse">
<stop/>
<stop offset="1" stop-color="#004AAD"/>
</linearGradient>
<linearGradient id="paint40_linear_144_305" x1="315.101" y1="1411.42" x2="1072.7" y2="1675" gradientUnits="userSpaceOnUse">
<stop/>
<stop offset="1" stop-color="#004AAD"/>
</linearGradient>
<linearGradient id="paint41_linear_144_305" x1="306.111" y1="1389.86" x2="1045.92" y2="1678.14" gradientUnits="userSpaceOnUse">
<stop/>
<stop offset="1" stop-color="#004AAD"/>
</linearGradient>
<linearGradient id="paint42_linear_144_305" x1="297.781" y1="1369.52" x2="1019.86" y2="1682.2" gradientUnits="userSpaceOnUse">
<stop/>
<stop offset="1" stop-color="#004AAD"/>
</linearGradient>
<linearGradient id="paint43_linear_144_305" x1="290.024" y1="1350.46" x2="994.349" y2="1687.35" gradientUnits="userSpaceOnUse">
<stop/>
<stop offset="1" stop-color="#004AAD"/>
</linearGradient>
<linearGradient id="paint44_linear_144_305" x1="282.782" y1="1332.71" x2="969.208" y2="1693.72" gradientUnits="userSpaceOnUse">
<stop/>
<stop offset="1" stop-color="#004AAD"/>
</linearGradient>
<linearGradient id="paint45_linear_144_305" x1="275.985" y1="1316.33" x2="944.244" y2="1701.47" gradientUnits="userSpaceOnUse">
<stop/>
<stop offset="1" stop-color="#004AAD"/>
</linearGradient>
<linearGradient id="paint46_linear_144_305" x1="269.554" y1="1301.33" x2="919.235" y2="1710.69" gradientUnits="userSpaceOnUse">
<stop/>
<stop offset="1" stop-color="#004AAD"/>
</linearGradient>
<linearGradient id="paint47_linear_144_305" x1="263.432" y1="1287.75" x2="893.967" y2="1721.48" gradientUnits="userSpaceOnUse">
<stop/>
<stop offset="1" stop-color="#004AAD"/>
</linearGradient>
<linearGradient id="paint48_linear_144_305" x1="257.558" y1="1275.61" x2="868.203" y2="1733.91" gradientUnits="userSpaceOnUse">
<stop/>
<stop offset="1" stop-color="#004AAD"/>
</linearGradient>
<linearGradient id="paint49_linear_144_305" x1="251.844" y1="1264.92" x2="841.661" y2="1748.01" gradientUnits="userSpaceOnUse">
<stop/>
<stop offset="1" stop-color="#004AAD"/>
</linearGradient>
<linearGradient id="paint50_linear_144_305" x1="246.233" y1="1255.7" x2="814.074" y2="1763.79" gradientUnits="userSpaceOnUse">
<stop/>
<stop offset="1" stop-color="#004AAD"/>
</linearGradient>
<linearGradient id="paint51_linear_144_305" x1="240.658" y1="1247.95" x2="785.147" y2="1781.2" gradientUnits="userSpaceOnUse">
<stop/>
<stop offset="1" stop-color="#004AAD"/>
</linearGradient>
<linearGradient id="paint52_linear_144_305" x1="235.056" y1="1241.67" x2="754.573" y2="1800.16" gradientUnits="userSpaceOnUse">
<stop/>
<stop offset="1" stop-color="#004AAD"/>
</linearGradient>
<linearGradient id="paint53_linear_144_305" x1="229.353" y1="1236.85" x2="722.027" y2="1820.55" gradientUnits="userSpaceOnUse">
<stop/>
<stop offset="1" stop-color="#004AAD"/>
</linearGradient>
<linearGradient id="paint54_linear_144_305" x1="223.505" y1="1233.48" x2="687.205" y2="1842.16" gradientUnits="userSpaceOnUse">
<stop/>
<stop offset="1" stop-color="#004AAD"/>
</linearGradient>
<linearGradient id="paint55_linear_144_305" x1="217.426" y1="1231.55" x2="649.768" y2="1864.73" gradientUnits="userSpaceOnUse">
<stop/>
<stop offset="1" stop-color="#004AAD"/>
</linearGradient>
<linearGradient id="paint56_linear_144_305" x1="211.092" y1="1231.03" x2="609.455" y2="1887.92" gradientUnits="userSpaceOnUse">
<stop/>
<stop offset="1" stop-color="#004AAD"/>
</linearGradient>
<linearGradient id="paint57_linear_144_305" x1="204.41" y1="1231.9" x2="565.969" y2="1911.29" gradientUnits="userSpaceOnUse">
<stop/>
<stop offset="1" stop-color="#004AAD"/>
</linearGradient>
<linearGradient id="paint58_linear_144_305" x1="197.352" y1="1234.12" x2="519.136" y2="1934.35" gradientUnits="userSpaceOnUse">
<stop/>
<stop offset="1" stop-color="#004AAD"/>
</linearGradient>
<linearGradient id="paint59_linear_144_305" x1="189.863" y1="1237.66" x2="468.834" y2="1956.48" gradientUnits="userSpaceOnUse">
<stop/>
<stop offset="1" stop-color="#004AAD"/>
</linearGradient>
<linearGradient id="paint60_linear_144_305" x1="181.888" y1="1242.49" x2="415.052" y2="1977.04" gradientUnits="userSpaceOnUse">
<stop/>
<stop offset="1" stop-color="#004AAD"/>
</linearGradient>
<linearGradient id="paint61_linear_144_305" x1="173.389" y1="1248.55" x2="357.933" y2="1995.29" gradientUnits="userSpaceOnUse">
<stop/>
<stop offset="1" stop-color="#004AAD"/>
</linearGradient>
<linearGradient id="paint62_linear_144_305" x1="164.309" y1="1255.79" x2="297.767" y2="2010.5" gradientUnits="userSpaceOnUse">
<stop/>
<stop offset="1" stop-color="#004AAD"/>
</linearGradient>
<linearGradient id="paint63_linear_144_305" x1="154.629" y1="1264.18" x2="235.062" y2="2021.97" gradientUnits="userSpaceOnUse">
<stop/>
<stop offset="1" stop-color="#004AAD"/>
</linearGradient>
<linearGradient id="paint64_linear_144_305" x1="144.298" y1="1273.64" x2="170.479" y2="2029.06" gradientUnits="userSpaceOnUse">
<stop/>
<stop offset="1" stop-color="#004AAD"/>
</linearGradient>
<linearGradient id="paint65_linear_144_305" x1="133.289" y1="1284.13" x2="104.872" y2="2031.3" gradientUnits="userSpaceOnUse">
<stop/>
<stop offset="1" stop-color="#004AAD"/>
</linearGradient>
<linearGradient id="paint66_linear_144_305" x1="121.572" y1="1295.58" x2="39.2266" y2="2028.4" gradientUnits="userSpaceOnUse">
<stop/>
<stop offset="1" stop-color="#004AAD"/>
</linearGradient>
<linearGradient id="paint67_linear_144_305" x1="109.125" y1="1307.92" x2="-25.3946" y2="2020.31" gradientUnits="userSpaceOnUse">
<stop/>
<stop offset="1" stop-color="#004AAD"/>
</linearGradient>
<linearGradient id="paint68_linear_144_305" x1="95.9229" y1="1321.1" x2="-87.9299" y2="2007.25" gradientUnits="userSpaceOnUse">
<stop/>
<stop offset="1" stop-color="#004AAD"/>
</linearGradient>
<clipPath id="clip0_144_305">
<rect width="1920" height="2655" fill="white"/>
</clipPath>
</defs>
</svg>
