<svg width="1920" height="740" viewBox="0 0 1920 740" fill="none" xmlns="http://www.w3.org/2000/svg">
<g clip-path="url(#clip0_144_685)">
<g filter="url(#filter0_ddiiii_144_685)">
<path d="M1920 0H0V740H1920V0Z" fill="#FBFBFB"/>
</g>
<g opacity="0.3">
<path opacity="0.0144928" d="M1633.54 860.05C1642.34 865.83 1655.66 861.6 1663.8 850.44L1938.21 474.42C1941.78 469.54 1943.94 463.84 1944.32 458.31L1992.56 -242.29C1992.83 -246.23 1992.19 -249.93 1990.69 -253.05L1765.08 -721.609C1761.41 -729.248 1753.14 -732.391 1744.19 -729.552L1434.37 -631.207C1425.42 -628.367 1417.6 -620.114 1414.59 -610.354L1230.26 -11.6702C1229.04 -7.69023 1228.69 -3.67018 1229.25 -0.000183105L1329.86 653.36C1330.65 658.51 1333.2 662.72 1337.05 665.25L1633.54 860.05Z" stroke="url(#paint0_linear_144_685)" stroke-width="4"/>
<path opacity="0.0289855" d="M1577.82 863.34C1586.49 869.93 1600.34 866.51 1609.02 855.63L1892.93 500.05C1896.62 495.43 1898.95 489.95 1899.53 484.54L1974.19 -212.56C1974.6 -216.38 1974.12 -220.03 1972.79 -223.19L1769.11 -707.511C1765.76 -715.48 1757.52 -719.229 1748.34 -716.961L1440.85 -640.968C1431.67 -638.7 1423.42 -630.877 1420.06 -621.248L1215.56 -36.0601C1214.23 -32.2401 1213.74 -28.35 1214.15 -24.72L1287.77 635.73C1288.34 640.85 1290.66 645.18 1294.34 647.98L1577.82 863.34Z" stroke="url(#paint1_linear_144_685)" stroke-width="4"/>
<path opacity="0.0434783" d="M1522.77 864.25C1531.26 871.64 1545.58 869.11 1554.77 858.59L1847.19 524.14C1850.98 519.8 1853.47 514.54 1854.24 509.24L1954.66 -182.32C1955.2 -186.04 1954.88 -189.65 1953.71 -192.85L1772.15 -691.323C1769.13 -699.602 1760.96 -703.97 1751.59 -702.313L1447.2 -648.487C1437.83 -646.83 1429.2 -639.49 1425.48 -630.021L1201.77 -59.8802C1200.33 -56.2202 1199.71 -52.4402 1199.97 -48.8602L1246.85 616.64C1247.21 621.75 1249.32 626.19 1252.82 629.24L1522.77 864.25Z" stroke="url(#paint2_linear_144_685)" stroke-width="4"/>
<path opacity="0.057971" d="M1468.51 862.84C1476.76 871.02 1491.44 869.46 1501.11 859.38L1801.05 546.66C1804.95 542.6 1807.59 537.56 1808.54 532.36L1933.98 -151.67C1934.64 -155.29 1934.46 -158.86 1933.46 -162.1L1774.13 -673.12C1771.46 -681.685 1763.4 -686.684 1753.88 -685.675L1453.34 -653.774C1443.83 -652.765 1434.85 -645.957 1430.79 -636.678L1188.84 -83.0602C1187.31 -79.5602 1186.57 -75.8901 1186.68 -72.3501L1207.15 596.19C1207.3 601.27 1209.2 605.83 1212.53 609.13L1468.51 862.84Z" stroke="url(#paint3_linear_144_685)" stroke-width="4"/>
<path opacity="0.0724638" d="M1415.09 859.18C1423.05 868.12 1438 867.61 1448.1 858.03L1754.57 567.59C1758.57 563.8 1761.35 558.98 1762.48 553.89L1912.14 -120.69C1912.92 -124.22 1912.88 -127.77 1912.02 -131.04L1774.98 -652.981C1772.66 -661.809 1764.76 -667.443 1755.16 -667.11L1459.15 -656.851C1449.55 -656.518 1440.27 -650.289 1435.89 -641.229L1176.75 -105.56C1175.12 -102.2 1174.26 -98.6201 1174.23 -95.1201L1168.69 574.47C1168.65 579.52 1170.34 584.19 1173.49 587.73L1415.09 859.18Z" stroke="url(#paint4_linear_144_685)" stroke-width="4"/>
<path opacity="0.0869565" d="M1362.62 853.35C1370.24 863.03 1385.32 863.6 1395.8 854.62L1707.84 586.9C1711.93 583.39 1714.86 578.78 1716.16 573.79L1889.15 -89.4702C1890.05 -92.9202 1890.14 -96.4402 1889.43 -99.7602L1774.66 -630.99C1772.7 -640.055 1765 -646.322 1755.37 -646.688L1464.56 -657.748C1454.93 -658.115 1445.41 -652.503 1440.71 -643.691L1165.44 -127.29C1163.72 -124.07 1162.75 -120.58 1162.58 -117.1L1131.52 551.55C1131.28 556.59 1132.77 561.37 1135.74 565.14L1362.62 853.35Z" stroke="url(#paint5_linear_144_685)" stroke-width="4"/>
<path opacity="0.101449" d="M1311.15 845.45C1318.37 855.82 1333.46 857.51 1344.25 849.17L1660.92 604.57C1665.09 601.34 1668.15 596.94 1669.63 592.03L1865.01 -58.0902C1866.02 -61.4702 1866.25 -64.9802 1865.67 -68.3402L1773.11 -607.235C1771.51 -616.513 1764.07 -623.401 1754.47 -624.479L1469.46 -656.506C1459.86 -657.584 1450.16 -652.623 1445.16 -644.085L1154.88 -148.21C1153.07 -145.12 1151.98 -141.71 1151.69 -138.24L1095.65 527.54C1095.22 532.56 1096.51 537.45 1099.3 541.46L1311.15 845.45Z" stroke="url(#paint6_linear_144_685)" stroke-width="4"/>
<path opacity="0.115942" d="M1260.75 835.57C1267.53 846.57 1282.49 849.39 1293.53 841.76L1613.87 620.58C1618.12 617.64 1621.32 613.44 1622.97 608.62L1839.74 -26.64C1840.87 -29.96 1841.23 -33.46 1840.79 -36.88L1770.27 -581.809C1769.04 -591.273 1761.91 -598.763 1752.41 -600.556L1473.78 -653.171C1464.28 -654.964 1454.45 -650.677 1449.17 -642.442L1145.03 -168.26C1143.12 -165.28 1141.91 -161.94 1141.49 -158.49L1061.11 502.53C1060.5 507.54 1061.58 512.55 1064.19 516.79L1260.75 835.57Z" stroke="url(#paint7_linear_144_685)" stroke-width="4"/>
<path opacity="0.130435" d="M1211.48 823.81C1217.77 835.37 1232.46 839.3 1243.68 832.44L1566.77 634.93C1571.1 632.28 1574.43 628.28 1576.25 623.54L1813.35 4.80005C1814.61 1.54005 1815.1 -1.96996 1814.79 -5.45996L1766.11 -554.81C1765.26 -564.432 1758.48 -572.496 1749.15 -574.996L1477.45 -647.799C1468.12 -650.299 1458.22 -646.702 1452.67 -638.795L1135.84 -187.38C1133.83 -184.52 1132.5 -181.23 1131.95 -177.78L1027.92 476.61C1027.13 481.63 1028.01 486.76 1030.44 491.22L1211.48 823.81Z" stroke="url(#paint8_linear_144_685)" stroke-width="4"/>
<path opacity="0.144928" d="M1163.39 810.26C1169.16 822.3 1183.43 827.3 1194.76 821.25L1519.67 647.61C1524.08 645.25 1527.55 641.44 1529.54 636.78L1785.87 36.1496C1787.24 32.9296 1787.87 29.3995 1787.69 25.8395L1760.59 -526.336C1760.11 -536.088 1753.74 -544.689 1744.64 -547.877L1480.4 -640.45C1471.3 -643.638 1461.39 -640.738 1455.59 -633.185L1127.26 -205.52C1125.15 -202.77 1123.69 -199.53 1123.01 -196.07L996.104 449.9C995.118 454.92 995.799 460.18 998.041 464.87L1163.39 810.26Z" stroke="url(#paint9_linear_144_685)" stroke-width="4"/>
<path opacity="0.15942" d="M1116.51 795.02C1121.72 807.47 1135.46 813.47 1146.82 808.25L1472.65 658.61C1477.12 656.56 1480.74 652.95 1482.91 648.35L1757.3 67.3098C1758.8 64.1298 1759.57 60.5797 1759.53 56.9397L1753.67 -496.493C1753.56 -506.346 1747.64 -515.437 1738.83 -519.285L1482.55 -631.19C1473.74 -635.038 1463.89 -632.83 1457.87 -625.655L1119.25 -222.64C1117.02 -219.99 1115.44 -216.8 1114.62 -213.31L965.664 422.49C964.486 427.52 964.961 432.92 967.015 437.83L1116.51 795.02Z" stroke="url(#paint10_linear_144_685)" stroke-width="4"/>
<path opacity="0.173913" d="M1070.88 778.18C1075.52 790.96 1088.62 797.87 1099.93 793.51L1425.77 667.95C1430.31 666.2 1434.06 662.79 1436.42 658.25L1727.68 98.2197C1729.32 95.0597 1730.22 91.4697 1730.33 87.7397L1745.32 -465.385C1745.59 -475.31 1740.16 -484.84 1731.69 -489.309L1483.88 -620.088C1475.41 -624.557 1465.67 -623.031 1459.43 -616.256L1111.76 -238.7C1109.41 -236.15 1107.69 -232.99 1106.73 -229.47L936.612 394.49C935.235 399.54 935.499 405.08 937.36 410.21L1070.88 778.18Z" stroke="url(#paint11_linear_144_685)" stroke-width="4"/>
<path opacity="0.188406" d="M1026.53 759.84C1030.57 772.85 1042.94 780.57 1054.13 777.08L1379.09 675.64C1383.69 674.2 1387.59 670.98 1390.14 666.51L1697.02 128.78C1698.8 125.65 1699.86 122.01 1700.11 118.18L1735.52 -433.122C1736.16 -443.089 1731.25 -452.999 1723.17 -458.043L1484.31 -607.213C1476.23 -612.258 1466.65 -611.395 1460.23 -605.042L1104.73 -253.64C1102.26 -251.19 1100.39 -248.06 1099.29 -244.51L908.935 366C907.354 371.07 907.399 376.75 909.063 382.11L1026.53 759.84Z" stroke="url(#paint12_linear_144_685)" stroke-width="4"/>
<path opacity="0.202899" d="M983.48 740.08C986.931 753.24 998.49 761.66 1009.49 759.02L1332.67 681.67C1337.33 680.56 1341.38 677.54 1344.13 673.14L1665.36 158.91C1667.3 155.8 1668.52 152.11 1668.92 148.17L1724.24 -399.815C1725.25 -409.794 1720.88 -420.022 1713.24 -425.59L1483.81 -592.639C1476.16 -598.208 1466.79 -597.982 1460.2 -592.07L1098.13 -267.43C1095.53 -265.09 1093.5 -261.99 1092.23 -258.39L882.656 337.14C880.862 342.24 880.68 348.06 882.141 353.63L983.48 740.08Z" stroke="url(#paint13_linear_144_685)" stroke-width="4"/>
<path opacity="0.217391" d="M941.746 719C944.604 732.22 955.31 741.22 966.062 739.43L1286.58 686.08C1291.29 685.3 1295.48 682.5 1298.44 678.17L1632.72 188.54C1634.83 185.45 1636.23 181.71 1636.79 177.64L1711.48 -365.58C1712.85 -375.54 1709.04 -386.02 1701.85 -392.057L1482.34 -576.438C1475.15 -582.475 1466.03 -582.858 1459.29 -577.405L1091.9 -280.04C1089.15 -277.81 1086.95 -274.73 1085.52 -271.08L857.741 308C855.726 313.13 855.307 319.1 856.558 324.89L941.746 719Z" stroke="url(#paint14_linear_144_685)" stroke-width="4"/>
<path opacity="0.231884" d="M901.36 696.69C903.635 709.89 913.461 719.34 923.902 718.36L1240.88 688.88C1245.62 688.44 1249.97 685.86 1253.14 681.61L1599.16 217.59C1601.44 214.53 1603.03 210.71 1603.76 206.52L1697.23 -330.52C1698.95 -340.44 1695.71 -351.11 1689 -357.55L1479.86 -558.683C1473.16 -565.131 1464.31 -566.09 1457.46 -561.111L1085.99 -291.43C1083.08 -289.32 1080.71 -286.27 1079.09 -282.56L834.197 278.71C831.951 283.86 831.285 289.98 832.318 295.97L901.36 696.69Z" stroke="url(#paint15_linear_144_685)" stroke-width="4"/>
<path opacity="0.246377" d="M862.329 673.22C864.036 686.32 872.973 696.11 883.053 695.92L1195.62 690.11C1200.39 690.02 1204.88 687.68 1208.28 683.51L1564.69 245.99C1567.16 242.95 1568.95 239.06 1569.86 234.73L1681.47 -294.77C1683.54 -304.61 1680.86 -315.4 1674.65 -322.2L1476.35 -539.449C1470.14 -546.25 1461.6 -547.749 1454.65 -543.259L1080.33 -301.57C1077.27 -299.59 1074.7 -296.57 1072.89 -292.8L811.997 249.37C809.511 254.53 808.586 260.79 809.394 266.99L862.329 673.22Z" stroke="url(#paint16_linear_144_685)" stroke-width="4"/>
<path opacity="0.26087" d="M824.675 648.69C825.837 661.63 833.894 671.65 843.57 672.2L1150.86 689.8C1155.63 690.07 1160.28 687.97 1163.91 683.9L1529.36 273.65C1532.04 270.64 1534.04 266.69 1535.15 262.22L1664.21 -258.43C1666.62 -268.16 1664.5 -279.01 1658.79 -286.11L1471.77 -518.812C1466.06 -525.908 1457.85 -527.912 1450.83 -523.922L1074.9 -310.45C1071.67 -308.61 1068.89 -305.62 1066.87 -301.79L791.131 220.08C788.394 225.26 787.199 231.65 787.773 238.04L824.675 648.69Z" stroke="url(#paint17_linear_144_685)" stroke-width="4"/>
<path opacity="0.275362" d="M788.404 623.2C789.047 635.89 796.244 646.05 805.481 647.3L1106.64 687.97C1111.42 688.62 1116.21 686.78 1120.07 682.82L1493.21 300.52C1496.11 297.55 1498.34 293.53 1499.66 288.91L1645.45 -221.62C1648.19 -231.22 1646.61 -242.07 1641.41 -249.41L1466.09 -496.847C1460.9 -504.184 1453.03 -506.657 1445.95 -503.177L1069.62 -318.03C1066.21 -316.36 1063.22 -313.41 1060.97 -309.52L771.563 190.95C768.567 196.13 767.088 202.65 767.421 209.22L788.404 623.2Z" stroke="url(#paint18_linear_144_685)" stroke-width="4"/>
<path opacity="0.289855" d="M753.528 596.82C753.683 609.23 760.053 619.43 768.824 621.32L1063.03 684.68C1067.79 685.7 1072.72 684.14 1076.83 680.31L1456.29 326.52C1459.42 323.6 1461.91 319.51 1463.45 314.75L1625.21 -184.46C1628.27 -193.9 1627.22 -204.7 1622.52 -212.22L1459.31 -473.633C1454.61 -481.158 1447.09 -484.065 1440 -481.103L1064.45 -324.31C1060.87 -322.81 1057.63 -319.91 1055.14 -315.97L753.269 162.1C750.003 167.27 748.23 173.9 748.315 180.63L753.528 596.82Z" stroke="url(#paint19_linear_144_685)" stroke-width="4"/>
<path opacity="0.304348" d="M720.051 569.66C719.752 581.73 725.336 591.9 733.621 594.38L1020.06 679.97C1024.78 681.38 1029.85 680.11 1034.2 676.43L1418.64 351.59C1422.02 348.73 1424.78 344.59 1426.56 339.69L1603.49 -147.07C1606.85 -156.31 1606.31 -167.01 1602.11 -174.67L1451.37 -449.248C1447.16 -456.914 1440.01 -460.221 1432.92 -457.781L1059.32 -329.26C1055.56 -327.96 1052.08 -325.13 1049.33 -321.14L736.207 133.62C732.664 138.76 730.587 145.49 730.416 152.36L720.051 569.66Z" stroke="url(#paint20_linear_144_685)" stroke-width="4"/>
<path opacity="0.318841" d="M687.977 541.81C687.257 553.51 692.101 563.58 699.889 566.59L977.787 673.88C982.447 675.68 987.646 674.73 992.244 671.23L1380.32 375.66C1383.96 372.89 1387 368.69 1389.04 363.66L1580.33 -109.55C1583.98 -118.58 1583.93 -129.13 1580.2 -136.89L1442.28 -423.776C1438.55 -431.538 1431.77 -435.212 1424.7 -433.297L1054.21 -332.88C1050.26 -331.81 1046.51 -329.06 1043.49 -325.03L720.342 105.61C716.513 110.71 714.121 117.51 713.69 124.51L687.977 541.81Z" stroke="url(#paint21_linear_144_685)" stroke-width="4"/>
<path opacity="0.333333" d="M657.31 513.37C656.204 524.66 660.358 534.59 667.642 538.07L936.246 666.48C940.83 668.67 946.145 668.05 950.991 664.74L1341.38 398.67C1345.28 396.02 1348.64 391.78 1350.94 386.61L1555.74 -72.0303C1559.66 -80.8103 1560.07 -91.1703 1556.8 -98.9903L1432.02 -397.298C1428.75 -405.116 1422.33 -409.126 1415.32 -407.737L1049.03 -335.16C1044.9 -334.34 1040.88 -331.7 1037.56 -327.65L705.632 78.1797C701.512 83.2097 698.796 90.0597 698.1 97.1597L657.31 513.37Z" stroke="url(#paint22_linear_144_685)" stroke-width="4"/>
<path opacity="0.347826" d="M628.052 484.44C626.595 495.3 630.109 505.04 636.89 508.95L895.482 657.82C899.968 660.4 905.389 660.12 910.479 657.05L1301.86 420.58C1306.05 418.06 1309.73 413.81 1312.32 408.52L1529.75 -34.6201C1533.93 -43.1301 1534.77 -53.2601 1531.94 -61.1001L1420.56 -369.9C1417.73 -377.74 1411.68 -382.05 1404.75 -381.19L1043.75 -336.1C1039.44 -335.56 1035.13 -333.06 1031.5 -328.99L692.032 51.42C687.618 56.36 684.573 63.2299 683.609 70.4099L628.052 484.44Z" stroke="url(#paint23_linear_144_685)" stroke-width="4"/>
<path opacity="0.362319" d="M600.184 455.13C598.41 465.54 601.334 475.06 607.616 479.33L855.516 647.95C859.885 650.92 865.396 651.01 870.725 648.19L1261.83 441.33C1266.3 438.96 1270.33 434.72 1273.23 429.33L1502.4 2.58981C1506.82 -5.64019 1508.05 -15.5101 1505.65 -23.3301L1407.9 -341.67C1405.49 -349.49 1399.81 -354.09 1392.98 -353.74L1038.3 -335.7C1033.82 -335.47 1029.2 -333.13 1025.25 -329.08L679.481 25.4099C674.77 30.2399 671.392 37.0998 670.159 44.3398L600.184 455.13Z" stroke="url(#paint24_linear_144_685)" stroke-width="4"/>
<path opacity="0.376812" d="M573.705 425.52C571.648 435.48 574.03 444.76 579.824 449.35L816.39 636.95C820.622 640.3 826.208 640.77 831.767 638.24L1221.35 460.87C1226.11 458.7 1230.5 454.49 1233.71 449.01L1473.72 39.4696C1478.36 31.5596 1479.97 21.9697 1477.97 14.1797L1394.03 -312.69C1392.03 -320.47 1386.71 -325.33 1380 -325.49L1032.64 -333.97C1027.99 -334.09 1023.07 -331.94 1018.79 -327.93L667.935 0.269653C662.928 4.94965 659.215 11.7697 657.712 19.0397L573.705 425.52Z" stroke="url(#paint25_linear_144_685)" stroke-width="4"/>
<path opacity="0.391304" d="M548.596 395.74C546.285 405.24 548.173 414.26 553.491 419.13L778.126 624.86C782.202 628.6 787.843 629.47 793.621 627.25L1180.47 479.15C1185.53 477.22 1190.29 473.07 1193.82 467.54L1443.75 75.9299C1448.59 68.3399 1450.54 59.0598 1448.93 51.3398L1378.94 -283.05C1377.33 -290.77 1372.36 -295.86 1365.8 -296.52L1026.71 -330.93C1021.91 -331.42 1016.68 -329.5 1012.05 -325.56L657.328 -23.9501C652.029 -19.4401 647.982 -12.7002 646.211 -5.42023L548.596 395.74Z" stroke="url(#paint26_linear_144_685)" stroke-width="4"/>
<path opacity="0.405797" d="M524.85 365.88C522.314 374.92 523.75 383.67 528.608 388.78L740.759 611.77C744.66 615.87 750.336 617.16 756.318 615.29L1139.26 496.15C1144.61 494.48 1149.75 490.44 1153.62 484.87L1412.54 111.86C1417.56 104.62 1419.83 95.6597 1418.58 88.0197L1362.64 -252.84C1361.39 -260.48 1356.78 -265.78 1350.38 -266.93L1020.46 -326.58C1015.53 -327.47 1009.99 -325.83 1005 -321.99L647.611 -47.1503C642.028 -42.8503 637.652 -36.2203 635.615 -28.9603L524.85 365.88Z" stroke="url(#paint27_linear_144_685)" stroke-width="4"/>
<path opacity="0.42029" d="M502.425 336.05C499.689 344.64 500.714 353.12 505.129 358.43L704.292 597.74C707.998 602.19 713.687 603.91 719.854 602.43L1097.78 511.82C1103.41 510.47 1108.95 506.57 1113.15 501L1380.13 147.17C1385.32 140.29 1387.87 131.67 1386.96 124.12L1345.13 -222.15C1344.22 -229.69 1339.95 -235.18 1333.74 -236.82L1013.84 -320.96C1008.81 -322.28 1002.96 -320.95 997.613 -317.25L638.701 -69.26C632.845 -65.21 628.147 -58.72 625.849 -51.51L502.425 336.05Z" stroke="url(#paint28_linear_144_685)" stroke-width="4"/>
<path opacity="0.434783" d="M481.31 306.34C478.396 314.49 479.046 322.71 483.039 328.19L668.755 582.83C672.252 587.63 677.929 589.78 684.258 588.72L1056.1 526.13C1062 525.14 1067.93 521.44 1072.47 515.9L1346.58 181.76C1351.91 175.26 1354.73 166.98 1354.14 159.54L1326.4 -191.07C1325.81 -198.5 1321.89 -204.17 1315.88 -206.26L1006.8 -314.08C1001.69 -315.87 995.55 -314.89 989.848 -311.38L630.547 -90.2102C624.432 -86.4402 619.423 -80.1403 616.871 -73.0003L481.31 306.34Z" stroke="url(#paint29_linear_144_685)" stroke-width="4"/>
<path opacity="0.449275" d="M461.464 276.86C458.391 284.59 458.699 292.55 462.288 298.17L634.152 567.13C637.423 572.25 643.063 574.85 649.527 574.23L1014.29 539.08C1020.44 538.49 1026.74 535.03 1031.62 529.57L1311.93 215.54C1317.39 209.43 1320.45 201.49 1320.17 194.17L1306.48 -159.68C1306.2 -167 1302.61 -172.83 1296.82 -175.37L999.302 -305.98C994.128 -308.25 987.717 -307.67 981.67 -304.39L623.068 -109.93C616.713 -106.49 611.409 -100.41 608.609 -93.36L461.464 276.86Z" stroke="url(#paint30_linear_144_685)" stroke-width="4"/>
<path opacity="0.463768" d="M442.869 247.71C439.653 255.04 439.647 262.75 442.853 268.49L600.511 550.7C603.543 556.12 609.117 559.18 615.685 559.03L972.424 550.63C978.796 550.48 985.457 547.32 990.657 541.98L1276.26 248.44C1281.83 242.71 1285.11 235.12 1285.11 227.93L1285.38 -128.09C1285.39 -135.29 1282.12 -141.26 1276.56 -144.23L991.298 -296.69C986.105 -299.47 979.446 -299.34 973.072 -296.34L616.21 -128.38C609.64 -125.29 604.059 -119.47 601.018 -112.54L442.869 247.71Z" stroke="url(#paint31_linear_144_685)" stroke-width="4"/>
<path opacity="0.478261" d="M425.465 218.99C422.119 225.93 421.824 233.41 424.666 239.25L567.816 533.6C570.596 539.32 576.075 542.84 582.714 543.18L930.554 560.79C937.112 561.13 944.108 558.31 949.618 553.13L1239.61 280.36C1245.27 275.03 1248.74 267.79 1249.02 260.72L1263.11 -96.3704C1263.39 -103.44 1260.44 -109.55 1255.12 -112.94L982.731 -286.26C977.556 -289.56 970.685 -289.92 964.008 -287.24L609.881 -145.49C603.122 -142.79 597.286 -137.27 594.013 -130.48L425.465 218.99Z" stroke="url(#paint32_linear_144_685)" stroke-width="4"/>
<path opacity="0.492754" d="M409.222 190.78C405.754 197.36 405.19 204.63 407.687 210.56L536.082 515.92C538.599 521.91 543.953 525.89 550.625 526.73L888.76 569.56C895.462 570.41 902.756 568 908.556 563.02L1202.02 311.23C1207.77 306.31 1211.42 299.4 1211.96 292.45L1239.67 -64.6102C1240.21 -71.5602 1237.58 -77.8001 1232.51 -81.5801L973.572 -274.74C968.455 -278.56 961.416 -279.44 954.47 -277.14L604.015 -161.23C597.101 -158.94 591.035 -153.75 587.539 -147.13L409.222 190.78Z" stroke="url(#paint33_linear_144_685)" stroke-width="4"/>
<path opacity="0.507246" d="M394.103 163.19C390.52 169.42 389.703 176.49 391.872 182.52L505.32 497.73C507.564 503.96 512.763 508.4 519.428 509.76L847.119 576.94C853.914 578.33 861.462 576.37 867.525 571.65L1163.61 340.99C1169.42 336.46 1173.24 329.88 1174.03 323.05L1215.13 -32.9C1215.91 -39.73 1213.59 -46.1 1208.78 -50.25L963.794 -262.17C958.777 -266.51 951.622 -267.95 944.45 -266.08L598.552 -175.56C591.517 -173.72 585.248 -168.88 581.54 -162.44L394.103 163.19Z" stroke="url(#paint34_linear_144_685)" stroke-width="4"/>
<path opacity="0.521739" d="M380.042 136.3C376.347 142.2 375.29 149.1 377.145 155.21L475.509 479.08C477.473 485.55 482.485 490.43 489.101 492.33L805.679 582.94C812.511 584.9 820.257 583.44 826.552 579.01L1124.4 369.55C1130.26 365.43 1134.24 359.17 1135.27 352.45L1189.47 -1.32027C1190.5 -8.04027 1188.47 -14.5304 1183.93 -19.0404L953.347 -248.6C948.474 -253.46 941.262 -255.48 933.913 -254.07L593.398 -188.44C586.281 -187.07 579.84 -182.62 575.93 -176.38L380.042 136.3Z" stroke="url(#paint35_linear_144_685)" stroke-width="4"/>
<path opacity="0.536232" d="M366.991 110.2C363.183 115.79 361.894 122.54 363.45 128.73L446.649 460.07C448.324 466.74 453.119 472.06 459.645 474.48L764.504 587.6C771.313 590.13 779.194 589.2 785.683 585.11L1084.46 396.87C1090.37 393.14 1094.5 387.2 1095.76 380.59L1162.73 30.0397C1164 23.4297 1162.27 16.8296 1158 11.9596L942.206 -234.11C937.519 -239.45 930.316 -242.07 922.848 -241.15L588.485 -199.85C581.328 -198.97 574.745 -194.93 570.644 -188.91L366.991 110.2Z" stroke="url(#paint36_linear_144_685)" stroke-width="4"/>
<path opacity="0.550725" d="M354.913 84.9597C350.991 90.2597 349.476 96.8698 350.741 103.16L418.75 440.75C420.132 447.61 424.68 453.34 431.073 456.28L723.668 590.94C730.392 594.04 738.339 593.67 744.982 589.96L1043.87 422.87C1049.81 419.55 1054.09 413.9 1055.58 407.39L1134.96 61.1198C1136.45 54.6098 1135.02 47.8798 1131.03 42.6798L930.366 -218.73C925.906 -224.54 918.78 -227.76 911.254 -227.36L583.761 -209.79C576.606 -209.4 569.915 -205.79 565.633 -200L354.913 84.9597Z" stroke="url(#paint37_linear_144_685)" stroke-width="4"/>
<path opacity="0.565217" d="M343.731 60.6597C339.69 65.6897 337.949 72.1896 338.933 78.5696L391.781 421.19C392.865 428.21 397.139 434.35 403.357 437.79L683.202 593C689.777 596.65 697.719 596.85 704.472 593.55L1002.7 447.52C1008.66 444.59 1013.08 439.23 1014.8 432.81L1106.17 91.8196C1107.89 85.3996 1106.75 78.5497 1103.04 73.0297L917.784 -202.55C913.59 -208.79 906.61 -212.58 899.092 -212.71L579.136 -218.22C572.026 -218.34 565.26 -215.17 560.807 -209.63L343.731 60.6597Z" stroke="url(#paint38_linear_144_685)" stroke-width="4"/>
<path opacity="0.57971" d="M333.398 37.3798C329.231 42.1598 327.262 48.5598 327.969 55.0398L365.743 401.46C366.526 408.63 370.499 415.14 376.504 419.07L643.161 593.82C649.528 597.99 657.394 598.76 664.21 595.89L961.006 470.75C966.996 468.22 971.549 463.14 973.497 456.81L1076.41 122.07C1078.36 115.73 1077.51 108.75 1074.09 102.93L904.46 -185.61C900.564 -192.23 893.799 -196.58 886.354 -197.25L574.555 -225.16C567.533 -225.79 560.724 -223.06 556.112 -217.78L333.398 37.3798Z" stroke="url(#paint39_linear_144_685)" stroke-width="4"/>
<path opacity="0.594203" d="M323.85 15.1897C319.55 19.7197 317.348 26.0497 317.78 32.6397L340.621 381.64C341.099 388.93 344.748 395.78 350.505 400.17L603.585 593.42C609.688 598.08 617.407 599.42 624.241 596.99L918.873 492.53C924.878 490.4 929.572 485.59 931.75 479.33L1045.71 151.79C1047.88 145.53 1047.33 138.43 1044.2 132.31L890.379 -167.97C886.811 -174.93 880.322 -179.8 873.013 -181L569.954 -230.59C563.06 -231.72 556.239 -229.45 551.479 -224.44L323.85 15.1897Z" stroke="url(#paint40_linear_144_685)" stroke-width="4"/>
<path opacity="0.608696" d="M315.018 -5.85004C310.574 -1.56004 308.132 4.69998 308.288 11.42L316.39 361.78C316.561 369.18 319.866 376.33 325.343 381.16L564.497 591.86C570.289 596.97 577.797 598.84 584.604 596.88L876.36 512.83C882.374 511.1 887.211 506.55 889.623 500.36L1014.1 180.92C1016.51 174.73 1016.27 167.5 1013.42 161.09L875.527 -149.7C872.31 -156.95 866.152 -162.29 859.038 -163.99L565.262 -234.53C558.535 -236.15 551.732 -234.33 546.835 -229.6L315.018 -5.85004Z" stroke="url(#paint41_linear_144_685)" stroke-width="4"/>
<path opacity="0.623188" d="M306.854 -25.6901C302.258 -21.6301 299.565 -15.4101 299.44 -8.57008L293.051 341.95C292.914 349.43 295.858 356.87 301.027 362.08L525.947 589.18C531.387 594.67 538.628 597.05 545.365 595.56L833.558 531.6C839.576 530.27 844.558 525.98 847.211 519.86L981.652 209.39C984.305 203.26 984.367 195.9 981.821 189.22L859.916 -130.84C857.067 -138.32 851.287 -144.08 844.42 -146.27L560.441 -236.98C553.915 -239.07 547.158 -237.69 542.135 -233.26L306.854 -25.6901Z" stroke="url(#paint42_linear_144_685)" stroke-width="4"/>
<path opacity="0.637681" d="M299.276 -44.2604C294.518 -40.4404 291.561 -34.2504 291.149 -27.2704L270.565 322.22C270.121 329.77 272.69 337.44 277.529 343.01L487.943 585.41C492.999 591.24 499.926 594.08 506.554 593.05L790.523 548.83C796.537 547.9 801.668 543.87 804.568 537.8L948.389 237.12C951.289 231.06 951.667 223.57 949.424 216.62L843.528 -111.46C841.057 -119.12 835.692 -125.23 829.115 -127.87L555.415 -237.96C549.12 -240.49 542.436 -239.56 537.298 -235.43L299.276 -44.2604Z" stroke="url(#paint43_linear_144_685)" stroke-width="4"/>
<path opacity="0.652174" d="M292.225 -61.5204C287.295 -57.9304 284.059 -51.7804 283.351 -44.6404L248.919 302.66C248.167 310.24 250.352 318.11 254.844 324L450.517 580.6C455.167 586.7 461.743 589.96 468.226 589.38L747.337 564.5C753.339 563.96 758.623 560.19 761.778 554.19L914.365 264.06C917.52 258.06 918.225 250.44 916.291 243.24L826.371 -91.6004C824.282 -99.3804 819.357 -105.78 813.107 -108.84L550.139 -237.48C544.102 -240.43 537.513 -239.93 532.273 -236.12L292.225 -61.5204Z" stroke="url(#paint44_linear_144_685)" stroke-width="4"/>
<path opacity="0.666667" d="M285.632 -77.4204C280.521 -74.0704 276.989 -67.9404 275.975 -60.6604L228.087 283.32C227.029 290.92 228.824 298.95 232.956 305.12L413.69 574.77C417.921 581.09 424.119 584.72 430.426 584.58L704.069 578.58C710.051 578.45 715.492 574.94 718.912 569.01L879.63 290.14C883.049 284.21 884.091 276.47 882.473 269.03L808.445 -71.3303C806.739 -79.1703 802.268 -85.8003 796.373 -89.2303L544.561 -235.55C538.803 -238.9 532.33 -238.81 526.999 -235.33L285.632 -77.4204Z" stroke="url(#paint45_linear_144_685)" stroke-width="4"/>
<path opacity="0.681159" d="M279.419 -91.9202C274.118 -88.8302 270.272 -82.7202 268.938 -75.2902L208.033 264.27C206.671 271.86 208.072 280.01 211.837 286.41L377.474 567.97C381.282 574.45 387.082 578.4 393.188 578.68L660.784 591.07C666.736 591.35 672.337 588.11 676.029 582.25L844.224 315.31C847.916 309.45 849.308 301.6 848.011 293.93L789.743 -50.6803C788.413 -58.5403 784.404 -65.3402 778.881 -69.0902L538.618 -232.21C533.157 -235.92 526.819 -236.24 521.409 -233.08L279.419 -91.9202Z" stroke="url(#paint46_linear_144_685)" stroke-width="4"/>
<path opacity="0.695652" d="M273.526 -104.99C268.028 -102.17 263.85 -96.0902 262.181 -88.5002L188.738 245.56C187.076 253.12 188.084 261.36 191.478 267.95L341.901 560.24C345.287 566.82 350.681 571.05 356.564 571.73L617.561 601.98C623.474 602.66 629.237 599.7 633.212 593.92L808.211 339.51C812.186 333.74 813.939 325.78 812.972 317.9L770.28 -29.7102C769.318 -37.5402 765.766 -44.4502 760.626 -48.4802L532.274 -227.48C527.123 -231.51 520.934 -232.23 515.459 -229.41L273.526 -104.99Z" stroke="url(#paint47_linear_144_685)" stroke-width="4"/>
<path opacity="0.710145" d="M267.893 -116.61C262.193 -114.06 257.663 -108.03 255.643 -100.29L170.181 227.25C168.222 234.75 168.84 243.05 171.863 249.8L306.999 551.61C309.972 558.25 314.957 562.7 320.602 563.76L574.48 611.3C580.342 612.4 586.269 609.71 590.535 604.03L771.654 362.7C775.921 357.02 778.048 348.97 777.416 340.91L750.069 -8.45995C749.461 -16.2299 746.359 -23.1899 741.605 -27.4599L525.489 -221.38C520.656 -225.72 514.631 -226.8 509.102 -224.33L267.893 -116.61Z" stroke="url(#paint48_linear_144_685)" stroke-width="4"/>
<path opacity="0.724638" d="M262.43 -126.75C256.523 -124.5 251.621 -118.52 249.234 -110.64L152.308 209.39C150.058 216.82 150.292 225.13 152.946 232L272.77 542.13C275.341 548.78 279.923 553.42 285.316 554.83L531.589 619.04C537.387 620.56 543.479 618.17 548.045 612.59L734.589 384.84C739.156 379.26 741.669 371.14 741.38 362.9L729.095 13.0101C728.826 5.34006 726.159 -1.62992 721.79 -6.08992L518.197 -213.95C513.687 -218.55 507.837 -220 502.267 -217.88L262.43 -126.75Z" stroke="url(#paint49_linear_144_685)" stroke-width="4"/>
<path opacity="0.73913" d="M257.075 -135.39C250.961 -133.47 245.667 -127.55 242.896 -119.54L135.095 192.04C132.559 199.38 132.417 207.65 134.71 214.61L239.243 531.84C241.429 538.47 245.615 543.25 250.75 544.98L488.963 625.23C494.685 627.16 500.941 625.08 505.814 619.63L697.083 405.87C701.956 400.42 704.868 392.25 704.927 383.87L707.376 34.6498C707.429 27.1198 705.177 20.1798 701.187 15.5598L510.364 -205.22C506.179 -210.07 500.512 -211.85 494.915 -210.09L257.075 -135.39Z" stroke="url(#paint50_linear_144_685)" stroke-width="4"/>
<path opacity="0.753623" d="M251.761 -142.52C245.439 -140.95 239.735 -135.13 236.563 -127L118.507 175.25C115.691 182.46 115.184 190.68 117.122 197.69L206.437 520.77C208.256 527.35 212.06 532.25 216.932 534.28L446.666 629.88C452.299 632.22 458.717 630.47 463.904 625.17L659.192 425.77C664.379 420.47 667.7 412.28 668.112 403.76L684.918 56.4198C685.275 49.0598 683.418 42.1797 679.795 37.4397L501.945 -195.24C498.085 -200.29 492.609 -202.41 486.998 -201.01L251.761 -142.52Z" stroke="url(#paint51_linear_144_685)" stroke-width="4"/>
<path opacity="0.768116" d="M246.417 -148.15C239.892 -146.95 233.761 -141.25 230.171 -133.04L102.506 159.05C99.4188 166.12 98.5572 174.25 100.152 181.29L174.37 508.99C175.843 515.49 179.28 520.47 183.887 522.77L404.762 633.01C410.291 635.77 416.867 634.36 422.373 629.24L620.977 444.5C626.482 439.38 630.222 431.19 630.991 422.57L661.733 78.2701C662.374 71.0901 660.889 64.3 657.62 59.47L492.902 -184.05C489.364 -189.28 484.084 -191.7 478.473 -190.67L246.417 -148.15Z" stroke="url(#paint52_linear_144_685)" stroke-width="4"/>
<path opacity="0.782609" d="M240.967 -152.27C234.245 -151.47 227.672 -145.93 223.651 -137.65L87.047 143.5C83.6971 150.39 82.4941 158.42 83.7551 165.46L143.052 496.54C144.199 502.94 147.286 507.97 151.63 510.52L363.301 634.67C368.712 637.84 375.442 636.8 381.268 631.88L582.488 462.04C588.314 457.12 592.48 448.97 593.61 440.28L637.822 100.15C638.729 93.1698 637.592 86.4898 634.663 81.5898L483.187 -171.68C479.966 -177.07 474.887 -179.79 469.288 -179.13L240.967 -152.27Z" stroke="url(#paint53_linear_144_685)" stroke-width="4"/>
<path opacity="0.797101" d="M235.36 -154.88C228.452 -154.53 221.425 -149.18 216.959 -140.87L72.1061 128.62C68.5026 135.33 66.9719 143.21 67.9115 150.23L112.514 483.47C113.355 489.76 116.11 494.82 120.195 497.6L322.356 634.89C327.635 638.47 334.511 637.81 340.657 633.13L543.803 478.37C549.949 473.69 554.546 465.61 556.04 456.86L613.214 122.01C614.369 115.24 613.557 108.7 610.95 103.75L472.781 -158.2C469.87 -163.72 464.995 -166.72 459.421 -166.44L235.36 -154.88Z" stroke="url(#paint54_linear_144_685)" stroke-width="4"/>
<path opacity="0.811594" d="M229.505 -156.02C222.423 -156.13 214.936 -151.02 210.015 -142.71L57.6195 114.47C53.7725 120.96 51.9285 128.68 52.559 135.66L82.743 469.83C83.2995 475.99 85.7409 481.08 89.5715 484.06L281.956 633.71C287.089 637.7 294.1 637.44 300.564 633.03L504.955 493.47C511.42 489.06 516.45 481.09 518.307 472.32L587.897 143.8C589.283 137.26 588.773 130.85 586.471 125.88L461.623 -143.65C459.015 -149.28 454.347 -152.56 448.811 -152.64L229.505 -156.02Z" stroke="url(#paint55_linear_144_685)" stroke-width="4"/>
<path opacity="0.826087" d="M223.368 -155.69C216.131 -156.29 208.183 -151.47 202.801 -143.22L43.5791 101.06C39.4992 107.32 37.3564 114.86 37.6901 121.78L53.7842 455.69C54.0747 461.72 56.2205 466.81 59.804 469.98L242.186 631.18C247.157 635.57 254.291 635.74 261.067 631.63L466.041 507.33C472.817 503.22 478.28 495.41 480.499 486.65L561.921 165.47C563.521 159.16 563.292 152.91 561.278 147.93L449.717 -128.09C447.405 -133.81 442.944 -137.35 437.458 -137.81L223.368 -155.69Z" stroke="url(#paint56_linear_144_685)" stroke-width="4"/>
<path opacity="0.84058" d="M216.849 -153.92C209.479 -155.05 201.075 -150.58 195.23 -142.42L29.9068 88.4199C25.6052 94.4299 23.1782 101.77 23.2273 108.62L25.6084 441.1C25.6506 446.98 27.5184 452.07 30.8626 455.41L203.054 627.35C207.85 632.13 215.091 632.76 222.167 628.99L427.083 519.94C434.158 516.18 440.048 508.56 442.628 499.85L535.263 186.98C537.062 180.9 537.094 174.81 535.353 169.82L436.996 -111.58C434.969 -117.38 430.717 -121.16 425.294 -121.99L216.849 -153.92Z" stroke="url(#paint57_linear_144_685)" stroke-width="4"/>
<path opacity="0.855072" d="M209.912 -150.76C202.437 -152.44 193.59 -148.37 187.286 -140.36L16.589 76.5897C12.0774 82.3297 9.38053 89.4497 9.15676 96.2197L-1.75052 426.11C-1.94042 431.86 -0.334104 436.94 2.77963 440.44L164.634 622.28C169.239 627.45 176.567 628.55 183.927 625.16L388.168 531.31C395.529 527.92 401.835 520.56 404.771 511.92L507.969 208.28C509.955 202.44 510.229 196.5 508.744 191.52L423.462 -94.1703C421.712 -100.03 417.668 -104.06 412.319 -105.26L209.912 -150.76Z" stroke="url(#paint58_linear_144_685)" stroke-width="4"/>
<path opacity="0.869565" d="M202.492 -146.23C194.942 -148.49 185.677 -144.89 178.924 -137.09L3.57728 65.5896C-1.13229 71.0296 -4.08517 77.9196 -4.57087 84.5996L-28.2963 410.8C-28.7039 416.41 -27.3436 421.47 -24.4514 425.12L126.958 616.02C131.359 621.57 138.751 623.17 146.375 620.21L349.354 541.43C356.977 538.47 363.685 531.41 366.972 522.88L480.054 229.32C482.214 223.71 482.716 217.93 481.472 212.96L409.085 -75.9403C407.603 -81.8503 403.769 -86.1104 398.504 -87.6804L202.492 -146.23Z" stroke="url(#paint59_linear_144_685)" stroke-width="4"/>
<path opacity="0.884058" d="M194.524 -140.4C186.936 -143.24 177.289 -140.18 170.103 -132.64L-9.17424 55.4298C-14.0695 60.5598 -17.2652 67.2098 -18.0028 73.7898L-54.0324 395.22C-54.6454 400.69 -53.5171 405.74 -50.8373 409.53L90.0581 608.66C94.2404 614.57 101.669 616.67 109.529 614.18L310.693 550.33C318.552 547.83 325.64 541.12 329.269 532.72L451.532 250.06C453.858 244.69 454.572 239.05 453.556 234.1L393.841 -56.9402C392.618 -62.9002 388.992 -67.3802 383.823 -69.3202L194.524 -140.4Z" stroke="url(#paint60_linear_144_685)" stroke-width="4"/>
<path opacity="0.898551" d="M185.96 -133.3C178.376 -136.76 168.393 -134.29 160.8 -127.09L-21.7012 46.1296C-26.7697 50.9396 -30.1962 57.3297 -31.1766 63.8097L-78.9549 379.42C-79.7631 384.76 -78.8545 389.81 -76.3779 393.73L53.9736 600.24C57.9244 606.5 65.3574 609.14 73.42 607.15L272.251 558.01C280.313 556.01 287.753 549.7 291.715 541.48L422.432 270.46C424.915 265.31 425.832 259.81 425.032 254.87L377.718 -37.2403C376.747 -43.2403 373.329 -47.9404 368.266 -50.2504L185.96 -133.3Z" stroke="url(#paint61_linear_144_685)" stroke-width="4"/>
<path opacity="0.913043" d="M176.737 -125.02C169.201 -129.08 158.942 -127.27 150.977 -120.46L-34.0586 37.6999C-39.2878 42.1699 -42.9337 48.3 -44.1495 54.67L-103.082 363.49C-104.077 368.7 -103.378 373.74 -101.096 377.8L18.7193 590.84C22.4258 597.43 29.8263 600.62 38.0521 599.16L234.072 564.5C242.298 563.05 250.056 557.18 254.338 549.18L392.763 290.47C395.4 285.54 396.509 280.18 395.914 275.25L360.69 -16.9201C359.963 -22.9501 356.753 -27.8701 351.806 -30.5401L176.737 -125.02Z" stroke="url(#paint62_linear_144_685)" stroke-width="4"/>
<path opacity="0.927536" d="M166.827 -115.61C159.387 -120.28 148.925 -119.17 140.63 -112.83L-46.2665 30.1497C-51.6435 34.2597 -55.4989 40.1197 -56.944 46.3897L-126.399 347.46C-127.577 352.56 -127.078 357.61 -124.982 361.8L-15.6591 580.54C-12.2089 587.45 -4.88147 591.18 3.46129 590.3L196.233 569.84C204.575 568.95 212.61 563.58 217.198 555.83L362.571 310.05C365.358 305.34 366.654 300.11 366.256 295.17L342.765 3.95962C342.276 -2.10038 339.275 -7.23035 334.452 -10.2604L166.827 -115.61Z" stroke="url(#paint63_linear_144_685)" stroke-width="4"/>
<path opacity="0.942029" d="M156.174 -105.14C148.881 -110.41 138.301 -110.05 129.728 -104.23L-58.3791 23.4799C-63.8911 27.2199 -67.9472 32.8099 -69.6171 38.9699L-148.932 331.41C-150.288 336.41 -149.984 341.47 -148.067 345.8L-49.1547 569.41C-45.9719 576.61 -38.7618 580.9 -30.3541 580.61L158.77 574.06C167.177 573.76 175.441 568.93 180.318 561.46L331.866 329.17C334.802 324.67 336.281 319.55 336.074 314.6L323.921 25.3299C323.666 19.2399 320.873 13.89 316.184 10.5L156.174 -105.14Z" stroke="url(#paint64_linear_144_685)" stroke-width="4"/>
<path opacity="0.956522" d="M144.748 -93.7101C137.654 -99.5501 127.049 -99.9602 118.258 -94.7202L-70.433 17.6998C-76.0667 21.0598 -80.3157 26.3699 -82.2075 32.4199L-170.685 315.4C-172.219 320.31 -172.106 325.39 -170.362 329.87L-81.7472 557.53C-78.842 565 -71.7962 569.84 -63.3804 570.16L121.737 577.2C130.152 577.52 138.592 573.26 143.738 566.11L300.679 347.79C303.767 343.49 305.428 338.47 305.407 333.51L304.159 47.1198C304.133 40.9898 301.551 35.4199 297.005 31.6799L144.748 -93.7101Z" stroke="url(#paint65_linear_144_685)" stroke-width="4"/>
<path opacity="0.971014" d="M132.521 -81.39C125.679 -87.77 115.148 -88.9499 106.208 -84.3499L-82.4655 12.8101C-88.2072 15.7701 -92.6425 20.8 -94.7551 26.74L-191.672 299.48C-193.387 304.31 -193.462 309.44 -191.887 314.07L-113.422 544.98C-110.803 552.69 -103.97 558.07 -95.6069 559.01L85.178 579.32C93.5414 580.26 102.1 576.61 107.492 569.8L269.039 365.87C272.282 361.77 274.128 356.84 274.29 351.84L283.478 69.24C283.679 63.08 281.31 57.29 276.916 53.2L132.521 -81.39Z" stroke="url(#paint66_linear_144_685)" stroke-width="4"/>
<path opacity="0.985507" d="M119.474 -68.2604C112.932 -75.1304 102.58 -77.0804 93.5631 -73.1604L-94.5122 8.80966C-100.347 11.3497 -104.963 16.0897 -107.297 21.9297L-211.906 283.73C-213.806 288.48 -214.072 293.66 -212.662 298.47L-144.168 531.84C-141.843 539.76 -135.271 545.65 -127.022 547.21L49.1339 580.47C57.3827 582.03 65.9981 579 71.6118 572.58L236.976 383.37C240.38 379.48 242.415 374.63 242.762 369.58L261.882 91.6396C262.308 85.4396 260.157 79.4196 255.924 74.9796L119.474 -68.2604Z" stroke="url(#paint67_linear_144_685)" stroke-width="4"/>
<path d="M105.592 -54.42C99.3955 -61.72 89.3237 -64.4199 80.307 -61.1899L-106.612 5.6801C-112.525 7.7901 -117.316 12.23 -119.872 17.97L-231.406 268.18C-233.498 272.88 -233.958 278.14 -232.712 283.12L-173.98 518.18C-171.955 526.29 -165.691 532.66 -157.619 534.82L13.6343 580.71C21.7061 582.87 30.316 580.49 36.124 574.48L204.519 400.28C208.091 396.58 210.322 391.8 210.857 386.69L239.372 114.23C240.026 107.98 238.098 101.74 234.035 96.95L105.592 -54.42Z" stroke="url(#paint68_linear_144_685)" stroke-width="4"/>
</g>
</g>
<defs>
<filter id="filter0_ddiiii_144_685" x="-5" y="-5" width="1930" height="750" filterUnits="userSpaceOnUse" color-interpolation-filters="sRGB">
<feFlood flood-opacity="0" result="BackgroundImageFix"/>
<feColorMatrix in="SourceAlpha" type="matrix" values="0 0 0 0 0 0 0 0 0 0 0 0 0 0 0 0 0 0 127 0" result="hardAlpha"/>
<feOffset dx="-1" dy="-1"/>
<feGaussianBlur stdDeviation="1"/>
<feColorMatrix type="matrix" values="0 0 0 0 0.886275 0 0 0 0 0.886275 0 0 0 0 0.886275 0 0 0 0.5 0"/>
<feBlend mode="normal" in2="BackgroundImageFix" result="effect1_dropShadow_144_685"/>
<feColorMatrix in="SourceAlpha" type="matrix" values="0 0 0 0 0 0 0 0 0 0 0 0 0 0 0 0 0 0 127 0" result="hardAlpha"/>
<feOffset dx="1" dy="1"/>
<feGaussianBlur stdDeviation="1"/>
<feColorMatrix type="matrix" values="0 0 0 0 1 0 0 0 0 1 0 0 0 0 1 0 0 0 0.3 0"/>
<feBlend mode="normal" in2="effect1_dropShadow_144_685" result="effect2_dropShadow_144_685"/>
<feBlend mode="normal" in="SourceGraphic" in2="effect2_dropShadow_144_685" result="shape"/>
<feColorMatrix in="SourceAlpha" type="matrix" values="0 0 0 0 0 0 0 0 0 0 0 0 0 0 0 0 0 0 127 0" result="hardAlpha"/>
<feOffset dx="5" dy="5"/>
<feGaussianBlur stdDeviation="6.5"/>
<feComposite in2="hardAlpha" operator="arithmetic" k2="-1" k3="1"/>
<feColorMatrix type="matrix" values="0 0 0 0 0.886275 0 0 0 0 0.886275 0 0 0 0 0.886275 0 0 0 0.9 0"/>
<feBlend mode="normal" in2="shape" result="effect3_innerShadow_144_685"/>
<feColorMatrix in="SourceAlpha" type="matrix" values="0 0 0 0 0 0 0 0 0 0 0 0 0 0 0 0 0 0 127 0" result="hardAlpha"/>
<feOffset dx="-5" dy="-5"/>
<feGaussianBlur stdDeviation="5"/>
<feComposite in2="hardAlpha" operator="arithmetic" k2="-1" k3="1"/>
<feColorMatrix type="matrix" values="0 0 0 0 1 0 0 0 0 1 0 0 0 0 1 0 0 0 0.9 0"/>
<feBlend mode="normal" in2="effect3_innerShadow_144_685" result="effect4_innerShadow_144_685"/>
<feColorMatrix in="SourceAlpha" type="matrix" values="0 0 0 0 0 0 0 0 0 0 0 0 0 0 0 0 0 0 127 0" result="hardAlpha"/>
<feOffset dx="5" dy="-5"/>
<feGaussianBlur stdDeviation="5"/>
<feComposite in2="hardAlpha" operator="arithmetic" k2="-1" k3="1"/>
<feColorMatrix type="matrix" values="0 0 0 0 0.886275 0 0 0 0 0.886275 0 0 0 0 0.886275 0 0 0 0.2 0"/>
<feBlend mode="normal" in2="effect4_innerShadow_144_685" result="effect5_innerShadow_144_685"/>
<feColorMatrix in="SourceAlpha" type="matrix" values="0 0 0 0 0 0 0 0 0 0 0 0 0 0 0 0 0 0 127 0" result="hardAlpha"/>
<feOffset dx="-5" dy="5"/>
<feGaussianBlur stdDeviation="5"/>
<feComposite in2="hardAlpha" operator="arithmetic" k2="-1" k3="1"/>
<feColorMatrix type="matrix" values="0 0 0 0 0.886275 0 0 0 0 0.886275 0 0 0 0 0.886275 0 0 0 0.2 0"/>
<feBlend mode="normal" in2="effect5_innerShadow_144_685" result="effect6_innerShadow_144_685"/>
</filter>
<linearGradient id="paint0_linear_144_685" x1="1649.36" y1="873.13" x2="1153.72" y2="-688.298" gradientUnits="userSpaceOnUse">
<stop stop-color="white" stop-opacity="0.9"/>
<stop offset="1" stop-color="#004AAD"/>
</linearGradient>
<linearGradient id="paint1_linear_144_685" x1="1593.41" y1="877.98" x2="1197.15" y2="-725.433" gradientUnits="userSpaceOnUse">
<stop stop-color="white" stop-opacity="0.9"/>
<stop offset="1" stop-color="#004AAD"/>
</linearGradient>
<linearGradient id="paint2_linear_144_685" x1="1538.02" y1="880.45" x2="1248.47" y2="-756.952" gradientUnits="userSpaceOnUse">
<stop stop-color="white" stop-opacity="0.9"/>
<stop offset="1" stop-color="#004AAD"/>
</linearGradient>
<linearGradient id="paint3_linear_144_685" x1="1483.3" y1="880.56" x2="1306.92" y2="-781.149" gradientUnits="userSpaceOnUse">
<stop stop-color="white" stop-opacity="0.9"/>
<stop offset="1" stop-color="#004AAD"/>
</linearGradient>
<linearGradient id="paint4_linear_144_685" x1="1429.31" y1="878.38" x2="1371.27" y2="-796.419" gradientUnits="userSpaceOnUse">
<stop stop-color="white" stop-opacity="0.9"/>
<stop offset="1" stop-color="#004AAD"/>
</linearGradient>
<linearGradient id="paint5_linear_144_685" x1="1376.15" y1="873.95" x2="1439.86" y2="-801.391" gradientUnits="userSpaceOnUse">
<stop stop-color="white" stop-opacity="0.9"/>
<stop offset="1" stop-color="#004AAD"/>
</linearGradient>
<linearGradient id="paint6_linear_144_685" x1="1323.87" y1="867.34" x2="1510.68" y2="-795.069" gradientUnits="userSpaceOnUse">
<stop stop-color="white" stop-opacity="0.9"/>
<stop offset="1" stop-color="#004AAD"/>
</linearGradient>
<linearGradient id="paint7_linear_144_685" x1="1272.57" y1="858.62" x2="1581.41" y2="-776.948" gradientUnits="userSpaceOnUse">
<stop stop-color="white" stop-opacity="0.9"/>
<stop offset="1" stop-color="#004AAD"/>
</linearGradient>
<linearGradient id="paint8_linear_144_685" x1="1222.3" y1="847.86" x2="1649.66" y2="-747.099" gradientUnits="userSpaceOnUse">
<stop stop-color="white" stop-opacity="0.9"/>
<stop offset="1" stop-color="#004AAD"/>
</linearGradient>
<linearGradient id="paint9_linear_144_685" x1="1173.12" y1="835.13" x2="1713.09" y2="-706.185" gradientUnits="userSpaceOnUse">
<stop stop-color="white" stop-opacity="0.9"/>
<stop offset="1" stop-color="#004AAD"/>
</linearGradient>
<linearGradient id="paint10_linear_144_685" x1="1125.1" y1="820.51" x2="1769.57" y2="-655.427" gradientUnits="userSpaceOnUse">
<stop stop-color="white" stop-opacity="0.9"/>
<stop offset="1" stop-color="#004AAD"/>
</linearGradient>
<linearGradient id="paint11_linear_144_685" x1="1078.29" y1="804.11" x2="1817.43" y2="-596.493" gradientUnits="userSpaceOnUse">
<stop stop-color="white" stop-opacity="0.9"/>
<stop offset="1" stop-color="#004AAD"/>
</linearGradient>
<linearGradient id="paint12_linear_144_685" x1="1032.73" y1="786" x2="1855.43" y2="-531.357" gradientUnits="userSpaceOnUse">
<stop stop-color="white" stop-opacity="0.9"/>
<stop offset="1" stop-color="#004AAD"/>
</linearGradient>
<linearGradient id="paint13_linear_144_685" x1="988.482" y1="766.29" x2="1882.91" y2="-462.131" gradientUnits="userSpaceOnUse">
<stop stop-color="white" stop-opacity="0.9"/>
<stop offset="1" stop-color="#004AAD"/>
</linearGradient>
<linearGradient id="paint14_linear_144_685" x1="945.565" y1="745.07" x2="1899.72" y2="-390.905" gradientUnits="userSpaceOnUse">
<stop stop-color="white" stop-opacity="0.9"/>
<stop offset="1" stop-color="#004AAD"/>
</linearGradient>
<linearGradient id="paint15_linear_144_685" x1="904.03" y1="722.45" x2="1906.19" y2="-319.61" gradientUnits="userSpaceOnUse">
<stop stop-color="white" stop-opacity="0.9"/>
<stop offset="1" stop-color="#004AAD"/>
</linearGradient>
<linearGradient id="paint16_linear_144_685" x1="863.897" y1="698.53" x2="1902.99" y2="-249.93" gradientUnits="userSpaceOnUse">
<stop stop-color="white" stop-opacity="0.9"/>
<stop offset="1" stop-color="#004AAD"/>
</linearGradient>
<linearGradient id="paint17_linear_144_685" x1="825.201" y1="673.42" x2="1891.08" y2="-183.23" gradientUnits="userSpaceOnUse">
<stop stop-color="white" stop-opacity="0.9"/>
<stop offset="1" stop-color="#004AAD"/>
</linearGradient>
<linearGradient id="paint18_linear_144_685" x1="787.95" y1="647.23" x2="1871.56" y2="-120.55" gradientUnits="userSpaceOnUse">
<stop stop-color="white" stop-opacity="0.9"/>
<stop offset="1" stop-color="#004AAD"/>
</linearGradient>
<linearGradient id="paint19_linear_144_685" x1="752.166" y1="620.07" x2="1845.61" y2="-62.63" gradientUnits="userSpaceOnUse">
<stop stop-color="white" stop-opacity="0.9"/>
<stop offset="1" stop-color="#004AAD"/>
</linearGradient>
<linearGradient id="paint20_linear_144_685" x1="717.853" y1="592.06" x2="1814.39" y2="-9.91998" gradientUnits="userSpaceOnUse">
<stop stop-color="white" stop-opacity="0.9"/>
<stop offset="1" stop-color="#004AAD"/>
</linearGradient>
<linearGradient id="paint21_linear_144_685" x1="685.017" y1="563.3" x2="1779.02" y2="37.4" gradientUnits="userSpaceOnUse">
<stop stop-color="white" stop-opacity="0.9"/>
<stop offset="1" stop-color="#004AAD"/>
</linearGradient>
<linearGradient id="paint22_linear_144_685" x1="653.66" y1="533.92" x2="1740.51" y2="79.2997" gradientUnits="userSpaceOnUse">
<stop stop-color="white" stop-opacity="0.9"/>
<stop offset="1" stop-color="#004AAD"/>
</linearGradient>
<linearGradient id="paint23_linear_144_685" x1="623.78" y1="504.03" x2="1699.77" y2="115.93" gradientUnits="userSpaceOnUse">
<stop stop-color="white" stop-opacity="0.9"/>
<stop offset="1" stop-color="#004AAD"/>
</linearGradient>
<linearGradient id="paint24_linear_144_685" x1="595.355" y1="473.74" x2="1657.58" y2="147.55" gradientUnits="userSpaceOnUse">
<stop stop-color="white" stop-opacity="0.9"/>
<stop offset="1" stop-color="#004AAD"/>
</linearGradient>
<linearGradient id="paint25_linear_144_685" x1="568.381" y1="443.16" x2="1614.61" y2="174.49" gradientUnits="userSpaceOnUse">
<stop stop-color="white" stop-opacity="0.9"/>
<stop offset="1" stop-color="#004AAD"/>
</linearGradient>
<linearGradient id="paint26_linear_144_685" x1="542.834" y1="412.41" x2="1571.42" y2="197.14" gradientUnits="userSpaceOnUse">
<stop stop-color="white" stop-opacity="0.9"/>
<stop offset="1" stop-color="#004AAD"/>
</linearGradient>
<linearGradient id="paint27_linear_144_685" x1="518.7" y1="381.6" x2="1528.45" y2="215.9" gradientUnits="userSpaceOnUse">
<stop stop-color="white" stop-opacity="0.9"/>
<stop offset="1" stop-color="#004AAD"/>
</linearGradient>
<linearGradient id="paint28_linear_144_685" x1="495.934" y1="350.84" x2="1486.08" y2="231.21" gradientUnits="userSpaceOnUse">
<stop stop-color="white" stop-opacity="0.9"/>
<stop offset="1" stop-color="#004AAD"/>
</linearGradient>
<linearGradient id="paint29_linear_144_685" x1="474.518" y1="320.23" x2="1444.57" y2="243.49" gradientUnits="userSpaceOnUse">
<stop stop-color="white" stop-opacity="0.9"/>
<stop offset="1" stop-color="#004AAD"/>
</linearGradient>
<linearGradient id="paint30_linear_144_685" x1="454.407" y1="289.89" x2="1404.15" y2="253.16" gradientUnits="userSpaceOnUse">
<stop stop-color="white" stop-opacity="0.9"/>
<stop offset="1" stop-color="#004AAD"/>
</linearGradient>
<linearGradient id="paint31_linear_144_685" x1="435.577" y1="259.9" x2="1364.98" y2="260.61" gradientUnits="userSpaceOnUse">
<stop stop-color="white" stop-opacity="0.9"/>
<stop offset="1" stop-color="#004AAD"/>
</linearGradient>
<linearGradient id="paint32_linear_144_685" x1="417.965" y1="230.38" x2="1327.13" y2="266.24" gradientUnits="userSpaceOnUse">
<stop stop-color="white" stop-opacity="0.9"/>
<stop offset="1" stop-color="#004AAD"/>
</linearGradient>
<linearGradient id="paint33_linear_144_685" x1="401.534" y1="201.41" x2="1290.67" y2="270.41" gradientUnits="userSpaceOnUse">
<stop stop-color="white" stop-opacity="0.9"/>
<stop offset="1" stop-color="#004AAD"/>
</linearGradient>
<linearGradient id="paint34_linear_144_685" x1="386.245" y1="173.09" x2="1255.63" y2="273.47" gradientUnits="userSpaceOnUse">
<stop stop-color="white" stop-opacity="0.9"/>
<stop offset="1" stop-color="#004AAD"/>
</linearGradient>
<linearGradient id="paint35_linear_144_685" x1="372.026" y1="145.51" x2="1221.99" y2="275.73" gradientUnits="userSpaceOnUse">
<stop stop-color="white" stop-opacity="0.9"/>
<stop offset="1" stop-color="#004AAD"/>
</linearGradient>
<linearGradient id="paint36_linear_144_685" x1="358.825" y1="118.75" x2="1189.72" y2="277.5" gradientUnits="userSpaceOnUse">
<stop stop-color="white" stop-opacity="0.9"/>
<stop offset="1" stop-color="#004AAD"/>
</linearGradient>
<linearGradient id="paint37_linear_144_685" x1="346.603" y1="92.8797" x2="1158.74" y2="279.06" gradientUnits="userSpaceOnUse">
<stop stop-color="white" stop-opacity="0.9"/>
<stop offset="1" stop-color="#004AAD"/>
</linearGradient>
<linearGradient id="paint38_linear_144_685" x1="335.278" y1="67.9996" x2="1128.98" y2="280.67" gradientUnits="userSpaceOnUse">
<stop stop-color="white" stop-opacity="0.9"/>
<stop offset="1" stop-color="#004AAD"/>
</linearGradient>
<linearGradient id="paint39_linear_144_685" x1="324.799" y1="44.1498" x2="1100.35" y2="282.57" gradientUnits="userSpaceOnUse">
<stop stop-color="white" stop-opacity="0.9"/>
<stop offset="1" stop-color="#004AAD"/>
</linearGradient>
<linearGradient id="paint40_linear_144_685" x1="315.101" y1="21.4198" x2="1072.7" y2="285" gradientUnits="userSpaceOnUse">
<stop stop-color="white" stop-opacity="0.9"/>
<stop offset="1" stop-color="#004AAD"/>
</linearGradient>
<linearGradient id="paint41_linear_144_685" x1="306.111" y1="-0.140076" x2="1045.92" y2="288.14" gradientUnits="userSpaceOnUse">
<stop stop-color="white" stop-opacity="0.9"/>
<stop offset="1" stop-color="#004AAD"/>
</linearGradient>
<linearGradient id="paint42_linear_144_685" x1="297.781" y1="-20.4801" x2="1019.86" y2="292.2" gradientUnits="userSpaceOnUse">
<stop stop-color="white" stop-opacity="0.9"/>
<stop offset="1" stop-color="#004AAD"/>
</linearGradient>
<linearGradient id="paint43_linear_144_685" x1="290.024" y1="-39.5404" x2="994.349" y2="297.35" gradientUnits="userSpaceOnUse">
<stop stop-color="white" stop-opacity="0.9"/>
<stop offset="1" stop-color="#004AAD"/>
</linearGradient>
<linearGradient id="paint44_linear_144_685" x1="282.782" y1="-57.2904" x2="969.208" y2="303.72" gradientUnits="userSpaceOnUse">
<stop stop-color="white" stop-opacity="0.9"/>
<stop offset="1" stop-color="#004AAD"/>
</linearGradient>
<linearGradient id="paint45_linear_144_685" x1="275.985" y1="-73.6704" x2="944.244" y2="311.47" gradientUnits="userSpaceOnUse">
<stop stop-color="white" stop-opacity="0.9"/>
<stop offset="1" stop-color="#004AAD"/>
</linearGradient>
<linearGradient id="paint46_linear_144_685" x1="269.554" y1="-88.6702" x2="919.235" y2="320.69" gradientUnits="userSpaceOnUse">
<stop stop-color="white" stop-opacity="0.9"/>
<stop offset="1" stop-color="#004AAD"/>
</linearGradient>
<linearGradient id="paint47_linear_144_685" x1="263.432" y1="-102.25" x2="893.967" y2="331.48" gradientUnits="userSpaceOnUse">
<stop stop-color="white" stop-opacity="0.9"/>
<stop offset="1" stop-color="#004AAD"/>
</linearGradient>
<linearGradient id="paint48_linear_144_685" x1="257.558" y1="-114.39" x2="868.203" y2="343.91" gradientUnits="userSpaceOnUse">
<stop stop-color="white" stop-opacity="0.9"/>
<stop offset="1" stop-color="#004AAD"/>
</linearGradient>
<linearGradient id="paint49_linear_144_685" x1="251.844" y1="-125.08" x2="841.661" y2="358.01" gradientUnits="userSpaceOnUse">
<stop stop-color="white" stop-opacity="0.9"/>
<stop offset="1" stop-color="#004AAD"/>
</linearGradient>
<linearGradient id="paint50_linear_144_685" x1="246.233" y1="-134.3" x2="814.074" y2="373.79" gradientUnits="userSpaceOnUse">
<stop stop-color="white" stop-opacity="0.9"/>
<stop offset="1" stop-color="#004AAD"/>
</linearGradient>
<linearGradient id="paint51_linear_144_685" x1="240.658" y1="-142.05" x2="785.147" y2="391.2" gradientUnits="userSpaceOnUse">
<stop stop-color="white" stop-opacity="0.9"/>
<stop offset="1" stop-color="#004AAD"/>
</linearGradient>
<linearGradient id="paint52_linear_144_685" x1="235.056" y1="-148.33" x2="754.573" y2="410.16" gradientUnits="userSpaceOnUse">
<stop stop-color="white" stop-opacity="0.9"/>
<stop offset="1" stop-color="#004AAD"/>
</linearGradient>
<linearGradient id="paint53_linear_144_685" x1="229.353" y1="-153.15" x2="722.027" y2="430.55" gradientUnits="userSpaceOnUse">
<stop stop-color="white" stop-opacity="0.9"/>
<stop offset="1" stop-color="#004AAD"/>
</linearGradient>
<linearGradient id="paint54_linear_144_685" x1="223.505" y1="-156.52" x2="687.205" y2="452.16" gradientUnits="userSpaceOnUse">
<stop stop-color="white" stop-opacity="0.9"/>
<stop offset="1" stop-color="#004AAD"/>
</linearGradient>
<linearGradient id="paint55_linear_144_685" x1="217.426" y1="-158.45" x2="649.768" y2="474.73" gradientUnits="userSpaceOnUse">
<stop stop-color="white" stop-opacity="0.9"/>
<stop offset="1" stop-color="#004AAD"/>
</linearGradient>
<linearGradient id="paint56_linear_144_685" x1="211.092" y1="-158.97" x2="609.455" y2="497.92" gradientUnits="userSpaceOnUse">
<stop stop-color="white" stop-opacity="0.9"/>
<stop offset="1" stop-color="#004AAD"/>
</linearGradient>
<linearGradient id="paint57_linear_144_685" x1="204.41" y1="-158.1" x2="565.969" y2="521.29" gradientUnits="userSpaceOnUse">
<stop stop-color="white" stop-opacity="0.9"/>
<stop offset="1" stop-color="#004AAD"/>
</linearGradient>
<linearGradient id="paint58_linear_144_685" x1="197.352" y1="-155.88" x2="519.136" y2="544.35" gradientUnits="userSpaceOnUse">
<stop stop-color="white" stop-opacity="0.9"/>
<stop offset="1" stop-color="#004AAD"/>
</linearGradient>
<linearGradient id="paint59_linear_144_685" x1="189.863" y1="-152.34" x2="468.834" y2="566.48" gradientUnits="userSpaceOnUse">
<stop stop-color="white" stop-opacity="0.9"/>
<stop offset="1" stop-color="#004AAD"/>
</linearGradient>
<linearGradient id="paint60_linear_144_685" x1="181.888" y1="-147.51" x2="415.052" y2="587.04" gradientUnits="userSpaceOnUse">
<stop stop-color="white" stop-opacity="0.9"/>
<stop offset="1" stop-color="#004AAD"/>
</linearGradient>
<linearGradient id="paint61_linear_144_685" x1="173.389" y1="-141.45" x2="357.933" y2="605.29" gradientUnits="userSpaceOnUse">
<stop stop-color="white" stop-opacity="0.9"/>
<stop offset="1" stop-color="#004AAD"/>
</linearGradient>
<linearGradient id="paint62_linear_144_685" x1="164.309" y1="-134.21" x2="297.767" y2="620.5" gradientUnits="userSpaceOnUse">
<stop stop-color="white" stop-opacity="0.9"/>
<stop offset="1" stop-color="#004AAD"/>
</linearGradient>
<linearGradient id="paint63_linear_144_685" x1="154.629" y1="-125.82" x2="235.062" y2="631.97" gradientUnits="userSpaceOnUse">
<stop stop-color="white" stop-opacity="0.9"/>
<stop offset="1" stop-color="#004AAD"/>
</linearGradient>
<linearGradient id="paint64_linear_144_685" x1="144.298" y1="-116.36" x2="170.479" y2="639.06" gradientUnits="userSpaceOnUse">
<stop stop-color="white" stop-opacity="0.9"/>
<stop offset="1" stop-color="#004AAD"/>
</linearGradient>
<linearGradient id="paint65_linear_144_685" x1="133.289" y1="-105.87" x2="104.872" y2="641.3" gradientUnits="userSpaceOnUse">
<stop stop-color="white" stop-opacity="0.9"/>
<stop offset="1" stop-color="#004AAD"/>
</linearGradient>
<linearGradient id="paint66_linear_144_685" x1="121.572" y1="-94.4199" x2="39.2266" y2="638.4" gradientUnits="userSpaceOnUse">
<stop stop-color="white" stop-opacity="0.9"/>
<stop offset="1" stop-color="#004AAD"/>
</linearGradient>
<linearGradient id="paint67_linear_144_685" x1="109.125" y1="-82.0804" x2="-25.3946" y2="630.31" gradientUnits="userSpaceOnUse">
<stop stop-color="white" stop-opacity="0.9"/>
<stop offset="1" stop-color="#004AAD"/>
</linearGradient>
<linearGradient id="paint68_linear_144_685" x1="95.9229" y1="-68.8999" x2="-87.9299" y2="617.25" gradientUnits="userSpaceOnUse">
<stop stop-color="white" stop-opacity="0.9"/>
<stop offset="1" stop-color="#004AAD"/>
</linearGradient>
<clipPath id="clip0_144_685">
<rect width="1920" height="740" fill="white"/>
</clipPath>
</defs>
</svg>
