<svg width="1920" height="740" viewBox="0 0 1920 740" fill="none" xmlns="http://www.w3.org/2000/svg">
<g clip-path="url(#clip0_144_614)">
<path d="M1920 0H0V740H1920V0Z" fill="#004293"/>
<g opacity="0.3">
<path opacity="0.0144928" d="M1897.2 1590.44L2171.61 1214.42C2175.18 1209.54 2177.34 1203.84 2177.72 1198.31L2225.96 497.71C2226.23 493.77 2225.59 490.07 2224.09 486.95L1998.48 18.3908C1994.81 10.7518 1986.54 7.60882 1977.59 10.4478L1667.77 108.793C1658.82 111.633 1651 119.886 1647.99 129.646L1463.66 728.33C1462.44 732.31 1462.09 736.33 1462.65 740L1563.26 1393.36C1564.05 1398.51 1566.6 1402.72 1570.45 1405.25L1866.94 1600.05C1875.74 1605.83 1889.06 1601.6 1897.2 1590.44Z" stroke="url(#paint0_linear_144_614)" stroke-width="4"/>
<path opacity="0.0289855" d="M1842.42 1595.63L2126.33 1240.05C2130.02 1235.43 2132.35 1229.95 2132.93 1224.54L2207.59 527.44C2208 523.62 2207.52 519.97 2206.19 516.81L2002.51 32.489C1999.16 24.52 1990.92 20.771 1981.74 23.039L1674.25 99.032C1665.07 101.3 1656.82 109.123 1653.46 118.752L1448.96 703.94C1447.63 707.76 1447.14 711.65 1447.55 715.28L1521.17 1375.73C1521.74 1380.85 1524.06 1385.18 1527.74 1387.98L1811.22 1603.34C1819.89 1609.93 1833.74 1606.51 1842.42 1595.63Z" stroke="url(#paint1_linear_144_614)" stroke-width="4"/>
<path opacity="0.0434783" d="M1788.17 1598.59L2080.59 1264.14C2084.38 1259.8 2086.87 1254.54 2087.64 1249.24L2188.06 557.68C2188.6 553.96 2188.28 550.35 2187.11 547.15L2005.55 48.6768C2002.53 40.3978 1994.36 36.0298 1984.99 37.6868L1680.6 91.5128C1671.23 93.1698 1662.6 100.51 1658.88 109.979L1435.17 680.12C1433.73 683.78 1433.11 687.56 1433.37 691.14L1480.25 1356.64C1480.61 1361.75 1482.72 1366.19 1486.22 1369.24L1756.17 1604.25C1764.66 1611.64 1778.98 1609.11 1788.17 1598.59Z" stroke="url(#paint2_linear_144_614)" stroke-width="4"/>
<path opacity="0.057971" d="M1734.51 1599.38L2034.45 1286.66C2038.35 1282.6 2040.99 1277.56 2041.94 1272.36L2167.38 588.33C2168.04 584.71 2167.86 581.14 2166.86 577.9L2007.53 66.8789C2004.86 58.3149 1996.8 53.3159 1987.28 54.3249L1686.74 86.2259C1677.23 87.2349 1668.25 94.0429 1664.19 103.322L1422.24 656.94C1420.71 660.44 1419.97 664.11 1420.08 667.65L1440.55 1336.19C1440.7 1341.27 1442.6 1345.83 1445.93 1349.13L1701.91 1602.84C1710.16 1611.02 1724.84 1609.46 1734.51 1599.38Z" stroke="url(#paint3_linear_144_614)" stroke-width="4"/>
<path opacity="0.0724638" d="M1681.5 1598.03L1987.97 1307.59C1991.97 1303.8 1994.75 1298.98 1995.88 1293.89L2145.54 619.31C2146.32 615.78 2146.28 612.23 2145.42 608.96L2008.38 87.0189C2006.06 78.1909 1998.16 72.557 1988.56 72.89L1692.55 83.1489C1682.95 83.4819 1673.67 89.711 1669.29 98.771L1410.15 634.44C1408.52 637.8 1407.66 641.38 1407.63 644.88L1402.09 1314.47C1402.05 1319.52 1403.74 1324.19 1406.89 1327.73L1648.49 1599.18C1656.45 1608.12 1671.4 1607.61 1681.5 1598.03Z" stroke="url(#paint4_linear_144_614)" stroke-width="4"/>
<path opacity="0.0869565" d="M1629.2 1594.62L1941.24 1326.9C1945.33 1323.39 1948.26 1318.78 1949.56 1313.79L2122.55 650.53C2123.45 647.08 2123.54 643.56 2122.83 640.24L2008.06 109.01C2006.1 99.9448 1998.4 93.6778 1988.77 93.3118L1697.96 82.2518C1688.33 81.8848 1678.81 87.4968 1674.11 96.3088L1398.84 612.71C1397.12 615.93 1396.15 619.42 1395.98 622.9L1364.92 1291.55C1364.68 1296.59 1366.17 1301.37 1369.14 1305.14L1596.02 1593.35C1603.64 1603.03 1618.72 1603.6 1629.2 1594.62Z" stroke="url(#paint5_linear_144_614)" stroke-width="4"/>
<path opacity="0.101449" d="M1577.65 1589.17L1894.32 1344.57C1898.49 1341.34 1901.55 1336.94 1903.03 1332.03L2098.41 681.91C2099.42 678.53 2099.65 675.02 2099.07 671.66L2006.51 132.765C2004.91 123.487 1997.47 116.599 1987.87 115.521L1702.86 83.4938C1693.26 82.4158 1683.56 87.3767 1678.56 95.9147L1388.28 591.79C1386.47 594.88 1385.38 598.29 1385.09 601.76L1329.05 1267.54C1328.62 1272.56 1329.91 1277.45 1332.7 1281.46L1544.55 1585.45C1551.77 1595.82 1566.86 1597.51 1577.65 1589.17Z" stroke="url(#paint6_linear_144_614)" stroke-width="4"/>
<path opacity="0.115942" d="M1526.93 1581.76L1847.27 1360.58C1851.52 1357.64 1854.72 1353.44 1856.37 1348.62L2073.14 713.36C2074.27 710.04 2074.63 706.54 2074.19 703.12L2003.67 158.191C2002.44 148.727 1995.31 141.237 1985.81 139.444L1707.18 86.829C1697.68 85.036 1687.85 89.323 1682.57 97.558L1378.43 571.74C1376.52 574.72 1375.31 578.06 1374.89 581.51L1294.51 1242.53C1293.9 1247.54 1294.98 1252.55 1297.59 1256.79L1494.15 1575.57C1500.93 1586.57 1515.88 1589.39 1526.93 1581.76Z" stroke="url(#paint7_linear_144_614)" stroke-width="4"/>
<path opacity="0.130435" d="M1477.08 1572.44L1800.17 1374.93C1804.5 1372.28 1807.83 1368.28 1809.65 1363.54L2046.75 744.8C2048.01 741.54 2048.5 738.03 2048.19 734.54L1999.51 185.19C1998.66 175.568 1991.88 167.504 1982.55 165.004L1710.85 92.201C1701.52 89.701 1691.62 93.298 1686.07 101.205L1369.24 552.62C1367.23 555.48 1365.9 558.77 1365.35 562.22L1261.32 1216.61C1260.53 1221.63 1261.41 1226.76 1263.84 1231.22L1444.88 1563.81C1451.17 1575.37 1465.86 1579.3 1477.08 1572.44Z" stroke="url(#paint8_linear_144_614)" stroke-width="4"/>
<path opacity="0.144928" d="M1428.15 1561.25L1753.06 1387.61C1757.47 1385.25 1760.94 1381.44 1762.93 1376.78L2019.26 776.15C2020.63 772.93 2021.26 769.4 2021.08 765.84L1993.98 213.664C1993.5 203.912 1987.13 195.311 1978.03 192.123L1713.79 99.5496C1704.69 96.3616 1694.78 99.2616 1688.98 106.815L1360.65 534.48C1358.54 537.23 1357.08 540.47 1356.4 543.93L1229.5 1189.9C1228.52 1194.92 1229.2 1200.18 1231.44 1204.87L1396.78 1550.26C1402.55 1562.3 1416.82 1567.3 1428.15 1561.25Z" stroke="url(#paint9_linear_144_614)" stroke-width="4"/>
<path opacity="0.15942" d="M1380.22 1548.25L1706.05 1398.61C1710.52 1396.56 1714.14 1392.95 1716.31 1388.35L1990.7 807.31C1992.2 804.13 1992.97 800.58 1992.93 796.94L1987.07 243.508C1986.96 233.654 1981.04 224.563 1972.23 220.715L1715.95 108.81C1707.14 104.962 1697.29 107.17 1691.27 114.345L1352.65 517.36C1350.42 520.01 1348.84 523.2 1348.02 526.69L1199.06 1162.49C1197.88 1167.52 1198.36 1172.92 1200.41 1177.83L1349.91 1535.02C1355.12 1547.47 1368.86 1553.47 1380.22 1548.25Z" stroke="url(#paint10_linear_144_614)" stroke-width="4"/>
<path opacity="0.173913" d="M1333.33 1533.51L1659.17 1407.95C1663.71 1406.2 1667.46 1402.79 1669.82 1398.25L1961.08 838.22C1962.72 835.06 1963.62 831.47 1963.73 827.74L1978.72 274.615C1978.99 264.69 1973.56 255.16 1965.09 250.691L1717.28 119.912C1708.81 115.443 1699.07 116.969 1692.83 123.744L1345.16 501.3C1342.81 503.85 1341.09 507.01 1340.13 510.53L1170.01 1134.49C1168.63 1139.54 1168.9 1145.08 1170.76 1150.21L1304.28 1518.18C1308.92 1530.96 1322.02 1537.87 1333.33 1533.51Z" stroke="url(#paint11_linear_144_614)" stroke-width="4"/>
<path opacity="0.188406" d="M1287.53 1517.08L1612.49 1415.64C1617.09 1414.2 1620.99 1410.98 1623.54 1406.51L1930.42 868.78C1932.2 865.65 1933.26 862.01 1933.51 858.18L1968.92 306.878C1969.56 296.911 1964.65 287.001 1956.57 281.957L1717.71 132.787C1709.63 127.742 1700.05 128.605 1693.63 134.958L1338.13 486.36C1335.66 488.81 1333.79 491.94 1332.69 495.49L1142.33 1106C1140.75 1111.07 1140.8 1116.75 1142.46 1122.11L1259.93 1499.84C1263.97 1512.85 1276.34 1520.57 1287.53 1517.08Z" stroke="url(#paint12_linear_144_614)" stroke-width="4"/>
<path opacity="0.202899" d="M1242.89 1499.02L1566.07 1421.67C1570.73 1420.56 1574.78 1417.54 1577.53 1413.14L1898.76 898.91C1900.7 895.8 1901.92 892.11 1902.32 888.17L1957.64 340.185C1958.65 330.206 1954.28 319.978 1946.64 314.41L1717.21 147.361C1709.56 141.792 1700.19 142.018 1693.6 147.93L1331.53 472.57C1328.93 474.91 1326.9 478.01 1325.63 481.61L1116.05 1077.14C1114.26 1082.24 1114.08 1088.06 1115.54 1093.63L1216.88 1480.08C1220.33 1493.24 1231.89 1501.66 1242.89 1499.02Z" stroke="url(#paint13_linear_144_614)" stroke-width="4"/>
<path opacity="0.217391" d="M1199.46 1479.43L1519.98 1426.08C1524.69 1425.3 1528.88 1422.5 1531.84 1418.17L1866.12 928.54C1868.23 925.45 1869.63 921.71 1870.19 917.64L1944.88 374.42C1946.25 364.46 1942.44 353.98 1935.25 347.943L1715.74 163.562C1708.55 157.525 1699.43 157.142 1692.69 162.595L1325.3 459.96C1322.55 462.19 1320.35 465.27 1318.92 468.92L1091.14 1048.01C1089.12 1053.13 1088.71 1059.1 1089.96 1064.89L1175.14 1459C1178 1472.22 1188.71 1481.22 1199.46 1479.43Z" stroke="url(#paint14_linear_144_614)" stroke-width="4"/>
<path opacity="0.231884" d="M1157.3 1458.36L1474.27 1428.88C1479.01 1428.44 1483.36 1425.86 1486.53 1421.61L1832.55 957.59C1834.83 954.53 1836.42 950.71 1837.15 946.52L1930.62 409.48C1932.34 399.56 1929.1 388.89 1922.39 382.45L1713.25 181.317C1706.55 174.869 1697.7 173.91 1690.85 178.889L1319.38 448.57C1316.47 450.68 1314.1 453.73 1312.48 457.44L1067.6 1018.71C1065.35 1023.86 1064.68 1029.98 1065.72 1035.97L1134.76 1436.69C1137.03 1449.89 1146.86 1459.34 1157.3 1458.36Z" stroke="url(#paint15_linear_144_614)" stroke-width="4"/>
<path opacity="0.246377" d="M1116.45 1435.92L1429.01 1430.11C1433.78 1430.02 1438.27 1427.68 1441.67 1423.51L1798.08 985.99C1800.55 982.95 1802.34 979.06 1803.25 974.73L1914.86 445.23C1916.93 435.39 1914.25 424.6 1908.04 417.8L1709.74 200.551C1703.53 193.75 1694.99 192.251 1688.04 196.741L1313.72 438.43C1310.66 440.41 1308.09 443.43 1306.28 447.2L1045.4 989.37C1042.91 994.53 1041.98 1000.79 1042.79 1006.99L1095.73 1413.22C1097.43 1426.32 1106.37 1436.11 1116.45 1435.92Z" stroke="url(#paint16_linear_144_614)" stroke-width="4"/>
<path opacity="0.26087" d="M1076.97 1412.2L1384.26 1429.8C1389.03 1430.07 1393.68 1427.97 1397.31 1423.9L1762.76 1013.65C1765.44 1010.64 1767.44 1006.69 1768.55 1002.22L1897.61 481.57C1900.02 471.84 1897.9 460.99 1892.19 453.89L1705.17 221.188C1699.46 214.092 1691.25 212.088 1684.23 216.078L1308.3 429.55C1305.07 431.39 1302.29 434.38 1300.27 438.21L1024.53 960.08C1021.79 965.26 1020.6 971.65 1021.17 978.04L1058.07 1388.69C1059.24 1401.63 1067.29 1411.65 1076.97 1412.2Z" stroke="url(#paint17_linear_144_614)" stroke-width="4"/>
<path opacity="0.275362" d="M1038.88 1387.3L1340.04 1427.97C1344.82 1428.62 1349.61 1426.78 1353.47 1422.82L1726.61 1040.52C1729.51 1037.55 1731.74 1033.53 1733.06 1028.91L1878.85 518.38C1881.59 508.78 1880.01 497.93 1874.81 490.59L1699.49 243.153C1694.3 235.816 1686.43 233.343 1679.35 236.823L1303.02 421.97C1299.61 423.64 1296.62 426.59 1294.37 430.48L1004.96 930.95C1001.97 936.13 1000.49 942.65 1000.82 949.22L1021.8 1363.2C1022.45 1375.89 1029.64 1386.05 1038.88 1387.3Z" stroke="url(#paint18_linear_144_614)" stroke-width="4"/>
<path opacity="0.289855" d="M1002.22 1361.32L1296.43 1424.68C1301.19 1425.7 1306.12 1424.14 1310.23 1420.31L1689.69 1066.52C1692.82 1063.6 1695.31 1059.51 1696.85 1054.75L1858.61 555.54C1861.67 546.1 1860.62 535.3 1855.92 527.78L1692.71 266.367C1688.01 258.841 1680.49 255.935 1673.4 258.897L1297.85 415.69C1294.27 417.19 1291.03 420.09 1288.54 424.03L986.668 902.1C983.402 907.27 981.629 913.9 981.714 920.63L986.927 1336.82C987.082 1349.23 993.452 1359.43 1002.22 1361.32Z" stroke="url(#paint19_linear_144_614)" stroke-width="4"/>
<path opacity="0.304348" d="M967.019 1334.38L1253.46 1419.97C1258.18 1421.38 1263.25 1420.11 1267.6 1416.43L1652.04 1091.59C1655.42 1088.73 1658.18 1084.59 1659.96 1079.69L1836.89 592.93C1840.25 583.69 1839.71 572.99 1835.51 565.33L1684.77 290.752C1680.56 283.086 1673.41 279.779 1666.32 282.219L1292.72 410.74C1288.96 412.04 1285.48 414.87 1282.73 418.86L969.606 873.62C966.063 878.76 963.985 885.49 963.814 892.36L953.449 1309.66C953.15 1321.73 958.734 1331.9 967.019 1334.38Z" stroke="url(#paint20_linear_144_614)" stroke-width="4"/>
<path opacity="0.318841" d="M933.287 1306.59L1211.19 1413.88C1215.85 1415.68 1221.04 1414.73 1225.64 1411.23L1613.72 1115.66C1617.36 1112.89 1620.4 1108.69 1622.44 1103.66L1813.73 630.45C1817.38 621.42 1817.33 610.87 1813.6 603.11L1675.68 316.224C1671.95 308.462 1665.17 304.788 1658.1 306.703L1287.61 407.12C1283.66 408.19 1279.91 410.94 1276.89 414.97L953.74 845.61C949.911 850.71 947.519 857.51 947.088 864.51L921.375 1281.81C920.655 1293.51 925.499 1303.58 933.287 1306.59Z" stroke="url(#paint21_linear_144_614)" stroke-width="4"/>
<path opacity="0.333333" d="M901.04 1278.07L1169.64 1406.48C1174.23 1408.67 1179.54 1408.05 1184.39 1404.74L1574.78 1138.67C1578.68 1136.02 1582.04 1131.78 1584.34 1126.61L1789.14 667.97C1793.06 659.19 1793.47 648.83 1790.2 641.01L1665.42 342.702C1662.15 334.884 1655.73 330.874 1648.72 332.263L1282.43 404.84C1278.3 405.66 1274.28 408.3 1270.96 412.35L939.03 818.18C934.91 823.21 932.194 830.06 931.498 837.16L890.708 1253.37C889.602 1264.66 893.756 1274.59 901.04 1278.07Z" stroke="url(#paint22_linear_144_614)" stroke-width="4"/>
<path opacity="0.347826" d="M870.289 1248.95L1128.88 1397.82C1133.37 1400.4 1138.79 1400.12 1143.88 1397.05L1535.26 1160.58C1539.45 1158.06 1543.13 1153.81 1545.72 1148.52L1763.15 705.38C1767.33 696.87 1768.17 686.74 1765.34 678.9L1653.96 370.1C1651.13 362.26 1645.08 357.95 1638.15 358.81L1277.15 403.9C1272.84 404.44 1268.53 406.94 1264.9 411.01L925.431 791.42C921.017 796.36 917.972 803.23 917.008 810.41L861.451 1224.44C859.995 1235.3 863.508 1245.04 870.289 1248.95Z" stroke="url(#paint23_linear_144_614)" stroke-width="4"/>
<path opacity="0.362319" d="M841.014 1219.33L1088.91 1387.95C1093.28 1390.92 1098.79 1391.01 1104.12 1388.19L1495.23 1181.33C1499.7 1178.96 1503.73 1174.72 1506.63 1169.33L1735.8 742.59C1740.22 734.36 1741.45 724.49 1739.05 716.67L1641.3 398.33C1638.89 390.51 1633.21 385.91 1626.38 386.26L1271.7 404.3C1267.22 404.53 1262.6 406.87 1258.65 410.92L912.879 765.41C908.168 770.24 904.79 777.1 903.557 784.34L833.582 1195.13C831.808 1205.54 834.732 1215.06 841.014 1219.33Z" stroke="url(#paint24_linear_144_614)" stroke-width="4"/>
<path opacity="0.376812" d="M813.222 1189.35L1049.79 1376.95C1054.02 1380.3 1059.61 1380.77 1065.17 1378.24L1454.75 1200.87C1459.51 1198.7 1463.9 1194.49 1467.11 1189.01L1707.12 779.47C1711.76 771.56 1713.37 761.97 1711.37 754.18L1627.43 427.31C1625.43 419.53 1620.11 414.67 1613.4 414.51L1266.04 406.03C1261.39 405.91 1256.47 408.06 1252.19 412.07L901.333 740.27C896.326 744.95 892.613 751.77 891.11 759.04L807.103 1165.52C805.046 1175.48 807.428 1184.76 813.222 1189.35Z" stroke="url(#paint25_linear_144_614)" stroke-width="4"/>
<path opacity="0.391304" d="M786.889 1159.13L1011.52 1364.86C1015.6 1368.6 1021.24 1369.47 1027.02 1367.25L1413.86 1219.15C1418.92 1217.22 1423.68 1213.07 1427.21 1207.54L1677.14 815.93C1681.98 808.34 1683.93 799.06 1682.32 791.34L1612.33 456.95C1610.72 449.23 1605.75 444.14 1599.19 443.48L1260.1 409.07C1255.3 408.58 1250.07 410.5 1245.44 414.44L890.726 716.05C885.427 720.56 881.38 727.3 879.609 734.58L781.994 1135.74C779.683 1145.24 781.571 1154.26 786.889 1159.13Z" stroke="url(#paint26_linear_144_614)" stroke-width="4"/>
<path opacity="0.405797" d="M762.007 1128.78L974.158 1351.77C978.059 1355.87 983.734 1357.16 989.716 1355.29L1372.66 1236.15C1378.01 1234.48 1383.15 1230.44 1387.02 1224.87L1645.94 851.86C1650.96 844.62 1653.23 835.66 1651.98 828.02L1596.04 487.16C1594.79 479.52 1590.18 474.22 1583.78 473.07L1253.86 413.42C1248.93 412.53 1243.39 414.17 1238.4 418.01L881.009 692.85C875.426 697.15 871.05 703.78 869.013 711.04L758.249 1105.88C755.713 1114.92 757.149 1123.67 762.007 1128.78Z" stroke="url(#paint27_linear_144_614)" stroke-width="4"/>
<path opacity="0.42029" d="M738.528 1098.43L937.691 1337.74C941.397 1342.19 947.086 1343.91 953.253 1342.43L1331.18 1251.82C1336.81 1250.47 1342.35 1246.57 1346.55 1241L1613.53 887.17C1618.72 880.29 1621.27 871.67 1620.36 864.12L1578.53 517.85C1577.62 510.31 1573.35 504.82 1567.14 503.18L1247.24 419.04C1242.21 417.72 1236.36 419.05 1231.01 422.75L872.1 670.74C866.244 674.79 861.546 681.28 859.248 688.49L735.824 1076.05C733.088 1084.64 734.113 1093.12 738.528 1098.43Z" stroke="url(#paint28_linear_144_614)" stroke-width="4"/>
<path opacity="0.434783" d="M716.438 1068.19L902.154 1322.83C905.651 1327.63 911.328 1329.78 917.657 1328.72L1289.5 1266.13C1295.4 1265.14 1301.33 1261.44 1305.87 1255.9L1579.98 921.76C1585.31 915.26 1588.13 906.98 1587.54 899.54L1559.8 548.93C1559.21 541.5 1555.29 535.83 1549.28 533.74L1240.2 425.92C1235.09 424.13 1228.95 425.11 1223.25 428.62L863.946 649.79C857.831 653.56 852.822 659.86 850.27 667L714.709 1046.34C711.795 1054.49 712.445 1062.71 716.438 1068.19Z" stroke="url(#paint29_linear_144_614)" stroke-width="4"/>
<path opacity="0.449275" d="M695.686 1038.17L867.55 1307.13C870.821 1312.25 876.461 1314.85 882.925 1314.23L1247.69 1279.08C1253.84 1278.49 1260.14 1275.03 1265.02 1269.57L1545.33 955.54C1550.79 949.43 1553.85 941.49 1553.57 934.17L1539.88 580.32C1539.6 573 1536.01 567.17 1530.22 564.63L1232.7 434.02C1227.53 431.75 1221.12 432.33 1215.07 435.61L856.466 630.07C850.111 633.51 844.807 639.59 842.007 646.64L694.862 1016.86C691.789 1024.59 692.097 1032.55 695.686 1038.17Z" stroke="url(#paint30_linear_144_614)" stroke-width="4"/>
<path opacity="0.463768" d="M676.252 1008.49L833.91 1290.7C836.942 1296.12 842.516 1299.18 849.084 1299.03L1205.82 1290.63C1212.19 1290.48 1218.86 1287.32 1224.06 1281.98L1509.66 988.44C1515.23 982.71 1518.51 975.12 1518.51 967.93L1518.78 611.91C1518.79 604.71 1515.52 598.74 1509.96 595.77L1224.7 443.31C1219.5 440.53 1212.84 440.66 1206.47 443.66L849.609 611.62C843.039 614.71 837.458 620.53 834.417 627.46L676.268 987.71C673.052 995.04 673.046 1002.75 676.252 1008.49Z" stroke="url(#paint31_linear_144_614)" stroke-width="4"/>
<path opacity="0.478261" d="M658.064 979.25L801.214 1273.6C803.994 1279.32 809.473 1282.84 816.112 1283.18L1163.95 1300.79C1170.51 1301.13 1177.51 1298.32 1183.02 1293.13L1473.01 1020.36C1478.67 1015.03 1482.14 1007.79 1482.42 1000.72L1496.51 643.63C1496.79 636.56 1493.84 630.45 1488.52 627.06L1216.13 453.74C1210.95 450.44 1204.08 450.08 1197.41 452.76L843.279 594.51C836.52 597.21 830.684 602.73 827.411 609.52L658.863 958.99C655.517 965.93 655.222 973.41 658.064 979.25Z" stroke="url(#paint32_linear_144_614)" stroke-width="4"/>
<path opacity="0.492754" d="M641.085 950.56L769.48 1255.92C771.997 1261.91 777.351 1265.89 784.023 1266.73L1122.16 1309.56C1128.86 1310.41 1136.15 1308 1141.95 1303.02L1435.42 1051.23C1441.17 1046.31 1444.82 1039.4 1445.36 1032.45L1473.07 675.39C1473.61 668.44 1470.98 662.2 1465.91 658.42L1206.97 465.26C1201.85 461.44 1194.81 460.56 1187.87 462.86L837.413 578.77C830.499 581.06 824.433 586.25 820.937 592.87L642.62 930.78C639.152 937.36 638.588 944.63 641.085 950.56Z" stroke="url(#paint33_linear_144_614)" stroke-width="4"/>
<path opacity="0.507246" d="M625.271 922.52L738.719 1237.73C740.963 1243.96 746.162 1248.4 752.827 1249.76L1080.52 1316.94C1087.31 1318.33 1094.86 1316.37 1100.92 1311.65L1397.01 1080.99C1402.82 1076.46 1406.64 1069.88 1407.43 1063.05L1448.53 707.1C1449.31 700.27 1446.99 693.9 1442.18 689.75L1197.19 477.83C1192.18 473.49 1185.02 472.05 1177.85 473.92L831.951 564.44C824.916 566.28 818.647 571.12 814.939 577.56L627.502 903.19C623.919 909.42 623.102 916.49 625.271 922.52Z" stroke="url(#paint34_linear_144_614)" stroke-width="4"/>
<path opacity="0.521739" d="M610.544 895.21L708.908 1219.08C710.872 1225.55 715.884 1230.43 722.5 1232.33L1039.08 1322.94C1045.91 1324.9 1053.66 1323.44 1059.95 1319.01L1357.8 1109.55C1363.66 1105.43 1367.64 1099.17 1368.67 1092.45L1422.87 738.68C1423.9 731.96 1421.87 725.47 1417.33 720.96L1186.75 491.4C1181.87 486.54 1174.66 484.52 1167.31 485.93L826.797 551.56C819.68 552.93 813.239 557.38 809.329 563.62L613.441 876.3C609.746 882.2 608.689 889.1 610.544 895.21Z" stroke="url(#paint35_linear_144_614)" stroke-width="4"/>
<path opacity="0.536232" d="M596.848 868.73L680.047 1200.07C681.722 1206.74 686.517 1212.06 693.043 1214.48L997.902 1327.6C1004.71 1330.13 1012.59 1329.2 1019.08 1325.11L1317.85 1136.87C1323.76 1133.14 1327.89 1127.2 1329.15 1120.59L1396.12 770.04C1397.39 763.43 1395.66 756.83 1391.39 751.96L1175.6 505.89C1170.92 500.55 1163.71 497.93 1156.25 498.85L821.883 540.15C814.726 541.03 808.143 545.07 804.042 551.09L600.389 850.2C596.581 855.79 595.292 862.54 596.848 868.73Z" stroke="url(#paint36_linear_144_614)" stroke-width="4"/>
<path opacity="0.550725" d="M584.139 843.16L652.148 1180.75C653.53 1187.61 658.078 1193.34 664.471 1196.28L957.066 1330.94C963.79 1334.04 971.737 1333.67 978.38 1329.96L1277.27 1162.87C1283.21 1159.55 1287.49 1153.9 1288.98 1147.39L1368.36 801.12C1369.85 794.61 1368.42 787.88 1364.43 782.68L1163.76 521.27C1159.3 515.46 1152.18 512.24 1144.65 512.64L817.159 530.21C810.004 530.6 803.313 534.21 799.031 540L588.311 824.96C584.389 830.26 582.874 836.87 584.139 843.16Z" stroke="url(#paint37_linear_144_614)" stroke-width="4"/>
<path opacity="0.565217" d="M572.332 818.57L625.18 1161.19C626.264 1168.21 630.538 1174.35 636.756 1177.79L916.601 1333C923.176 1336.65 931.118 1336.85 937.871 1333.55L1236.1 1187.52C1242.06 1184.59 1246.48 1179.23 1248.2 1172.81L1339.57 831.82C1341.29 825.4 1340.15 818.55 1336.44 813.03L1151.18 537.45C1146.99 531.21 1140.01 527.42 1132.49 527.29L812.535 521.78C805.425 521.66 798.659 524.83 794.206 530.37L577.13 800.66C573.089 805.69 571.348 812.19 572.332 818.57Z" stroke="url(#paint38_linear_144_614)" stroke-width="4"/>
<path opacity="0.57971" d="M561.368 795.04L599.142 1141.46C599.925 1148.63 603.898 1155.14 609.903 1159.07L876.56 1333.82C882.927 1337.99 890.793 1338.76 897.609 1335.89L1194.4 1210.75C1200.4 1208.22 1204.95 1203.14 1206.9 1196.81L1309.8 862.07C1311.75 855.73 1310.9 848.75 1307.48 842.93L1137.86 554.39C1133.96 547.77 1127.2 543.42 1119.75 542.75L807.954 514.84C800.932 514.21 794.123 516.94 789.511 522.22L566.797 777.38C562.63 782.16 560.661 788.56 561.368 795.04Z" stroke="url(#paint39_linear_144_614)" stroke-width="4"/>
<path opacity="0.594203" d="M551.178 772.64L574.019 1121.64C574.497 1128.93 578.146 1135.78 583.903 1140.17L836.983 1333.42C843.086 1338.08 850.805 1339.42 857.639 1336.99L1152.27 1232.53C1158.28 1230.4 1162.97 1225.59 1165.15 1219.33L1279.11 891.79C1281.28 885.53 1280.73 878.43 1277.6 872.31L1123.78 572.03C1120.21 565.07 1113.72 560.2 1106.41 559L803.352 509.41C796.458 508.28 789.637 510.55 784.877 515.56L557.248 755.19C552.948 759.72 550.746 766.05 551.178 772.64Z" stroke="url(#paint40_linear_144_614)" stroke-width="4"/>
<path opacity="0.608696" d="M541.687 751.42L549.789 1101.78C549.96 1109.18 553.265 1116.33 558.742 1121.16L797.896 1331.86C803.688 1336.97 811.196 1338.84 818.003 1336.88L1109.76 1252.83C1115.77 1251.1 1120.61 1246.55 1123.02 1240.36L1247.5 920.92C1249.91 914.73 1249.67 907.5 1246.82 901.09L1108.93 590.3C1105.71 583.05 1099.55 577.71 1092.44 576.01L798.661 505.47C791.934 503.85 785.131 505.67 780.234 510.4L548.417 734.15C543.973 738.44 541.531 744.7 541.687 751.42Z" stroke="url(#paint41_linear_144_614)" stroke-width="4"/>
<path opacity="0.623188" d="M532.839 731.43L526.45 1081.95C526.313 1089.43 529.257 1096.87 534.426 1102.08L759.346 1329.18C764.786 1334.67 772.027 1337.05 778.764 1335.56L1066.96 1271.6C1072.97 1270.27 1077.96 1265.98 1080.61 1259.86L1215.05 949.39C1217.7 943.26 1217.77 935.9 1215.22 929.22L1093.31 609.16C1090.47 601.68 1084.69 595.92 1077.82 593.73L793.84 503.02C787.314 500.93 780.557 502.31 775.534 506.74L540.253 714.31C535.657 718.37 532.964 724.59 532.839 731.43Z" stroke="url(#paint42_linear_144_614)" stroke-width="4"/>
<path opacity="0.637681" d="M524.547 712.73L503.963 1062.22C503.519 1069.77 506.088 1077.44 510.927 1083.01L721.341 1325.41C726.397 1331.24 733.324 1334.08 739.952 1333.05L1023.92 1288.83C1029.94 1287.9 1035.07 1283.87 1037.97 1277.8L1181.79 977.12C1184.69 971.06 1185.07 963.57 1182.82 956.62L1076.93 628.54C1074.46 620.88 1069.09 614.77 1062.51 612.13L788.813 502.04C782.518 499.51 775.834 500.44 770.696 504.57L532.674 695.74C527.916 699.56 524.959 705.75 524.547 712.73Z" stroke="url(#paint43_linear_144_614)" stroke-width="4"/>
<path opacity="0.652174" d="M516.75 695.36L482.318 1042.66C481.566 1050.24 483.751 1058.11 488.243 1064L683.916 1320.6C688.566 1326.7 695.142 1329.96 701.625 1329.38L980.736 1304.5C986.738 1303.96 992.022 1300.19 995.177 1294.19L1147.76 1004.06C1150.92 998.06 1151.62 990.44 1149.69 983.24L1059.77 648.4C1057.68 640.62 1052.76 634.22 1046.51 631.16L783.538 502.52C777.501 499.57 770.912 500.07 765.672 503.88L525.624 678.48C520.694 682.07 517.458 688.22 516.75 695.36Z" stroke="url(#paint44_linear_144_614)" stroke-width="4"/>
<path opacity="0.666667" d="M509.373 679.34L461.485 1023.32C460.427 1030.92 462.222 1038.95 466.354 1045.12L647.088 1314.77C651.32 1321.09 657.517 1324.72 663.824 1324.58L937.467 1318.58C943.449 1318.45 948.89 1314.94 952.31 1309.01L1113.03 1030.14C1116.45 1024.21 1117.49 1016.47 1115.87 1009.03L1041.84 668.67C1040.14 660.83 1035.67 654.2 1029.77 650.77L777.958 504.45C772.201 501.1 765.728 501.19 760.397 504.67L519.03 662.58C513.919 665.93 510.387 672.06 509.373 679.34Z" stroke="url(#paint45_linear_144_614)" stroke-width="4"/>
<path opacity="0.681159" d="M502.337 664.71L441.432 1004.27C440.07 1011.86 441.471 1020.01 445.236 1026.41L610.873 1307.97C614.681 1314.45 620.481 1318.4 626.587 1318.68L894.183 1331.07C900.135 1331.35 905.736 1328.11 909.428 1322.25L1077.62 1055.31C1081.31 1049.45 1082.71 1041.6 1081.41 1033.93L1023.14 689.32C1021.81 681.46 1017.8 674.66 1012.28 670.91L772.017 507.79C766.556 504.08 760.218 503.76 754.808 506.92L512.818 648.08C507.517 651.17 503.671 657.28 502.337 664.71Z" stroke="url(#paint46_linear_144_614)" stroke-width="4"/>
<path opacity="0.695652" d="M495.579 651.5L422.136 985.56C420.474 993.12 421.482 1001.36 424.876 1007.95L575.299 1300.24C578.685 1306.82 584.079 1311.05 589.962 1311.73L850.959 1341.98C856.872 1342.66 862.635 1339.7 866.61 1333.92L1041.61 1079.51C1045.58 1073.74 1047.34 1065.78 1046.37 1057.9L1003.68 710.29C1002.72 702.46 999.164 695.55 994.024 691.52L765.672 512.52C760.521 508.49 754.332 507.77 748.857 510.59L506.924 635.01C501.426 637.83 497.248 643.91 495.579 651.5Z" stroke="url(#paint47_linear_144_614)" stroke-width="4"/>
<path opacity="0.710145" d="M489.042 639.71L403.58 967.25C401.621 974.75 402.239 983.05 405.262 989.8L540.398 1291.61C543.371 1298.25 548.356 1302.7 554.001 1303.76L807.879 1351.3C813.741 1352.4 819.668 1349.71 823.934 1344.03L1005.05 1102.7C1009.32 1097.02 1011.45 1088.97 1010.81 1080.91L983.468 731.54C982.86 723.77 979.758 716.81 975.004 712.54L758.888 518.62C754.055 514.28 748.03 513.2 742.501 515.67L501.292 623.39C495.592 625.94 491.062 631.97 489.042 639.71Z" stroke="url(#paint48_linear_144_614)" stroke-width="4"/>
<path opacity="0.724638" d="M482.632 629.36L385.706 949.39C383.456 956.82 383.69 965.13 386.344 972L506.168 1282.13C508.739 1288.78 513.321 1293.42 518.714 1294.83L764.987 1359.04C770.785 1360.56 776.877 1358.17 781.443 1352.59L967.987 1124.84C972.554 1119.26 975.067 1111.14 974.778 1102.9L962.493 753.01C962.224 745.34 959.557 738.37 955.188 733.91L751.595 526.05C747.085 521.45 741.235 520 735.665 522.12L495.828 613.25C489.921 615.5 485.019 621.48 482.632 629.36Z" stroke="url(#paint49_linear_144_614)" stroke-width="4"/>
<path opacity="0.73913" d="M476.294 620.46L368.493 932.04C365.957 939.38 365.815 947.65 368.108 954.61L472.641 1271.84C474.827 1278.47 479.013 1283.25 484.148 1284.98L722.361 1365.23C728.083 1367.16 734.339 1365.08 739.212 1359.63L930.481 1145.87C935.354 1140.42 938.266 1132.25 938.325 1123.87L940.774 774.65C940.827 767.12 938.575 760.18 934.585 755.56L743.762 534.78C739.577 529.93 733.91 528.15 728.313 529.91L490.473 604.61C484.359 606.53 479.065 612.45 476.294 620.46Z" stroke="url(#paint50_linear_144_614)" stroke-width="4"/>
<path opacity="0.753623" d="M469.961 613L351.905 915.25C349.089 922.46 348.582 930.68 350.52 937.69L439.835 1260.77C441.654 1267.35 445.458 1272.25 450.33 1274.28L680.064 1369.88C685.697 1372.22 692.115 1370.47 697.302 1365.17L892.59 1165.77C897.777 1160.47 901.098 1152.28 901.51 1143.76L918.316 796.42C918.673 789.06 916.816 782.18 913.193 777.44L735.343 544.76C731.483 539.71 726.007 537.59 720.396 538.99L485.159 597.48C478.837 599.05 473.133 604.87 469.961 613Z" stroke="url(#paint51_linear_144_614)" stroke-width="4"/>
<path opacity="0.768116" d="M463.569 606.96L335.904 899.05C332.817 906.12 331.956 914.25 333.55 921.29L407.768 1248.99C409.241 1255.49 412.678 1260.47 417.285 1262.77L638.16 1373.01C643.689 1375.77 650.265 1374.36 655.771 1369.24L854.375 1184.5C859.88 1179.38 863.62 1171.19 864.389 1162.57L895.131 818.27C895.772 811.09 894.287 804.3 891.018 799.47L726.3 555.95C722.762 550.72 717.482 548.3 711.871 549.33L479.815 591.85C473.29 593.05 467.159 598.75 463.569 606.96Z" stroke="url(#paint52_linear_144_614)" stroke-width="4"/>
<path opacity="0.782609" d="M457.05 602.35L320.445 883.5C317.096 890.39 315.893 898.42 317.154 905.46L376.451 1236.54C377.598 1242.94 380.685 1247.97 385.029 1250.52L596.7 1374.67C602.111 1377.84 608.841 1376.8 614.667 1371.88L815.887 1202.04C821.713 1197.12 825.879 1188.97 827.009 1180.28L871.221 840.15C872.128 833.17 870.991 826.49 868.062 821.59L716.586 568.32C713.365 562.93 708.286 560.21 702.687 560.87L474.366 587.73C467.644 588.53 461.071 594.07 457.05 602.35Z" stroke="url(#paint53_linear_144_614)" stroke-width="4"/>
<path opacity="0.797101" d="M450.357 599.13L305.505 868.62C301.901 875.33 300.37 883.21 301.31 890.23L345.912 1223.47C346.753 1229.76 349.508 1234.82 353.593 1237.6L555.754 1374.89C561.033 1378.47 567.909 1377.81 574.055 1373.13L777.201 1218.37C783.347 1213.69 787.944 1205.61 789.438 1196.86L846.612 862.01C847.767 855.24 846.955 848.7 844.348 843.75L706.179 581.8C703.268 576.28 698.393 573.28 692.819 573.56L468.758 585.12C461.85 585.47 454.823 590.82 450.357 599.13Z" stroke="url(#paint54_linear_144_614)" stroke-width="4"/>
<path opacity="0.811594" d="M443.414 597.29L291.018 854.47C287.171 860.96 285.327 868.68 285.957 875.66L316.141 1209.83C316.698 1215.99 319.139 1221.08 322.97 1224.06L515.355 1373.71C520.488 1377.7 527.499 1377.44 533.963 1373.03L738.354 1233.47C744.819 1229.06 749.849 1221.09 751.706 1212.32L821.296 883.8C822.682 877.26 822.172 870.85 819.87 865.88L695.022 596.35C692.414 590.72 687.746 587.44 682.21 587.36L462.904 583.98C455.822 583.87 448.335 588.98 443.414 597.29Z" stroke="url(#paint55_linear_144_614)" stroke-width="4"/>
<path opacity="0.826087" d="M436.199 596.78L276.978 841.06C272.898 847.32 270.755 854.86 271.089 861.78L287.183 1195.69C287.473 1201.72 289.619 1206.81 293.203 1209.98L475.584 1371.18C480.555 1375.57 487.689 1375.74 494.465 1371.63L699.439 1247.33C706.215 1243.22 711.678 1235.41 713.897 1226.65L795.319 905.47C796.919 899.16 796.69 892.91 794.676 887.93L683.115 611.91C680.803 606.19 676.342 602.65 670.856 602.19L456.766 584.31C449.529 583.71 441.581 588.53 436.199 596.78Z" stroke="url(#paint56_linear_144_614)" stroke-width="4"/>
<path opacity="0.84058" d="M428.628 597.58L263.305 828.42C259.004 834.43 256.577 841.77 256.626 848.62L259.007 1181.1C259.049 1186.98 260.917 1192.07 264.261 1195.41L436.452 1367.35C441.248 1372.13 448.489 1372.76 455.565 1368.99L660.481 1259.94C667.556 1256.18 673.446 1248.56 676.026 1239.85L768.661 926.98C770.46 920.9 770.492 914.81 768.751 909.82L670.394 628.42C668.367 622.62 664.115 618.84 658.692 618.01L450.247 586.08C442.877 584.95 434.473 589.42 428.628 597.58Z" stroke="url(#paint57_linear_144_614)" stroke-width="4"/>
<path opacity="0.855072" d="M420.685 599.64L249.987 816.59C245.476 822.33 242.779 829.45 242.555 836.22L231.648 1166.11C231.458 1171.86 233.064 1176.94 236.178 1180.44L398.033 1362.28C402.638 1367.45 409.966 1368.55 417.326 1365.16L621.567 1271.31C628.928 1267.92 635.234 1260.56 638.17 1251.92L741.368 948.28C743.354 942.44 743.628 936.5 742.143 931.52L656.861 645.83C655.111 639.97 651.067 635.94 645.718 634.74L443.311 589.24C435.836 587.56 426.989 591.63 420.685 599.64Z" stroke="url(#paint58_linear_144_614)" stroke-width="4"/>
<path opacity="0.869565" d="M412.322 602.91L236.976 805.59C232.266 811.03 229.313 817.92 228.828 824.6L205.102 1150.8C204.694 1156.41 206.055 1161.47 208.947 1165.12L360.356 1356.02C364.757 1361.57 372.149 1363.17 379.773 1360.21L582.752 1281.43C590.375 1278.47 597.083 1271.41 600.37 1262.88L713.452 969.32C715.612 963.71 716.114 957.93 714.87 952.96L642.483 664.06C641.001 658.15 637.167 653.89 631.902 652.32L435.89 593.77C428.34 591.51 419.075 595.11 412.322 602.91Z" stroke="url(#paint59_linear_144_614)" stroke-width="4"/>
<path opacity="0.884058" d="M403.501 607.36L224.224 795.43C219.329 800.56 216.133 807.21 215.396 813.79L179.366 1135.22C178.753 1140.69 179.881 1145.74 182.561 1149.53L323.457 1348.66C327.639 1354.57 335.067 1356.67 342.927 1354.18L544.091 1290.33C551.95 1287.83 559.038 1281.12 562.667 1272.72L684.93 990.06C687.256 984.69 687.97 979.05 686.954 974.1L627.239 683.06C626.016 677.1 622.39 672.62 617.221 670.68L427.922 599.6C420.334 596.76 410.687 599.82 403.501 607.36Z" stroke="url(#paint60_linear_144_614)" stroke-width="4"/>
<path opacity="0.898551" d="M394.199 612.91L211.697 786.13C206.629 790.94 203.202 797.33 202.222 803.81L154.444 1119.42C153.635 1124.76 154.544 1129.81 157.021 1133.73L287.372 1340.24C291.323 1346.5 298.756 1349.14 306.818 1347.15L505.65 1298.01C513.712 1296.01 521.152 1289.7 525.114 1281.48L655.831 1010.46C658.314 1005.31 659.231 999.81 658.431 994.87L611.117 702.76C610.146 696.76 606.728 692.06 601.665 689.75L419.359 606.7C411.775 603.24 401.792 605.71 394.199 612.91Z" stroke="url(#paint61_linear_144_614)" stroke-width="4"/>
<path opacity="0.913043" d="M384.375 619.54L199.34 777.7C194.111 782.17 190.465 788.3 189.249 794.67L130.316 1103.49C129.321 1108.7 130.02 1113.74 132.302 1117.8L252.118 1330.84C255.824 1337.43 263.225 1340.62 271.451 1339.16L467.47 1304.5C475.696 1303.05 483.454 1297.18 487.736 1289.18L626.161 1030.47C628.798 1025.54 629.907 1020.18 629.312 1015.25L594.088 723.08C593.361 717.05 590.151 712.13 585.204 709.46L410.135 614.98C402.599 610.92 392.34 612.73 384.375 619.54Z" stroke="url(#paint62_linear_144_614)" stroke-width="4"/>
<path opacity="0.927536" d="M374.028 627.17L187.132 770.15C181.755 774.26 177.9 780.12 176.454 786.39L106.999 1087.46C105.821 1092.56 106.32 1097.61 108.416 1101.8L217.739 1320.54C221.19 1327.45 228.517 1331.18 236.86 1330.3L429.631 1309.84C437.973 1308.95 446.008 1303.58 450.596 1295.83L595.969 1050.05C598.756 1045.34 600.052 1040.11 599.654 1035.17L576.163 743.96C575.674 737.9 572.673 732.77 567.85 729.74L400.225 624.39C392.785 619.72 382.323 620.83 374.028 627.17Z" stroke="url(#paint63_linear_144_614)" stroke-width="4"/>
<path opacity="0.942029" d="M363.127 635.77L175.019 763.48C169.507 767.22 165.451 772.81 163.781 778.97L84.4668 1071.41C83.1108 1076.41 83.4148 1081.47 85.3318 1085.8L184.244 1309.41C187.426 1316.61 194.637 1320.9 203.044 1320.61L392.169 1314.06C400.576 1313.76 408.84 1308.93 413.717 1301.46L565.265 1069.17C568.201 1064.67 569.68 1059.55 569.473 1054.6L557.32 765.33C557.065 759.24 554.272 753.89 549.583 750.5L389.573 634.86C382.28 629.59 371.7 629.95 363.127 635.77Z" stroke="url(#paint64_linear_144_614)" stroke-width="4"/>
<path opacity="0.956522" d="M351.657 645.28L162.965 757.7C157.332 761.06 153.083 766.37 151.191 772.42L62.7138 1055.4C61.1798 1060.31 61.2928 1065.39 63.0368 1069.87L151.651 1297.53C154.556 1305 161.602 1309.84 170.018 1310.16L355.136 1317.2C363.551 1317.52 371.991 1313.26 377.137 1306.11L534.078 1087.79C537.166 1083.49 538.827 1078.47 538.806 1073.51L537.558 787.12C537.532 780.99 534.95 775.42 530.404 771.68L378.147 646.29C371.053 640.45 360.448 640.04 351.657 645.28Z" stroke="url(#paint65_linear_144_614)" stroke-width="4"/>
<path opacity="0.971014" d="M339.606 655.65L150.933 752.81C145.191 755.77 140.756 760.8 138.643 766.74L41.7265 1039.48C40.0115 1044.31 39.9365 1049.44 41.5115 1054.07L119.976 1284.98C122.595 1292.69 129.428 1298.07 137.792 1299.01L318.576 1319.32C326.94 1320.26 335.498 1316.61 340.89 1309.8L502.437 1105.87C505.68 1101.77 507.526 1096.84 507.688 1091.84L516.876 809.24C517.077 803.08 514.708 797.29 510.314 793.2L365.919 658.61C359.077 652.23 348.546 651.05 339.606 655.65Z" stroke="url(#paint66_linear_144_614)" stroke-width="4"/>
<path opacity="0.985507" d="M326.962 666.84L138.886 748.81C133.052 751.35 128.436 756.09 126.102 761.93L21.4926 1023.73C19.5926 1028.48 19.3266 1033.66 20.7366 1038.47L89.2306 1271.84C91.5556 1279.76 98.1276 1285.65 106.377 1287.21L282.532 1320.47C290.781 1322.03 299.397 1319 305.01 1312.58L470.375 1123.37C473.779 1119.48 475.814 1114.63 476.161 1109.58L495.281 831.64C495.707 825.44 493.556 819.42 489.323 814.98L352.873 671.74C346.331 664.87 335.979 662.92 326.962 666.84Z" stroke="url(#paint67_linear_144_614)" stroke-width="4"/>
<path d="M313.705 678.81L126.786 745.68C120.873 747.79 116.082 752.23 113.526 757.97L1.99217 1008.18C-0.0998282 1012.88 -0.559828 1018.14 0.686172 1023.12L59.4182 1258.18C61.4432 1266.29 67.7072 1272.66 75.7792 1274.82L247.033 1320.71C255.105 1322.87 263.714 1320.49 269.522 1314.48L437.917 1140.28C441.489 1136.58 443.72 1131.8 444.255 1126.69L472.77 854.23C473.424 847.98 471.496 841.74 467.433 836.95L338.99 685.58C332.794 678.28 322.722 675.58 313.705 678.81Z" stroke="url(#paint68_linear_144_614)" stroke-width="4"/>
</g>
</g>
<defs>
<linearGradient id="paint0_linear_144_614" x1="1882.76" y1="1613.13" x2="1387.12" y2="51.7019" gradientUnits="userSpaceOnUse">
<stop stop-color="white" stop-opacity="0.9"/>
<stop offset="1" stop-color="#004AAD"/>
</linearGradient>
<linearGradient id="paint1_linear_144_614" x1="1826.81" y1="1617.98" x2="1430.55" y2="14.567" gradientUnits="userSpaceOnUse">
<stop stop-color="white" stop-opacity="0.9"/>
<stop offset="1" stop-color="#004AAD"/>
</linearGradient>
<linearGradient id="paint2_linear_144_614" x1="1771.42" y1="1620.45" x2="1481.87" y2="-16.9521" gradientUnits="userSpaceOnUse">
<stop stop-color="white" stop-opacity="0.9"/>
<stop offset="1" stop-color="#004AAD"/>
</linearGradient>
<linearGradient id="paint3_linear_144_614" x1="1716.7" y1="1620.56" x2="1540.32" y2="-41.1491" gradientUnits="userSpaceOnUse">
<stop stop-color="white" stop-opacity="0.9"/>
<stop offset="1" stop-color="#004AAD"/>
</linearGradient>
<linearGradient id="paint4_linear_144_614" x1="1662.71" y1="1618.38" x2="1604.67" y2="-56.419" gradientUnits="userSpaceOnUse">
<stop stop-color="white" stop-opacity="0.9"/>
<stop offset="1" stop-color="#004AAD"/>
</linearGradient>
<linearGradient id="paint5_linear_144_614" x1="1609.55" y1="1613.95" x2="1673.26" y2="-61.3911" gradientUnits="userSpaceOnUse">
<stop stop-color="white" stop-opacity="0.9"/>
<stop offset="1" stop-color="#004AAD"/>
</linearGradient>
<linearGradient id="paint6_linear_144_614" x1="1557.27" y1="1607.34" x2="1744.08" y2="-55.0692" gradientUnits="userSpaceOnUse">
<stop stop-color="white" stop-opacity="0.9"/>
<stop offset="1" stop-color="#004AAD"/>
</linearGradient>
<linearGradient id="paint7_linear_144_614" x1="1505.97" y1="1598.62" x2="1814.81" y2="-36.9481" gradientUnits="userSpaceOnUse">
<stop stop-color="white" stop-opacity="0.9"/>
<stop offset="1" stop-color="#004AAD"/>
</linearGradient>
<linearGradient id="paint8_linear_144_614" x1="1455.7" y1="1587.86" x2="1883.06" y2="-7.09905" gradientUnits="userSpaceOnUse">
<stop stop-color="white" stop-opacity="0.9"/>
<stop offset="1" stop-color="#004AAD"/>
</linearGradient>
<linearGradient id="paint9_linear_144_614" x1="1406.51" y1="1575.13" x2="1946.48" y2="33.8146" gradientUnits="userSpaceOnUse">
<stop stop-color="white" stop-opacity="0.9"/>
<stop offset="1" stop-color="#004AAD"/>
</linearGradient>
<linearGradient id="paint10_linear_144_614" x1="1358.5" y1="1560.51" x2="2002.97" y2="84.5727" gradientUnits="userSpaceOnUse">
<stop stop-color="white" stop-opacity="0.9"/>
<stop offset="1" stop-color="#004AAD"/>
</linearGradient>
<linearGradient id="paint11_linear_144_614" x1="1311.69" y1="1544.11" x2="2050.83" y2="143.507" gradientUnits="userSpaceOnUse">
<stop stop-color="white" stop-opacity="0.9"/>
<stop offset="1" stop-color="#004AAD"/>
</linearGradient>
<linearGradient id="paint12_linear_144_614" x1="1266.13" y1="1526" x2="2088.83" y2="208.643" gradientUnits="userSpaceOnUse">
<stop stop-color="white" stop-opacity="0.9"/>
<stop offset="1" stop-color="#004AAD"/>
</linearGradient>
<linearGradient id="paint13_linear_144_614" x1="1221.88" y1="1506.29" x2="2116.31" y2="277.869" gradientUnits="userSpaceOnUse">
<stop stop-color="white" stop-opacity="0.9"/>
<stop offset="1" stop-color="#004AAD"/>
</linearGradient>
<linearGradient id="paint14_linear_144_614" x1="1178.96" y1="1485.07" x2="2133.12" y2="349.095" gradientUnits="userSpaceOnUse">
<stop stop-color="white" stop-opacity="0.9"/>
<stop offset="1" stop-color="#004AAD"/>
</linearGradient>
<linearGradient id="paint15_linear_144_614" x1="1137.43" y1="1462.45" x2="2139.58" y2="420.39" gradientUnits="userSpaceOnUse">
<stop stop-color="white" stop-opacity="0.9"/>
<stop offset="1" stop-color="#004AAD"/>
</linearGradient>
<linearGradient id="paint16_linear_144_614" x1="1097.3" y1="1438.53" x2="2136.38" y2="490.07" gradientUnits="userSpaceOnUse">
<stop stop-color="white" stop-opacity="0.9"/>
<stop offset="1" stop-color="#004AAD"/>
</linearGradient>
<linearGradient id="paint17_linear_144_614" x1="1058.6" y1="1413.42" x2="2124.48" y2="556.77" gradientUnits="userSpaceOnUse">
<stop stop-color="white" stop-opacity="0.9"/>
<stop offset="1" stop-color="#004AAD"/>
</linearGradient>
<linearGradient id="paint18_linear_144_614" x1="1021.35" y1="1387.23" x2="2104.96" y2="619.45" gradientUnits="userSpaceOnUse">
<stop stop-color="white" stop-opacity="0.9"/>
<stop offset="1" stop-color="#004AAD"/>
</linearGradient>
<linearGradient id="paint19_linear_144_614" x1="985.565" y1="1360.07" x2="2079.01" y2="677.37" gradientUnits="userSpaceOnUse">
<stop stop-color="white" stop-opacity="0.9"/>
<stop offset="1" stop-color="#004AAD"/>
</linearGradient>
<linearGradient id="paint20_linear_144_614" x1="951.252" y1="1332.06" x2="2047.79" y2="730.08" gradientUnits="userSpaceOnUse">
<stop stop-color="white" stop-opacity="0.9"/>
<stop offset="1" stop-color="#004AAD"/>
</linearGradient>
<linearGradient id="paint21_linear_144_614" x1="918.415" y1="1303.3" x2="2012.42" y2="777.4" gradientUnits="userSpaceOnUse">
<stop stop-color="white" stop-opacity="0.9"/>
<stop offset="1" stop-color="#004AAD"/>
</linearGradient>
<linearGradient id="paint22_linear_144_614" x1="887.058" y1="1273.92" x2="1973.91" y2="819.3" gradientUnits="userSpaceOnUse">
<stop stop-color="white" stop-opacity="0.9"/>
<stop offset="1" stop-color="#004AAD"/>
</linearGradient>
<linearGradient id="paint23_linear_144_614" x1="857.179" y1="1244.03" x2="1933.17" y2="855.93" gradientUnits="userSpaceOnUse">
<stop stop-color="white" stop-opacity="0.9"/>
<stop offset="1" stop-color="#004AAD"/>
</linearGradient>
<linearGradient id="paint24_linear_144_614" x1="828.753" y1="1213.74" x2="1890.98" y2="887.55" gradientUnits="userSpaceOnUse">
<stop stop-color="white" stop-opacity="0.9"/>
<stop offset="1" stop-color="#004AAD"/>
</linearGradient>
<linearGradient id="paint25_linear_144_614" x1="801.779" y1="1183.16" x2="1848.01" y2="914.49" gradientUnits="userSpaceOnUse">
<stop stop-color="white" stop-opacity="0.9"/>
<stop offset="1" stop-color="#004AAD"/>
</linearGradient>
<linearGradient id="paint26_linear_144_614" x1="776.232" y1="1152.41" x2="1804.81" y2="937.14" gradientUnits="userSpaceOnUse">
<stop stop-color="white" stop-opacity="0.9"/>
<stop offset="1" stop-color="#004AAD"/>
</linearGradient>
<linearGradient id="paint27_linear_144_614" x1="752.099" y1="1121.6" x2="1761.85" y2="955.9" gradientUnits="userSpaceOnUse">
<stop stop-color="white" stop-opacity="0.9"/>
<stop offset="1" stop-color="#004AAD"/>
</linearGradient>
<linearGradient id="paint28_linear_144_614" x1="729.333" y1="1090.84" x2="1719.48" y2="971.21" gradientUnits="userSpaceOnUse">
<stop stop-color="white" stop-opacity="0.9"/>
<stop offset="1" stop-color="#004AAD"/>
</linearGradient>
<linearGradient id="paint29_linear_144_614" x1="707.917" y1="1060.23" x2="1677.97" y2="983.49" gradientUnits="userSpaceOnUse">
<stop stop-color="white" stop-opacity="0.9"/>
<stop offset="1" stop-color="#004AAD"/>
</linearGradient>
<linearGradient id="paint30_linear_144_614" x1="687.805" y1="1029.89" x2="1637.55" y2="993.16" gradientUnits="userSpaceOnUse">
<stop stop-color="white" stop-opacity="0.9"/>
<stop offset="1" stop-color="#004AAD"/>
</linearGradient>
<linearGradient id="paint31_linear_144_614" x1="668.976" y1="999.9" x2="1598.38" y2="1000.61" gradientUnits="userSpaceOnUse">
<stop stop-color="white" stop-opacity="0.9"/>
<stop offset="1" stop-color="#004AAD"/>
</linearGradient>
<linearGradient id="paint32_linear_144_614" x1="651.363" y1="970.38" x2="1560.53" y2="1006.24" gradientUnits="userSpaceOnUse">
<stop stop-color="white" stop-opacity="0.9"/>
<stop offset="1" stop-color="#004AAD"/>
</linearGradient>
<linearGradient id="paint33_linear_144_614" x1="634.932" y1="941.41" x2="1524.06" y2="1010.41" gradientUnits="userSpaceOnUse">
<stop stop-color="white" stop-opacity="0.9"/>
<stop offset="1" stop-color="#004AAD"/>
</linearGradient>
<linearGradient id="paint34_linear_144_614" x1="619.644" y1="913.09" x2="1489.03" y2="1013.47" gradientUnits="userSpaceOnUse">
<stop stop-color="white" stop-opacity="0.9"/>
<stop offset="1" stop-color="#004AAD"/>
</linearGradient>
<linearGradient id="paint35_linear_144_614" x1="605.425" y1="885.51" x2="1455.39" y2="1015.73" gradientUnits="userSpaceOnUse">
<stop stop-color="white" stop-opacity="0.9"/>
<stop offset="1" stop-color="#004AAD"/>
</linearGradient>
<linearGradient id="paint36_linear_144_614" x1="592.223" y1="858.75" x2="1423.11" y2="1017.5" gradientUnits="userSpaceOnUse">
<stop stop-color="white" stop-opacity="0.9"/>
<stop offset="1" stop-color="#004AAD"/>
</linearGradient>
<linearGradient id="paint37_linear_144_614" x1="580.001" y1="832.88" x2="1392.14" y2="1019.06" gradientUnits="userSpaceOnUse">
<stop stop-color="white" stop-opacity="0.9"/>
<stop offset="1" stop-color="#004AAD"/>
</linearGradient>
<linearGradient id="paint38_linear_144_614" x1="568.677" y1="808" x2="1362.38" y2="1020.67" gradientUnits="userSpaceOnUse">
<stop stop-color="white" stop-opacity="0.9"/>
<stop offset="1" stop-color="#004AAD"/>
</linearGradient>
<linearGradient id="paint39_linear_144_614" x1="558.198" y1="784.15" x2="1333.74" y2="1022.57" gradientUnits="userSpaceOnUse">
<stop stop-color="white" stop-opacity="0.9"/>
<stop offset="1" stop-color="#004AAD"/>
</linearGradient>
<linearGradient id="paint40_linear_144_614" x1="548.499" y1="761.42" x2="1306.1" y2="1025" gradientUnits="userSpaceOnUse">
<stop stop-color="white" stop-opacity="0.9"/>
<stop offset="1" stop-color="#004AAD"/>
</linearGradient>
<linearGradient id="paint41_linear_144_614" x1="539.51" y1="739.86" x2="1279.32" y2="1028.14" gradientUnits="userSpaceOnUse">
<stop stop-color="white" stop-opacity="0.9"/>
<stop offset="1" stop-color="#004AAD"/>
</linearGradient>
<linearGradient id="paint42_linear_144_614" x1="531.18" y1="719.52" x2="1253.26" y2="1032.2" gradientUnits="userSpaceOnUse">
<stop stop-color="white" stop-opacity="0.9"/>
<stop offset="1" stop-color="#004AAD"/>
</linearGradient>
<linearGradient id="paint43_linear_144_614" x1="523.422" y1="700.46" x2="1227.75" y2="1037.35" gradientUnits="userSpaceOnUse">
<stop stop-color="white" stop-opacity="0.9"/>
<stop offset="1" stop-color="#004AAD"/>
</linearGradient>
<linearGradient id="paint44_linear_144_614" x1="516.181" y1="682.71" x2="1202.61" y2="1043.72" gradientUnits="userSpaceOnUse">
<stop stop-color="white" stop-opacity="0.9"/>
<stop offset="1" stop-color="#004AAD"/>
</linearGradient>
<linearGradient id="paint45_linear_144_614" x1="509.383" y1="666.33" x2="1177.64" y2="1051.47" gradientUnits="userSpaceOnUse">
<stop stop-color="white" stop-opacity="0.9"/>
<stop offset="1" stop-color="#004AAD"/>
</linearGradient>
<linearGradient id="paint46_linear_144_614" x1="502.953" y1="651.33" x2="1152.63" y2="1060.69" gradientUnits="userSpaceOnUse">
<stop stop-color="white" stop-opacity="0.9"/>
<stop offset="1" stop-color="#004AAD"/>
</linearGradient>
<linearGradient id="paint47_linear_144_614" x1="496.83" y1="637.75" x2="1127.37" y2="1071.48" gradientUnits="userSpaceOnUse">
<stop stop-color="white" stop-opacity="0.9"/>
<stop offset="1" stop-color="#004AAD"/>
</linearGradient>
<linearGradient id="paint48_linear_144_614" x1="490.957" y1="625.61" x2="1101.6" y2="1083.91" gradientUnits="userSpaceOnUse">
<stop stop-color="white" stop-opacity="0.9"/>
<stop offset="1" stop-color="#004AAD"/>
</linearGradient>
<linearGradient id="paint49_linear_144_614" x1="485.242" y1="614.92" x2="1075.06" y2="1098.01" gradientUnits="userSpaceOnUse">
<stop stop-color="white" stop-opacity="0.9"/>
<stop offset="1" stop-color="#004AAD"/>
</linearGradient>
<linearGradient id="paint50_linear_144_614" x1="479.631" y1="605.7" x2="1047.47" y2="1113.79" gradientUnits="userSpaceOnUse">
<stop stop-color="white" stop-opacity="0.9"/>
<stop offset="1" stop-color="#004AAD"/>
</linearGradient>
<linearGradient id="paint51_linear_144_614" x1="474.056" y1="597.95" x2="1018.55" y2="1131.2" gradientUnits="userSpaceOnUse">
<stop stop-color="white" stop-opacity="0.9"/>
<stop offset="1" stop-color="#004AAD"/>
</linearGradient>
<linearGradient id="paint52_linear_144_614" x1="468.454" y1="591.67" x2="987.971" y2="1150.16" gradientUnits="userSpaceOnUse">
<stop stop-color="white" stop-opacity="0.9"/>
<stop offset="1" stop-color="#004AAD"/>
</linearGradient>
<linearGradient id="paint53_linear_144_614" x1="462.752" y1="586.85" x2="955.426" y2="1170.55" gradientUnits="userSpaceOnUse">
<stop stop-color="white" stop-opacity="0.9"/>
<stop offset="1" stop-color="#004AAD"/>
</linearGradient>
<linearGradient id="paint54_linear_144_614" x1="456.903" y1="583.48" x2="920.603" y2="1192.16" gradientUnits="userSpaceOnUse">
<stop stop-color="white" stop-opacity="0.9"/>
<stop offset="1" stop-color="#004AAD"/>
</linearGradient>
<linearGradient id="paint55_linear_144_614" x1="450.825" y1="581.55" x2="883.167" y2="1214.73" gradientUnits="userSpaceOnUse">
<stop stop-color="white" stop-opacity="0.9"/>
<stop offset="1" stop-color="#004AAD"/>
</linearGradient>
<linearGradient id="paint56_linear_144_614" x1="444.49" y1="581.03" x2="842.853" y2="1237.92" gradientUnits="userSpaceOnUse">
<stop stop-color="white" stop-opacity="0.9"/>
<stop offset="1" stop-color="#004AAD"/>
</linearGradient>
<linearGradient id="paint57_linear_144_614" x1="437.808" y1="581.9" x2="799.367" y2="1261.29" gradientUnits="userSpaceOnUse">
<stop stop-color="white" stop-opacity="0.9"/>
<stop offset="1" stop-color="#004AAD"/>
</linearGradient>
<linearGradient id="paint58_linear_144_614" x1="430.751" y1="584.12" x2="752.535" y2="1284.35" gradientUnits="userSpaceOnUse">
<stop stop-color="white" stop-opacity="0.9"/>
<stop offset="1" stop-color="#004AAD"/>
</linearGradient>
<linearGradient id="paint59_linear_144_614" x1="423.261" y1="587.66" x2="702.232" y2="1306.48" gradientUnits="userSpaceOnUse">
<stop stop-color="white" stop-opacity="0.9"/>
<stop offset="1" stop-color="#004AAD"/>
</linearGradient>
<linearGradient id="paint60_linear_144_614" x1="415.286" y1="592.49" x2="648.45" y2="1327.04" gradientUnits="userSpaceOnUse">
<stop stop-color="white" stop-opacity="0.9"/>
<stop offset="1" stop-color="#004AAD"/>
</linearGradient>
<linearGradient id="paint61_linear_144_614" x1="406.788" y1="598.55" x2="591.332" y2="1345.29" gradientUnits="userSpaceOnUse">
<stop stop-color="white" stop-opacity="0.9"/>
<stop offset="1" stop-color="#004AAD"/>
</linearGradient>
<linearGradient id="paint62_linear_144_614" x1="397.707" y1="605.79" x2="531.165" y2="1360.5" gradientUnits="userSpaceOnUse">
<stop stop-color="white" stop-opacity="0.9"/>
<stop offset="1" stop-color="#004AAD"/>
</linearGradient>
<linearGradient id="paint63_linear_144_614" x1="388.027" y1="614.18" x2="468.46" y2="1371.97" gradientUnits="userSpaceOnUse">
<stop stop-color="white" stop-opacity="0.9"/>
<stop offset="1" stop-color="#004AAD"/>
</linearGradient>
<linearGradient id="paint64_linear_144_614" x1="377.697" y1="623.64" x2="403.878" y2="1379.06" gradientUnits="userSpaceOnUse">
<stop stop-color="white" stop-opacity="0.9"/>
<stop offset="1" stop-color="#004AAD"/>
</linearGradient>
<linearGradient id="paint65_linear_144_614" x1="366.688" y1="634.13" x2="338.271" y2="1381.3" gradientUnits="userSpaceOnUse">
<stop stop-color="white" stop-opacity="0.9"/>
<stop offset="1" stop-color="#004AAD"/>
</linearGradient>
<linearGradient id="paint66_linear_144_614" x1="354.97" y1="645.58" x2="272.625" y2="1378.4" gradientUnits="userSpaceOnUse">
<stop stop-color="white" stop-opacity="0.9"/>
<stop offset="1" stop-color="#004AAD"/>
</linearGradient>
<linearGradient id="paint67_linear_144_614" x1="342.524" y1="657.92" x2="208.004" y2="1370.31" gradientUnits="userSpaceOnUse">
<stop stop-color="white" stop-opacity="0.9"/>
<stop offset="1" stop-color="#004AAD"/>
</linearGradient>
<linearGradient id="paint68_linear_144_614" x1="329.321" y1="671.1" x2="145.469" y2="1357.25" gradientUnits="userSpaceOnUse">
<stop stop-color="white" stop-opacity="0.9"/>
<stop offset="1" stop-color="#004AAD"/>
</linearGradient>
<clipPath id="clip0_144_614">
<rect width="1920" height="740" fill="white"/>
</clipPath>
</defs>
</svg>
